<?xml version="1.0" encoding="UTF-8" standalone="no"?>
<!-- Generator: Adobe Illustrator 18.1.1, SVG Export Plug-In . SVG Version: 6.00 Build 0)  -->

<svg
   xmlns:dc="http://purl.org/dc/elements/1.1/"
   xmlns:cc="http://creativecommons.org/ns#"
   xmlns:rdf="http://www.w3.org/1999/02/22-rdf-syntax-ns#"
   xmlns:svg="http://www.w3.org/2000/svg"
   xmlns="http://www.w3.org/2000/svg"
   xmlns:sodipodi="http://sodipodi.sourceforge.net/DTD/sodipodi-0.dtd"
   xmlns:inkscape="http://www.inkscape.org/namespaces/inkscape"
   version="1.1"
   id="Capa_1"
   x="0px"
   y="0px"
   viewBox="0 0 19.999999 19.999999"
   xml:space="preserve"
   inkscape:version="0.91 r13725"
   sodipodi:docname="layer_up.svg"
   width="20"
   height="20"
   inkscape:export-filename="C:\projects\AbcMap2\icons\layers\layer_up.png"
   inkscape:export-xdpi="90"
   inkscape:export-ydpi="90"><metadata
     id="metadata40"><rdf:RDF><cc:Work
         rdf:about=""><dc:format>image/svg+xml</dc:format><dc:type
           rdf:resource="http://purl.org/dc/dcmitype/StillImage" /><dc:title></dc:title></cc:Work></rdf:RDF></metadata><defs
     id="defs38" /><sodipodi:namedview
     pagecolor="#ffffff"
     bordercolor="#666666"
     borderopacity="1"
     objecttolerance="10"
     gridtolerance="10"
     guidetolerance="10"
     inkscape:pageopacity="0"
     inkscape:pageshadow="2"
     inkscape:window-width="1366"
     inkscape:window-height="705"
     id="namedview36"
     showgrid="false"
     inkscape:zoom="19.890307"
     inkscape:cx="7.5853939"
     inkscape:cy="6.6377687"
     inkscape:window-x="-8"
     inkscape:window-y="-8"
     inkscape:window-maximized="1"
     inkscape:current-layer="Capa_1" /><g
     id="g6"
     transform="translate(0,-248.47601)" /><g
     id="g8"
     transform="translate(0,-248.47601)" /><g
     id="g10"
     transform="translate(0,-248.47601)" /><g
     id="g12"
     transform="translate(0,-248.47601)" /><g
     id="g14"
     transform="translate(0,-248.47601)" /><g
     id="g16"
     transform="translate(0,-248.47601)" /><g
     id="g18"
     transform="translate(0,-248.47601)" /><g
     id="g20"
     transform="translate(0,-248.47601)" /><g
     id="g22"
     transform="translate(0,-248.47601)" /><g
     id="g24"
     transform="translate(0,-248.47601)" /><g
     id="g26"
     transform="translate(0,-248.47601)" /><g
     id="g28"
     transform="translate(0,-248.47601)" /><g
     id="g30"
     transform="translate(0,-248.47601)" /><g
     id="g32"
     transform="translate(0,-248.47601)" /><g
     id="g34"
     transform="translate(0,-248.47601)" /><path
     style="clip-rule:evenodd;display:inline;fill:#1a1a1a;fill-rule:evenodd;stroke-width:0.19999998;stroke-miterlimit:4;stroke-dasharray:none"
     d="m 9.9998515,16.556748 c -0.787205,0 -1.425269,-0.638199 -1.425269,-1.425399 l 0,-6.7794998 -2.080911,2.0869998 c -0.564472,0.5655 -1.4797297,0.5655 -2.0442025,0 -0.5644728,-0.5654 -0.5644728,-1.4823999 0,-2.0477998 L 8.9577155,3.8696497 c 0.257007,-0.2575 0.587166,-0.3915999 0.923301,-0.4144999 0.03988,0 0.07812,-0.012 0.118835,-0.012 0.04032,0 0.07828,0.011 0.1177135,0.012 0.336643,0.023 0.667219,0.1567999 0.924546,0.4145999 l 4.508369,4.5213995 c 0.564537,0.5653999 0.564537,1.4823998 0,2.0477998 -0.564471,0.5655 -1.479664,0.5655 -2.044201,0 l -2.080911,-2.0869998 0,6.7794998 c 0,0.7872 -0.638187,1.425399 -1.4255165,1.425399 z"
     id="path4181-6"
     inkscape:connector-curvature="0" /></svg>