<?xml version="1.0" encoding="UTF-8" standalone="no"?>
<!-- Generator: Adobe Illustrator 18.1.1, SVG Export Plug-In . SVG Version: 6.00 Build 0)  -->

<svg
   xmlns:dc="http://purl.org/dc/elements/1.1/"
   xmlns:cc="http://creativecommons.org/ns#"
   xmlns:rdf="http://www.w3.org/1999/02/22-rdf-syntax-ns#"
   xmlns:svg="http://www.w3.org/2000/svg"
   xmlns="http://www.w3.org/2000/svg"
   xmlns:sodipodi="http://sodipodi.sourceforge.net/DTD/sodipodi-0.dtd"
   xmlns:inkscape="http://www.inkscape.org/namespaces/inkscape"
   version="1.1"
   id="Capa_1"
   x="0px"
   y="0px"
   viewBox="0 0 19.999999 19.999999"
   xml:space="preserve"
   inkscape:version="0.91 r13725"
   sodipodi:docname="layer_down.svg"
   width="20"
   height="20"
   inkscape:export-filename="C:\projects\AbcMap2\icons\layers\layer_down.png"
   inkscape:export-xdpi="90"
   inkscape:export-ydpi="90"><metadata
     id="metadata40"><rdf:RDF><cc:Work
         rdf:about=""><dc:format>image/svg+xml</dc:format><dc:type
           rdf:resource="http://purl.org/dc/dcmitype/StillImage" /><dc:title></dc:title></cc:Work></rdf:RDF></metadata><defs
     id="defs38" /><sodipodi:namedview
     pagecolor="#ffffff"
     bordercolor="#666666"
     borderopacity="1"
     objecttolerance="10"
     gridtolerance="10"
     guidetolerance="10"
     inkscape:pageopacity="0"
     inkscape:pageshadow="2"
     inkscape:window-width="1366"
     inkscape:window-height="705"
     id="namedview36"
     showgrid="false"
     inkscape:zoom="14.064571"
     inkscape:cx="14.091302"
     inkscape:cy="4.4780209"
     inkscape:window-x="-8"
     inkscape:window-y="-8"
     inkscape:window-maximized="1"
     inkscape:current-layer="Capa_1" /><path
     style="clip-rule:evenodd;display:inline;fill:#1a1a1a;fill-rule:evenodd;stroke-width:0.19999997;stroke-miterlimit:4;stroke-dasharray:none"
     d="m 9.9998518,3.4432508 c -0.787205,0 -1.425269,0.638198 -1.425269,1.425398 l 0,6.7794992 -2.080911,-2.0869992 c -0.5644719,-0.5655 -1.4797295,-0.5655 -2.0442022,0 -0.5644728,0.5654002 -0.5644728,1.4823992 0,2.0477992 l 4.5082462,4.521399 c 0.257007,0.2575 0.587166,0.3916 0.923301,0.4145 0.03988,0 0.07812,0.012 0.118835,0.012 0.04032,0 0.07828,-0.011 0.1177132,-0.012 0.336643,-0.023 0.667219,-0.1568 0.924546,-0.4146 l 4.508369,-4.521399 c 0.564537,-0.5654 0.564537,-1.482399 0,-2.0477992 -0.564471,-0.5655 -1.479664,-0.5655 -2.044201,0 l -2.080911,2.0869992 0,-6.7794992 c 0,-0.7872 -0.638187,-1.425398 -1.4255162,-1.425398 z"
     id="path4181-6"
     inkscape:connector-curvature="0" /><g
     id="g6"
     transform="translate(0,-248.47601)" /><g
     id="g8"
     transform="translate(0,-248.47601)" /><g
     id="g10"
     transform="translate(0,-248.47601)" /><g
     id="g12"
     transform="translate(0,-248.47601)" /><g
     id="g14"
     transform="translate(0,-248.47601)" /><g
     id="g16"
     transform="translate(0,-248.47601)" /><g
     id="g18"
     transform="translate(0,-248.47601)" /><g
     id="g20"
     transform="translate(0,-248.47601)" /><g
     id="g22"
     transform="translate(0,-248.47601)" /><g
     id="g24"
     transform="translate(0,-248.47601)" /><g
     id="g26"
     transform="translate(0,-248.47601)" /><g
     id="g28"
     transform="translate(0,-248.47601)" /><g
     id="g30"
     transform="translate(0,-248.47601)" /><g
     id="g32"
     transform="translate(0,-248.47601)" /><g
     id="g34"
     transform="translate(0,-248.47601)" /></svg>