<?xml version="1.0" encoding="UTF-8" standalone="no"?>
<!-- Generator: Adobe Illustrator 16.0.0, SVG Export Plug-In . SVG Version: 6.00 Build 0)  -->

<svg
   xmlns:dc="http://purl.org/dc/elements/1.1/"
   xmlns:cc="http://creativecommons.org/ns#"
   xmlns:rdf="http://www.w3.org/1999/02/22-rdf-syntax-ns#"
   xmlns:svg="http://www.w3.org/2000/svg"
   xmlns="http://www.w3.org/2000/svg"
   xmlns:sodipodi="http://sodipodi.sourceforge.net/DTD/sodipodi-0.dtd"
   xmlns:inkscape="http://www.inkscape.org/namespaces/inkscape"
   version="1.1"
   id="Capa_1"
   x="0px"
   y="0px"
   width="20"
   height="20"
   viewBox="0 0 20 20"
   xml:space="preserve"
   inkscape:version="0.91 r13725"
   sodipodi:docname="wizard_home.svg"
   inkscape:export-filename="C:\eclipse\project\AbcMap2\icons\wizard_home.png"
   inkscape:export-xdpi="90"
   inkscape:export-ydpi="90"><metadata
     id="metadata41"><rdf:RDF><cc:Work
         rdf:about=""><dc:format>image/svg+xml</dc:format><dc:type
           rdf:resource="http://purl.org/dc/dcmitype/StillImage" /><dc:title></dc:title></cc:Work></rdf:RDF></metadata><defs
     id="defs39" /><sodipodi:namedview
     pagecolor="#ffffff"
     bordercolor="#666666"
     borderopacity="1"
     objecttolerance="10"
     gridtolerance="10"
     guidetolerance="10"
     inkscape:pageopacity="0"
     inkscape:pageshadow="2"
     inkscape:window-width="1366"
     inkscape:window-height="705"
     id="namedview37"
     showgrid="false"
     inkscape:zoom="13.791189"
     inkscape:cx="-4.7024942"
     inkscape:cy="8.1359063"
     inkscape:window-x="-8"
     inkscape:window-y="-8"
     inkscape:window-maximized="1"
     inkscape:current-layer="Capa_1" /><g
     id="g3"
     transform="matrix(0.03603746,0,0,0.03603746,0.13300729,0.13302454)"
     style="fill:#1a1a1a"><path
       d="M 540.76,254.788 294.506,38.216 c -11.475,-10.098 -30.064,-10.098 -41.386,0 L 6.943,254.788 c -11.475,10.098 -8.415,18.284 6.885,18.284 l 75.964,0 0,221.773 c 0,12.087 9.945,22.108 22.108,22.108 l 92.947,0 0,-145.886 c 0,-12.087 9.945,-22.108 22.109,-22.108 l 93.865,0 c 12.239,0 22.108,9.792 22.108,22.108 l 0,145.886 92.947,0 c 12.24,0 22.108,-9.945 22.108,-22.108 l 0,-221.85 75.965,0 c 15.072,0 18.132,-8.109 6.811,-18.207 z"
       id="path5"
       inkscape:connector-curvature="0"
       style="fill:#1a1a1a" /></g><g
     id="g7"
     transform="translate(0,-527.59601)" /><g
     id="g9"
     transform="translate(0,-527.59601)" /><g
     id="g11"
     transform="translate(0,-527.59601)" /><g
     id="g13"
     transform="translate(0,-527.59601)" /><g
     id="g15"
     transform="translate(0,-527.59601)" /><g
     id="g17"
     transform="translate(0,-527.59601)" /><g
     id="g19"
     transform="translate(0,-527.59601)" /><g
     id="g21"
     transform="translate(0,-527.59601)" /><g
     id="g23"
     transform="translate(0,-527.59601)" /><g
     id="g25"
     transform="translate(0,-527.59601)" /><g
     id="g27"
     transform="translate(0,-527.59601)" /><g
     id="g29"
     transform="translate(0,-527.59601)" /><g
     id="g31"
     transform="translate(0,-527.59601)" /><g
     id="g33"
     transform="translate(0,-527.59601)" /><g
     id="g35"
     transform="translate(0,-527.59601)" /></svg>