<?xml version="1.0" encoding="UTF-8" standalone="no"?>
<!-- Generator: Adobe Illustrator 18.1.1, SVG Export Plug-In . SVG Version: 6.00 Build 0)  -->

<svg
   xmlns:dc="http://purl.org/dc/elements/1.1/"
   xmlns:cc="http://creativecommons.org/ns#"
   xmlns:rdf="http://www.w3.org/1999/02/22-rdf-syntax-ns#"
   xmlns:svg="http://www.w3.org/2000/svg"
   xmlns="http://www.w3.org/2000/svg"
   xmlns:sodipodi="http://sodipodi.sourceforge.net/DTD/sodipodi-0.dtd"
   xmlns:inkscape="http://www.inkscape.org/namespaces/inkscape"
   version="1.1"
   id="Capa_1"
   x="0px"
   y="0px"
   viewBox="0 0 19.999999 19.999999"
   xml:space="preserve"
   inkscape:version="0.91 r13725"
   sodipodi:docname="wizard_next.svg"
   inkscape:export-filename="C:\eclipse\project\AbcMap2\icons\wizard_next.png"
   inkscape:export-xdpi="90"
   inkscape:export-ydpi="90"
   width="20"
   height="20"><metadata
     id="metadata40"><rdf:RDF><cc:Work
         rdf:about=""><dc:format>image/svg+xml</dc:format><dc:type
           rdf:resource="http://purl.org/dc/dcmitype/StillImage" /><dc:title></dc:title></cc:Work></rdf:RDF></metadata><defs
     id="defs38" /><sodipodi:namedview
     pagecolor="#ffffff"
     bordercolor="#666666"
     borderopacity="1"
     objecttolerance="10"
     gridtolerance="10"
     guidetolerance="10"
     inkscape:pageopacity="0"
     inkscape:pageshadow="2"
     inkscape:window-width="1366"
     inkscape:window-height="705"
     id="namedview36"
     showgrid="false"
     inkscape:zoom="19.890307"
     inkscape:cx="3.6763172"
     inkscape:cy="10.378618"
     inkscape:window-x="-8"
     inkscape:window-y="-8"
     inkscape:window-maximized="1"
     inkscape:current-layer="Capa_1" /><path
     style="clip-rule:evenodd;fill:#1a1a1a;fill-rule:evenodd"
     d="m 0.08427449,10.000036 c 0,1.190472 0.96511921,2.155592 2.15559241,2.155592 l 10.2523771,0 -3.1559535,3.146919 c -0.8551832,0.853641 -0.8551832,2.237765 0,3.091406 0.8550855,0.85364 2.2417775,0.85364 3.0968645,0 l 6.837487,-6.817917 c 0.389344,-0.38867 0.592232,-0.887771 0.627014,-1.396099 0.0052,-0.06031 0.01807,-0.118335 0.01807,-0.179901 0,-0.060989 -0.01295,-0.1183802 -0.01789,-0.1780182 C 19.863445,9.3129151 19.660463,8.8129938 19.27064,8.4238464 L 12.433151,1.606116 c -0.855085,-0.85373567 -2.241778,-0.85373567 -3.0968636,0 -0.8551832,0.8536413 -0.8551832,2.2376704 0,3.0914093 l 3.1559536,3.1469181 -10.2523771,0 c -1.1904732,0 -2.15559246,0.9649272 -2.15559246,2.1555926 z"
     id="path4"
     inkscape:connector-curvature="0" /><g
     id="g6"
     transform="translate(0,-248.47601)" /><g
     id="g8"
     transform="translate(0,-248.47601)" /><g
     id="g10"
     transform="translate(0,-248.47601)" /><g
     id="g12"
     transform="translate(0,-248.47601)" /><g
     id="g14"
     transform="translate(0,-248.47601)" /><g
     id="g16"
     transform="translate(0,-248.47601)" /><g
     id="g18"
     transform="translate(0,-248.47601)" /><g
     id="g20"
     transform="translate(0,-248.47601)" /><g
     id="g22"
     transform="translate(0,-248.47601)" /><g
     id="g24"
     transform="translate(0,-248.47601)" /><g
     id="g26"
     transform="translate(0,-248.47601)" /><g
     id="g28"
     transform="translate(0,-248.47601)" /><g
     id="g30"
     transform="translate(0,-248.47601)" /><g
     id="g32"
     transform="translate(0,-248.47601)" /><g
     id="g34"
     transform="translate(0,-248.47601)" /></svg>