<?xml version="1.0" encoding="UTF-8" standalone="no"?>
<!-- Generator: Adobe Illustrator 18.1.1, SVG Export Plug-In . SVG Version: 6.00 Build 0)  -->

<svg
   xmlns:dc="http://purl.org/dc/elements/1.1/"
   xmlns:cc="http://creativecommons.org/ns#"
   xmlns:rdf="http://www.w3.org/1999/02/22-rdf-syntax-ns#"
   xmlns:svg="http://www.w3.org/2000/svg"
   xmlns="http://www.w3.org/2000/svg"
   xmlns:sodipodi="http://sodipodi.sourceforge.net/DTD/sodipodi-0.dtd"
   xmlns:inkscape="http://www.inkscape.org/namespaces/inkscape"
   version="1.1"
   id="Capa_1"
   x="0px"
   y="0px"
   viewBox="0 0 19.999999 19.999999"
   xml:space="preserve"
   inkscape:version="0.91 r13725"
   sodipodi:docname="smallicon_down.svg"
   width="20"
   height="20"
   inkscape:export-filename="C:\projects\AbcMap2\icons\zorder\smallicon_down.png"
   inkscape:export-xdpi="90"
   inkscape:export-ydpi="90"><metadata
     id="metadata40"><rdf:RDF><cc:Work
         rdf:about=""><dc:format>image/svg+xml</dc:format><dc:type
           rdf:resource="http://purl.org/dc/dcmitype/StillImage" /><dc:title /></cc:Work></rdf:RDF></metadata><defs
     id="defs38" /><sodipodi:namedview
     pagecolor="#ffffff"
     bordercolor="#666666"
     borderopacity="1"
     objecttolerance="10"
     gridtolerance="10"
     guidetolerance="10"
     inkscape:pageopacity="0"
     inkscape:pageshadow="2"
     inkscape:window-width="1366"
     inkscape:window-height="705"
     id="namedview36"
     showgrid="false"
     inkscape:zoom="14.064571"
     inkscape:cx="3.3425983"
     inkscape:cy="7.0773059"
     inkscape:window-x="-8"
     inkscape:window-y="-8"
     inkscape:window-maximized="1"
     inkscape:current-layer="Capa_1" /><g
     id="g6"
     transform="translate(0,-248.47601)" /><g
     id="g8"
     transform="translate(0,-248.47601)" /><g
     id="g10"
     transform="translate(0,-248.47601)" /><g
     id="g12"
     transform="translate(0,-248.47601)" /><g
     id="g14"
     transform="translate(0,-248.47601)" /><g
     id="g16"
     transform="translate(0,-248.47601)" /><g
     id="g18"
     transform="translate(0,-248.47601)" /><g
     id="g20"
     transform="translate(0,-248.47601)" /><g
     id="g22"
     transform="translate(0,-248.47601)" /><g
     id="g24"
     transform="translate(0,-248.47601)" /><g
     id="g26"
     transform="translate(0,-248.47601)" /><g
     id="g28"
     transform="translate(0,-248.47601)" /><g
     id="g30"
     transform="translate(0,-248.47601)" /><g
     id="g32"
     transform="translate(0,-248.47601)" /><g
     id="g34"
     transform="translate(0,-248.47601)" /><path
     style="clip-rule:evenodd;fill:#1a1a1a;fill-rule:evenodd"
     d="m 9.9998514,3.4680279 c -0.7842226,0 -1.4198701,0.6357717 -1.4198701,1.4199933 l 0,6.7537398 L 6.506952,9.5627811 c -0.5623347,-0.5633503 -1.4741255,-0.5633503 -2.0364603,0 -0.5623348,0.5632879 -0.5623348,1.4767689 0,2.0400559 l 4.4911712,4.504187 c 0.2560338,0.256478 0.5849423,0.390131 0.9198041,0.413044 0.039731,0.0034 0.077828,0.0119 0.1183844,0.0119 0.040176,0 0.077981,-0.0085 0.1172686,-0.01178 0.335369,-0.02266 0.664692,-0.156372 0.921044,-0.413167 l 4.491294,-4.504188 c 0.562398,-0.563287 0.562398,-1.476768 0,-2.0400553 -0.562335,-0.5633503 -1.474062,-0.5633503 -2.03646,0 l -2.073029,2.0789803 0,-6.7537403 c 0,-0.7842215 -0.635769,-1.4199932 -1.4201176,-1.4199932 z"
     id="path4181"
     inkscape:connector-curvature="0" /></svg>