<?xml version="1.0" encoding="UTF-8" standalone="no"?>
<!-- Generator: Adobe Illustrator 18.1.1, SVG Export Plug-In . SVG Version: 6.00 Build 0)  -->

<svg
   xmlns:dc="http://purl.org/dc/elements/1.1/"
   xmlns:cc="http://creativecommons.org/ns#"
   xmlns:rdf="http://www.w3.org/1999/02/22-rdf-syntax-ns#"
   xmlns:svg="http://www.w3.org/2000/svg"
   xmlns="http://www.w3.org/2000/svg"
   xmlns:sodipodi="http://sodipodi.sourceforge.net/DTD/sodipodi-0.dtd"
   xmlns:inkscape="http://www.inkscape.org/namespaces/inkscape"
   version="1.1"
   id="Capa_1"
   x="0px"
   y="0px"
   viewBox="0 0 19.999999 19.999999"
   xml:space="preserve"
   inkscape:version="0.91 r13725"
   sodipodi:docname="smallicon_up.svg"
   width="20"
   height="20"
   inkscape:export-filename="C:\projects\AbcMap2\icons\zorder\smallicon_up.png"
   inkscape:export-xdpi="90"
   inkscape:export-ydpi="90"><metadata
     id="metadata40"><rdf:RDF><cc:Work
         rdf:about=""><dc:format>image/svg+xml</dc:format><dc:type
           rdf:resource="http://purl.org/dc/dcmitype/StillImage" /><dc:title /></cc:Work></rdf:RDF></metadata><defs
     id="defs38" /><sodipodi:namedview
     pagecolor="#ffffff"
     bordercolor="#666666"
     borderopacity="1"
     objecttolerance="10"
     gridtolerance="10"
     guidetolerance="10"
     inkscape:pageopacity="0"
     inkscape:pageshadow="2"
     inkscape:window-width="1366"
     inkscape:window-height="705"
     id="namedview36"
     showgrid="false"
     inkscape:zoom="14.064571"
     inkscape:cx="-18.543892"
     inkscape:cy="4.4780209"
     inkscape:window-x="-8"
     inkscape:window-y="-8"
     inkscape:window-maximized="1"
     inkscape:current-layer="Capa_1" /><g
     id="g6"
     transform="translate(0,-248.47601)" /><g
     id="g8"
     transform="translate(0,-248.47601)" /><g
     id="g10"
     transform="translate(0,-248.47601)" /><g
     id="g12"
     transform="translate(0,-248.47601)" /><g
     id="g14"
     transform="translate(0,-248.47601)" /><g
     id="g16"
     transform="translate(0,-248.47601)" /><g
     id="g18"
     transform="translate(0,-248.47601)" /><g
     id="g20"
     transform="translate(0,-248.47601)" /><g
     id="g22"
     transform="translate(0,-248.47601)" /><g
     id="g24"
     transform="translate(0,-248.47601)" /><g
     id="g26"
     transform="translate(0,-248.47601)" /><g
     id="g28"
     transform="translate(0,-248.47601)" /><g
     id="g30"
     transform="translate(0,-248.47601)" /><g
     id="g32"
     transform="translate(0,-248.47601)" /><g
     id="g34"
     transform="translate(0,-248.47601)" /><path
     style="clip-rule:evenodd;fill:#1a1a1a;fill-rule:evenodd"
     d="m 9.9998516,16.531966 c -0.784222,0 -1.41987,-0.635771 -1.41987,-1.419993 l 0,-6.7537392 -2.073029,2.0789802 c -0.562334,0.56335 -1.474125,0.56335 -2.03646,0 -0.562335,-0.5632882 -0.562335,-1.4767692 0,-2.0400562 l 4.491171,-4.504186 c 0.256034,-0.256478 0.584942,-0.390131 0.919804,-0.413044 0.03973,-0.0034 0.07783,-0.0119 0.118384,-0.0119 0.04018,0 0.07798,0.0085 0.1172694,0.01178 0.335369,0.02266 0.664692,0.156372 0.921044,0.413167 l 4.491293,4.504187 c 0.562398,0.563287 0.562398,1.476768 0,2.0400552 -0.562335,0.56335 -1.474062,0.56335 -2.03646,0 l -2.073028,-2.0789802 0,6.7537402 c 0,0.784221 -0.635769,1.419993 -1.4201184,1.419993 z"
     id="path4181-4"
     inkscape:connector-curvature="0" /></svg>