<?xml version="1.0" encoding="UTF-8" standalone="no"?>
<!-- Generator: Adobe Illustrator 18.1.1, SVG Export Plug-In . SVG Version: 6.00 Build 0)  -->

<svg
   xmlns:dc="http://purl.org/dc/elements/1.1/"
   xmlns:cc="http://creativecommons.org/ns#"
   xmlns:rdf="http://www.w3.org/1999/02/22-rdf-syntax-ns#"
   xmlns:svg="http://www.w3.org/2000/svg"
   xmlns="http://www.w3.org/2000/svg"
   xmlns:sodipodi="http://sodipodi.sourceforge.net/DTD/sodipodi-0.dtd"
   xmlns:inkscape="http://www.inkscape.org/namespaces/inkscape"
   version="1.1"
   id="Capa_1"
   x="0px"
   y="0px"
   viewBox="0 0 19.999999 19.999999"
   xml:space="preserve"
   inkscape:version="0.91 r13725"
   sodipodi:docname="smallicon_top.svg"
   width="20"
   height="20"
   inkscape:export-filename="C:\projects\AbcMap2\icons\zorder\smallicon_top.png"
   inkscape:export-xdpi="90"
   inkscape:export-ydpi="90"><metadata
     id="metadata40"><rdf:RDF><cc:Work
         rdf:about=""><dc:format>image/svg+xml</dc:format><dc:type
           rdf:resource="http://purl.org/dc/dcmitype/StillImage" /><dc:title /></cc:Work></rdf:RDF></metadata><defs
     id="defs38" /><sodipodi:namedview
     pagecolor="#ffffff"
     bordercolor="#666666"
     borderopacity="1"
     objecttolerance="10"
     gridtolerance="10"
     guidetolerance="10"
     inkscape:pageopacity="0"
     inkscape:pageshadow="2"
     inkscape:window-width="1366"
     inkscape:window-height="705"
     id="namedview36"
     showgrid="false"
     inkscape:zoom="7.0322856"
     inkscape:cx="-23.006744"
     inkscape:cy="9.8006671"
     inkscape:window-x="-8"
     inkscape:window-y="-8"
     inkscape:window-maximized="1"
     inkscape:current-layer="Capa_1" /><g
     id="g6"
     transform="translate(0,-248.47601)" /><g
     id="g8"
     transform="translate(0,-248.47601)" /><g
     id="g10"
     transform="translate(0,-248.47601)" /><g
     id="g12"
     transform="translate(0,-248.47601)" /><g
     id="g14"
     transform="translate(0,-248.47601)" /><g
     id="g16"
     transform="translate(0,-248.47601)" /><g
     id="g18"
     transform="translate(0,-248.47601)" /><g
     id="g20"
     transform="translate(0,-248.47601)" /><g
     id="g22"
     transform="translate(0,-248.47601)" /><g
     id="g24"
     transform="translate(0,-248.47601)" /><g
     id="g26"
     transform="translate(0,-248.47601)" /><g
     id="g28"
     transform="translate(0,-248.47601)" /><g
     id="g30"
     transform="translate(0,-248.47601)" /><g
     id="g32"
     transform="translate(0,-248.47601)" /><g
     id="g34"
     transform="translate(0,-248.47601)" /><g
     id="g4162"
     transform="translate(1.2040725e-7,-0.14978619)"><path
       sodipodi:nodetypes="sssssss"
       inkscape:connector-curvature="0"
       id="path4179-8"
       d="m 5.9871997,4.6281099 c -0.5901811,0 -1.0686761,-0.4840881 -1.0686761,-1.0813266 0,-0.597238 0.4785433,-1.0814213 1.0686761,-1.0814213 l 8.0255983,0 c 0.590182,0 1.068676,0.4841833 1.068676,1.0814213 0,0.5972385 -0.478494,1.0813266 -1.068676,1.0813266 z"
       style="clip-rule:evenodd;fill:#1a1a1a;fill-opacity:1;fill-rule:evenodd" /><path
       inkscape:connector-curvature="0"
       id="path4181-2"
       d="m 9.9998553,17.834208 c -0.7626914,0 -1.380887,-0.618316 -1.380887,-1.381007 l 0,-6.568313 -2.0161134,2.021901 c -0.5468956,0.547883 -1.4336529,0.547883 -1.9805485,0 -0.5468957,-0.547822 -0.5468957,-1.436224 0,-1.9840451 L 8.9901707,5.5422205 C 9.239175,5.2927841 9.5590532,5.1628013 9.8847212,5.140517 c 0.038641,-0.00327 0.075691,-0.011573 0.1151341,-0.011573 0.039073,0 0.075841,0.00831 0.1140487,0.011453 0.326162,0.022037 0.646444,0.1520791 0.895756,0.4018238 l 4.367985,4.3805234 c 0.546957,0.5478208 0.546957,1.4362228 0,1.9840448 -0.546895,0.547883 -1.433591,0.547883 -1.980549,0 l -2.016113,-2.0219007 0,6.5683127 c 0,0.762691 -0.618313,1.381007 -1.3811277,1.381007 z"
       style="clip-rule:evenodd;fill:#1a1a1a;fill-opacity:1;fill-rule:evenodd" /></g></svg>