<?xml version="1.0" encoding="UTF-8" standalone="no"?>
<!-- Generator: Adobe Illustrator 16.0.0, SVG Export Plug-In . SVG Version: 6.00 Build 0)  -->

<svg
   xmlns:dc="http://purl.org/dc/elements/1.1/"
   xmlns:cc="http://creativecommons.org/ns#"
   xmlns:rdf="http://www.w3.org/1999/02/22-rdf-syntax-ns#"
   xmlns:svg="http://www.w3.org/2000/svg"
   xmlns="http://www.w3.org/2000/svg"
   xmlns:sodipodi="http://sodipodi.sourceforge.net/DTD/sodipodi-0.dtd"
   xmlns:inkscape="http://www.inkscape.org/namespaces/inkscape"
   version="1.1"
   id="Capa_1"
   x="0px"
   y="0px"
   width="35"
   height="35"
   viewBox="0 0 34.999999 34.999999"
   xml:space="preserve"
   inkscape:version="0.91 r13725"
   sodipodi:docname="social_pinterest.svg"
   inkscape:export-filename="C:\eclipse\project\AbcMap2\icons\social_pinterest.png"
   inkscape:export-xdpi="90"
   inkscape:export-ydpi="90"><metadata
     id="metadata5986"><rdf:RDF><cc:Work
         rdf:about=""><dc:format>image/svg+xml</dc:format><dc:type
           rdf:resource="http://purl.org/dc/dcmitype/StillImage" /><dc:title></dc:title></cc:Work></rdf:RDF></metadata><defs
     id="defs5984" /><sodipodi:namedview
     pagecolor="#ffffff"
     bordercolor="#666666"
     borderopacity="1"
     objecttolerance="10"
     gridtolerance="10"
     guidetolerance="10"
     inkscape:pageopacity="0"
     inkscape:pageshadow="2"
     inkscape:window-width="1366"
     inkscape:window-height="705"
     id="namedview5982"
     showgrid="false"
     inkscape:zoom="10.012638"
     inkscape:cx="17.49412"
     inkscape:cy="10.549206"
     inkscape:window-x="-8"
     inkscape:window-y="-8"
     inkscape:window-maximized="1"
     inkscape:current-layer="Capa_1" /><g
     id="g5948"
     style="fill:#d00906;fill-opacity:1"
     transform="matrix(0.06518259,0,0,0.06518259,0.11795261,0.11798567)"><path
       d="M 266.667,0 C 119.391,0 0,119.391 0,266.667 0,413.942 119.388,533.333 266.667,533.333 413.942,533.333 533.334,413.942 533.334,266.667 533.333,119.391 413.942,0 266.667,0 Z m 25.856,356.311 c -24.229,-1.882 -34.397,-13.883 -53.388,-25.421 -10.448,54.781 -23.21,107.302 -61.01,134.734 -11.669,-82.795 17.132,-144.981 30.505,-210.997 -22.804,-38.389 2.744,-115.643 50.844,-96.601 59.18,23.41 -51.25,142.712 22.881,157.613 77.406,15.556 109.004,-134.302 61.011,-183.035 C 274.012,62.237 141.492,131 157.788,231.748 c 3.966,24.631 29.412,32.103 10.168,66.095 -44.385,-9.839 -57.63,-44.845 -55.925,-91.517 2.744,-76.393 68.638,-129.877 134.733,-137.274 83.584,-9.356 162.035,30.681 172.867,109.311 12.195,88.744 -37.732,184.86 -127.108,177.948 z"
       id="path5950"
       style="fill:#d00906;fill-opacity:1"
       inkscape:connector-curvature="0" /></g><g
     id="g5952"
     transform="translate(0,-498.33301)" /><g
     id="g5954"
     transform="translate(0,-498.33301)" /><g
     id="g5956"
     transform="translate(0,-498.33301)" /><g
     id="g5958"
     transform="translate(0,-498.33301)" /><g
     id="g5960"
     transform="translate(0,-498.33301)" /><g
     id="g5962"
     transform="translate(0,-498.33301)" /><g
     id="g5964"
     transform="translate(0,-498.33301)" /><g
     id="g5966"
     transform="translate(0,-498.33301)" /><g
     id="g5968"
     transform="translate(0,-498.33301)" /><g
     id="g5970"
     transform="translate(0,-498.33301)" /><g
     id="g5972"
     transform="translate(0,-498.33301)" /><g
     id="g5974"
     transform="translate(0,-498.33301)" /><g
     id="g5976"
     transform="translate(0,-498.33301)" /><g
     id="g5978"
     transform="translate(0,-498.33301)" /><g
     id="g5980"
     transform="translate(0,-498.33301)" /></svg>