<?xml version="1.0" encoding="UTF-8" standalone="no"?>
<!-- Generator: Adobe Illustrator 18.1.1, SVG Export Plug-In . SVG Version: 6.00 Build 0)  -->

<svg
   xmlns:dc="http://purl.org/dc/elements/1.1/"
   xmlns:cc="http://creativecommons.org/ns#"
   xmlns:rdf="http://www.w3.org/1999/02/22-rdf-syntax-ns#"
   xmlns:svg="http://www.w3.org/2000/svg"
   xmlns="http://www.w3.org/2000/svg"
   xmlns:sodipodi="http://sodipodi.sourceforge.net/DTD/sodipodi-0.dtd"
   xmlns:inkscape="http://www.inkscape.org/namespaces/inkscape"
   version="1.1"
   id="Capa_1"
   x="0px"
   y="0px"
   viewBox="0 0 35 35"
   xml:space="preserve"
   inkscape:version="0.91 r13725"
   sodipodi:docname="social_linkedin.svg"
   inkscape:export-filename="C:\eclipse\project\AbcMap2\icons\social_linkedin.png"
   inkscape:export-xdpi="90"
   inkscape:export-ydpi="90"
   width="35"
   height="35"><metadata
     id="metadata4814"><rdf:RDF><cc:Work
         rdf:about=""><dc:format>image/svg+xml</dc:format><dc:type
           rdf:resource="http://purl.org/dc/dcmitype/StillImage" /><dc:title></dc:title></cc:Work></rdf:RDF></metadata><defs
     id="defs4812" /><sodipodi:namedview
     pagecolor="#ffffff"
     bordercolor="#666666"
     borderopacity="1"
     objecttolerance="10"
     gridtolerance="10"
     guidetolerance="10"
     inkscape:pageopacity="0"
     inkscape:pageshadow="2"
     inkscape:window-width="1366"
     inkscape:window-height="705"
     id="namedview4810"
     showgrid="false"
     inkscape:zoom="7.375"
     inkscape:cx="13.95999"
     inkscape:cy="12.867992"
     inkscape:window-x="-8"
     inkscape:window-y="-8"
     inkscape:window-maximized="1"
     inkscape:current-layer="Capa_1" /><g
     id="g4774"
     style="fill:#007bb6;fill-opacity:1"
     transform="matrix(2.1719737,0,0,2.1719737,0.12421032,0.12421032)"><g
       id="g4776"
       style="fill:#007bb6;fill-opacity:1"><path
         style="fill:#007bb6;fill-opacity:1"
         d="M 8,0 C 3.582,0 0,3.582 0,8 c 0,4.418 3.582,8 8,8 4.418,0 8,-3.582 8,-8 C 16,3.581 12.418,0 8,0 Z m -2,11.875 -2,0 0,-7 2,0 0,7 z M 5.062,4.446 C 4.544,4.446 4.125,4.026 4.125,3.508 4.125,2.99 4.545,2.57 5.062,2.57 5.58,2.571 6,2.991 6,3.508 6,4.026 5.58,4.446 5.062,4.446 Z m 7.938,7.429 -2,0 0,-4.328 C 11,7.04 10.855,6.685 10.232,6.685 9.199,6.685 9,7.547 9,7.547 l 0,4.328 -2,0 0,-7 2,0 0,0.669 c 0.286,-0.219 1,-0.668 2,-0.668 0.648,0 2,0.388 2,2.732 l 0,4.267 z"
         id="path4778"
         inkscape:connector-curvature="0" /></g></g><g
     id="g4780"
     transform="translate(0,19)" /><g
     id="g4782"
     transform="translate(0,19)" /><g
     id="g4784"
     transform="translate(0,19)" /><g
     id="g4786"
     transform="translate(0,19)" /><g
     id="g4788"
     transform="translate(0,19)" /><g
     id="g4790"
     transform="translate(0,19)" /><g
     id="g4792"
     transform="translate(0,19)" /><g
     id="g4794"
     transform="translate(0,19)" /><g
     id="g4796"
     transform="translate(0,19)" /><g
     id="g4798"
     transform="translate(0,19)" /><g
     id="g4800"
     transform="translate(0,19)" /><g
     id="g4802"
     transform="translate(0,19)" /><g
     id="g4804"
     transform="translate(0,19)" /><g
     id="g4806"
     transform="translate(0,19)" /><g
     id="g4808"
     transform="translate(0,19)" /></svg>