<?xml version="1.0" encoding="UTF-8" standalone="no"?>
<!-- Generator: Adobe Illustrator 16.0.0, SVG Export Plug-In . SVG Version: 6.00 Build 0)  -->

<svg
   xmlns:dc="http://purl.org/dc/elements/1.1/"
   xmlns:cc="http://creativecommons.org/ns#"
   xmlns:rdf="http://www.w3.org/1999/02/22-rdf-syntax-ns#"
   xmlns:svg="http://www.w3.org/2000/svg"
   xmlns="http://www.w3.org/2000/svg"
   xmlns:sodipodi="http://sodipodi.sourceforge.net/DTD/sodipodi-0.dtd"
   xmlns:inkscape="http://www.inkscape.org/namespaces/inkscape"
   version="1.1"
   id="Capa_1"
   x="0px"
   y="0px"
   width="35"
   height="35"
   viewBox="0 0 35.000001 34.999999"
   xml:space="preserve"
   inkscape:version="0.91 r13725"
   sodipodi:docname="social_paypal.svg"
   inkscape:export-filename="C:\eclipse\project\AbcMap2\icons\social_paypal.png"
   inkscape:export-xdpi="90"
   inkscape:export-ydpi="90"><metadata
     id="metadata42"><rdf:RDF><cc:Work
         rdf:about=""><dc:format>image/svg+xml</dc:format><dc:type
           rdf:resource="http://purl.org/dc/dcmitype/StillImage" /><dc:title></dc:title></cc:Work></rdf:RDF></metadata><defs
     id="defs40" /><sodipodi:namedview
     pagecolor="#ffffff"
     bordercolor="#666666"
     borderopacity="1"
     objecttolerance="10"
     gridtolerance="10"
     guidetolerance="10"
     inkscape:pageopacity="0"
     inkscape:pageshadow="2"
     inkscape:window-width="1366"
     inkscape:window-height="705"
     id="namedview38"
     showgrid="false"
     inkscape:zoom="8"
     inkscape:cx="20.575546"
     inkscape:cy="6.7523209"
     inkscape:window-x="-8"
     inkscape:window-y="-8"
     inkscape:window-maximized="1"
     inkscape:current-layer="Capa_1" /><g
     id="g8"
     transform="translate(0,-15.407001)" /><g
     id="g10"
     transform="translate(0,-15.407001)" /><g
     id="g12"
     transform="translate(0,-15.407001)" /><g
     id="g14"
     transform="translate(0,-15.407001)" /><g
     id="g16"
     transform="translate(0,-15.407001)" /><g
     id="g18"
     transform="translate(0,-15.407001)" /><g
     id="g20"
     transform="translate(0,-15.407001)" /><g
     id="g22"
     transform="translate(0,-15.407001)" /><g
     id="g24"
     transform="translate(0,-15.407001)" /><g
     id="g26"
     transform="translate(0,-15.407001)" /><g
     id="g28"
     transform="translate(0,-15.407001)" /><g
     id="g30"
     transform="translate(0,-15.407001)" /><g
     id="g32"
     transform="translate(0,-15.407001)" /><g
     id="g34"
     transform="translate(0,-15.407001)" /><g
     id="g36"
     transform="translate(0,-15.407001)" /><g
     id="g4272"
     transform="translate(-2.934739e-8,0.19706769)"><g
       transform="matrix(0.63845915,0,0,0.63845915,1.4049905,11.309474)"
       id="g4213"><path
         d="m 47.499557,18.378945 0,0.38086 -0.154297,0 0,0.1875 0.154297,0 0,0.710937 0.105468,0.353516 0.3125,0.111328 0.13086,-0.01172 0.138672,-0.02539 0,-0.201172 -0.01172,0 -0.08594,0.02539 -0.115235,0.01563 -0.140625,-0.02148 -0.07227,-0.07031 -0.0332,-0.109376 -0.002,-0.166015 0,-0.611328 0.458985,0 0,-0.1875 -0.458985,0 0,-0.38086 -0.226562,0 z m 2.476562,0.341797 -0.242187,0.04883 -0.246094,0.166016 -0.142578,-0.158203 -0.232422,-0.05469 -0.222656,0.04883 -0.210938,0.134765 0,-0.146484 -0.222656,0 0,1.333984 0.222656,0 0,-0.996094 0.185547,-0.117187 0.1875,-0.04492 0.150391,0.02734 0.07617,0.07617 0.0332,0.128906 0.0098,0.164062 0,0.763672 0.22461,0 0,-0.855468 -0.0059,-0.07031 -0.0039,-0.06445 0.191406,-0.121094 0.1875,-0.04687 0.146485,0.02734 0.08008,0.07617 0.0293,0.128906 0.01367,0.164063 0,0.761718 0.224609,0 0,-0.867187 -0.105469,-0.373047 -0.328125,-0.134766 z m -19.570312,0.535156 -2.871094,0.002 c -0.299,0.005 -0.585297,0.236484 -0.654297,0.521484 l -1.931641,8.40625 c -0.07,0.285 0.122063,0.521484 0.414063,0.521484 l 1.375,-0.002 c 0.292,0.002 0.591156,-0.231531 0.660156,-0.519531 l 0.464844,-2.041016 c 0.068,-0.284 0.363156,-0.523484 0.660156,-0.521484 l 0.392578,0 c 1.681,0 2.985829,-0.34625 3.923829,-1.03125 0.926999,-0.693 1.394531,-1.599563 1.394531,-2.726562 -0.005,-0.491 -0.08967,-0.905422 -0.263672,-1.232422 -0.172,-0.333 -0.429859,-0.6025 -0.755859,-0.8125 -0.334001,-0.208 -0.73036,-0.3535 -1.19336,-0.4375 -0.455,-0.081 -0.998234,-0.125953 -1.615234,-0.126954 z m 13.695312,0.07422 c -0.252,0 -0.478844,0.187969 -0.589844,0.417969 l -0.06836,0.105469 -0.06055,0.273437 -1.720703,7.8125 -0.05469,0.240235 0.002,0.0059 c -0.057,0.257 0.09975,0.451281 0.34375,0.488281 l 0.02148,0.0293 1.277344,0 c 0.25,0 0.484797,-0.189828 0.591797,-0.423828 l 0.06641,-0.09961 1.837891,-8.332032 -0.0039,0 c 0.063,-0.287 -0.117109,-0.521578 -0.412109,-0.517578 l -1.230469,0 z M 30.03276,21.003946 c 0.528,0.003 0.923359,0.08962 1.193359,0.265625 0.269,0.176 0.395438,0.45236 0.398438,0.81836 0.003,0.558 -0.203235,0.986969 -0.615235,1.292968 -0.414,0.298 -0.992422,0.449219 -1.732421,0.449219 l -0.341797,0 c -0.295,0.003 -0.485922,-0.235484 -0.419922,-0.521484 l 0.416015,-1.78125 c 0.061,-0.285 0.35925,-0.524484 0.65625,-0.521485 l 0.445313,-0.002 z m 8.109375,0.365235 c -0.553,0 -1.105156,0.04381 -1.660156,0.132812 -0.412,0.06 -0.453032,0.07295 -0.707032,0.126953 -0.521,0.113 -0.601562,0.634766 -0.601562,0.634766 l -0.167969,0.689453 c -0.094,0.441 0.153531,0.422672 0.269531,0.388672 0.229,-0.068 0.352454,-0.136141 0.814454,-0.244141 0.442999,-0.1 0.916062,-0.173875 1.289062,-0.171875 0.547,0 0.967094,0.05973 1.246094,0.177735 0.278,0.12 0.414062,0.328047 0.414062,0.623047 l -0.02148,0.193359 -0.195313,0.125 c -0.787,0.047 -1.351343,0.117797 -2.027343,0.216797 -0.666,0.093 -1.254188,0.254515 -1.742188,0.478516 -0.521,0.231 -0.91364,0.541546 -1.18164,0.935546 -0.265001,0.395 -0.394532,0.872688 -0.394532,1.429688 0,0.533 0.1885,0.968687 0.5625,1.304687 0.373,0.331 0.85736,0.498047 1.44336,0.498047 0.369,-0.004 0.656328,-0.02903 0.861328,-0.08203 l 0.664062,-0.224609 0.566406,-0.3125 0.515626,-0.345704 0.0078,0.0098 -0.04687,0.222656 -0.0039,0.0039 0.002,0.0039 c -0.062,0.268 0.09928,0.489672 0.363281,0.513672 l 0.002,0.0059 0.02539,0 1.054687,0 0.195313,0 0.01953,-0.0078 c 0.271,-0.033 0.526984,-0.252578 0.583984,-0.517578 l 1.00586,-4.326172 0.05273,-0.355469 0.0293,-0.332031 c 10e-4,-0.612 -0.262156,-1.064469 -0.785156,-1.355469 -0.521,-0.292 -1.338125,-0.439453 -2.453125,-0.439453 z m 0.419922,3.982422 0.09766,0.166015 c -0.014,0.095 -0.191437,0.82811 -0.273438,1.16211 l -0.22266,0.285155 -0.535156,0.277344 c -0.254,0.102 -0.495844,0.154296 -0.714844,0.154297 -0.349,0 -0.60725,-0.05039 -0.78125,-0.150391 l -0.267578,-0.511719 c 0,-0.28 0.06431,-0.498875 0.195313,-0.671875 0.133,-0.163 0.33589,-0.296531 0.58789,-0.394531 0.246,-0.084 0.550297,-0.152125 0.904297,-0.203125 0.312,-0.039 0.929766,-0.112281 1.009766,-0.113281 z"
         id="path6-2"
         inkscape:connector-curvature="0"
         style="fill:#009cde;fill-opacity:1" /><path
         d="m 5.4783998,19.204818 -2.8671875,0.002 c -0.298,0.004 -0.5901562,0.235437 -0.6601563,0.523437 l -1.9277342,8.402344 c -0.07,0.284 0.1160625,0.521484 0.4140625,0.521484 l 1.3730467,0 c 0.2980001,0 0.5922032,-0.230484 0.6582032,-0.521484 l 0.4726562,-2.039063 c 0.063,-0.284 0.35525,-0.521484 0.65625,-0.521484 l 0.3945313,0 c 1.679,-0.002 2.9781093,-0.346203 3.9121096,-1.033203 0.938999,-0.688 1.402343,-1.596656 1.402343,-2.722656 -10e-4,-0.493 -0.08167,-0.906328 -0.263672,-1.236328 -0.165,-0.331001 -0.425999,-0.603594 -0.749999,-0.808594 -0.338,-0.207 -0.73736,-0.353453 -1.1933597,-0.439453 -0.4640001,-0.084 -1.0000938,-0.120953 -1.6210938,-0.126953 z m -0.3691406,1.74414 c 0.525,0 0.9253593,0.09158 1.1933594,0.267578 0.2649999,0.174 0.3984843,0.449407 0.3964843,0.816406 0.008,0.558 -0.2041875,0.987016 -0.6171875,1.291016 -0.415,0.304 -0.9923281,0.457031 -1.7363281,0.457031 l -0.3359375,0 c -0.299,0 -0.4829688,-0.235437 -0.4179688,-0.523437 l 0.4140626,-1.785156 c 0.058,-0.286 0.3592968,-0.523485 0.6542968,-0.521485 l 0.4492188,-0.002 z m 8.0996088,0.394531 c -0.553,0 -1.10511,0.04291 -1.66211,0.128907 -0.411,0.063 -0.450125,0.07391 -0.703125,0.128906 -0.522,0.114 -0.603515,0.634765 -0.603515,0.634766 l -0.167969,0.691406 c -0.095,0.441 0.157672,0.423718 0.263672,0.386718 0.228001,-0.068 0.356267,-0.138187 0.822265,-0.242187 0.445001,-0.101 0.913157,-0.176875 1.285157,-0.171875 0.549,0 0.97,0.05778 1.25,0.175781 0.276,0.12 0.414062,0.327 0.414062,0.625 l -0.02539,0.19336 -0.197266,0.123047 c -0.779,0.049 -1.342391,0.119749 -2.025391,0.21875 -0.668,0.093 -1.253233,0.257468 -1.740234,0.480468 -0.5229997,0.23 -0.9125937,0.538641 -1.1835937,0.931641 -0.262,0.395 -0.392577,0.873547 -0.392577,1.435547 0,0.529 0.189593,0.966687 0.558593,1.304687 0.371,0.332 0.861265,0.494141 1.4472667,0.494141 0.370999,-0.002 0.65928,-0.03108 0.86328,-0.08008 l 0.664062,-0.230469 0.5625,-0.310547 0.519531,-0.34375 0.0059,0.01172 -0.05078,0.21875 -0.0039,0.0098 0,0.002 c -0.056,0.268 0.106188,0.487672 0.367188,0.513672 l 0.0059,0.0059 0.02344,0 1.052734,0 0.197266,0 0.01953,-0.0078 c 0.274,-0.032 0.529844,-0.251672 0.589844,-0.513672 l 1.001953,-4.333984 0.05078,-0.351562 0.02539,-0.332032 c 0.004,-0.614 -0.26225,-1.068375 -0.78125,-1.359375 -0.518,-0.292 -1.335125,-0.4375 -2.453125,-0.4375 z m 10.136718,0.103516 c -0.296,0 -0.675281,0.240391 -0.863281,0.525391 0,0 -1.96525,3.37389 -2.15625,3.71289 l -0.228515,-0.0039 -0.611328,-3.6875 c -0.068,-0.29 -0.371047,-0.537109 -0.748047,-0.537109 l -1.230469,0.002 c -0.296,0 -0.47911,0.235437 -0.41211,0.523437 10e-7,0 0.934094,5.315407 1.121094,6.566407 0.087,0.689999 -0.0098,0.8125 -0.0098,0.8125 l -1.216797,2.11914 c -0.18,0.288 -0.08211,0.521484 0.21289,0.521484 l 1.421875,-0.002 c 0.296,0 0.685329,-0.232484 0.861329,-0.521484 l 5.46875,-9.25 c 0,0 0.526109,-0.79225 0.03711,-0.78125 -0.325,0.004 -1.646485,0 -1.646485,0 z m -9.71289,3.875 0.09375,0.167969 c -0.018,0.095 -0.192344,0.830109 -0.277344,1.162109 l -0.214844,0.283203 -0.539062,0.279297 c -0.254,0.103 -0.49575,0.154297 -0.71875,0.154297 -0.338,0 -0.60225,-0.04844 -0.78125,-0.148438 l -0.265625,-0.515624 c 0,-0.279001 0.06417,-0.499922 0.201172,-0.669922 l 0.582031,-0.396485 c 0.249,-0.084 0.552297,-0.154125 0.904297,-0.203125 0.314,-0.039 0.934625,-0.111281 1.015625,-0.113281 z"
         id="path4177"
         inkscape:connector-curvature="0"
         style="fill:#002f86;fill-opacity:1" /></g><g
       transform="translate(-17.746053,1.1161165)"
       id="g4268"><path
         inkscape:connector-curvature="0"
         d="m 41.693628,4.0358146 c 0.449508,0.2199615 0.841192,0.5332177 1.128212,0.9179404 0.604055,0.8098136 0.773678,1.9129792 0.504359,3.2788881 -0.272189,1.3822101 -0.88184,2.5490059 -1.769487,3.3939409 -0.162347,0.169729 -0.336204,0.327878 -0.521289,0.473645 -0.950718,0.748631 -2.151271,1.144373 -3.472019,1.144373 l -0.211811,0 -3.986942,0 -1.129261,5.294817 -2.316172,0 0.17641,-0.809814 0.806805,0 1.129262,-5.294851 3.29295,0 c 3.152641,0 5.788331,-1.942749 6.493551,-5.2459834 C 42.61783,3.448656 39.936175,1.7484672 37.630778,1.7484672 l -7.858166,0 -3.481744,15.9811378 2.659127,0 -0.420333,1.929211 4.611565,0 1.129261,-5.294852 3.292916,0 c 3.152676,0 5.788366,-1.942818 6.493586,-5.2460529 0.589677,-2.7578789 -0.713686,-4.4064006 -2.363362,-5.0820965 z m -8.01572,0.9673688 2.258593,0 c 1.129716,0 1.88202,0.9713915 1.552918,2.1855522 -0.282158,1.2145456 -1.458469,2.1859021 -2.63478,2.1859021 l -2.164599,0 0.987868,-4.3714543 z"
         id="path4263"
         style="fill:#002f86;fill-opacity:1" /><path
         style="fill:#009cde;fill-opacity:1"
         d="m 41.689346,4.0370849 c 0.449508,0.2199615 0.841886,0.5332461 1.128906,0.9179688 0.604055,0.8098136 0.773225,1.9133879 0.503906,3.279297 -0.272189,1.3822101 -0.881884,2.5476433 -1.769531,3.3925783 -0.162347,0.169729 -0.3364,0.328842 -0.521485,0.474609 -0.950717,0.748631 -2.151908,1.144531 -3.472656,1.144532 l -0.210937,0 -3.986328,0 -1.128907,5.294921 -2.316406,0 0.169922,-0.785156 -1.150391,0.01563 -0.410156,1.888672 4.611328,0 1.13086,-5.294922 3.291015,0 c 3.152676,0 5.788921,-1.942859 6.494141,-5.2460938 0.589677,-2.7578839 -0.713605,-4.4063404 -2.363281,-5.0820363 z"
         id="path5"
         inkscape:connector-curvature="0" /></g></g></svg>