<?xml version="1.0" encoding="UTF-8" standalone="no"?>
<!-- Generator: Adobe Illustrator 16.0.0, SVG Export Plug-In . SVG Version: 6.00 Build 0)  -->

<svg
   xmlns:dc="http://purl.org/dc/elements/1.1/"
   xmlns:cc="http://creativecommons.org/ns#"
   xmlns:rdf="http://www.w3.org/1999/02/22-rdf-syntax-ns#"
   xmlns:svg="http://www.w3.org/2000/svg"
   xmlns="http://www.w3.org/2000/svg"
   xmlns:sodipodi="http://sodipodi.sourceforge.net/DTD/sodipodi-0.dtd"
   xmlns:inkscape="http://www.inkscape.org/namespaces/inkscape"
   version="1.1"
   id="Capa_1"
   x="0px"
   y="0px"
   width="35"
   height="35"
   viewBox="0 0 35 35"
   xml:space="preserve"
   inkscape:version="0.91 r13725"
   sodipodi:docname="social_tweeter.svg"
   inkscape:export-filename="C:\eclipse\project\AbcMap2\icons\social_tweeter.png"
   inkscape:export-xdpi="90"
   inkscape:export-ydpi="90"><metadata
     id="metadata6580"><rdf:RDF><cc:Work
         rdf:about=""><dc:format>image/svg+xml</dc:format><dc:type
           rdf:resource="http://purl.org/dc/dcmitype/StillImage" /><dc:title></dc:title></cc:Work></rdf:RDF></metadata><defs
     id="defs6578" /><sodipodi:namedview
     pagecolor="#ffffff"
     bordercolor="#666666"
     borderopacity="1"
     objecttolerance="10"
     gridtolerance="10"
     guidetolerance="10"
     inkscape:pageopacity="0"
     inkscape:pageshadow="2"
     inkscape:window-width="1366"
     inkscape:window-height="705"
     id="namedview6576"
     showgrid="false"
     inkscape:zoom="19.012326"
     inkscape:cx="13.545435"
     inkscape:cy="3.8283093"
     inkscape:window-x="-8"
     inkscape:window-y="-8"
     inkscape:window-maximized="1"
     inkscape:current-layer="Capa_1" /><g
     id="g6540"
     style="fill:#4292cf;fill-opacity:1"
     transform="matrix(0.69898684,0,0,0.69898684,0.1469527,0.1469527)"><g
       id="g6542"
       style="fill:#4292cf;fill-opacity:1"><path
         d="M 24.826,0 C 11.137,0 0,11.137 0,24.826 0,38.514 11.137,49.652 24.826,49.652 38.514,49.652 49.652,38.514 49.652,24.826 49.652,11.137 38.516,0 24.826,0 Z m 11.075,19.144 c 0.011,0.246 0.017,0.494 0.017,0.742 0,7.551 -5.746,16.255 -16.259,16.255 -3.227,0 -6.231,-0.943 -8.759,-2.565 0.447,0.053 0.902,0.08 1.363,0.08 2.678,0 5.141,-0.914 7.097,-2.446 -2.5,-0.046 -4.611,-1.698 -5.338,-3.969 0.348,0.066 0.707,0.103 1.074,0.103 0.521,0 1.027,-0.068 1.506,-0.199 -2.614,-0.524 -4.583,-2.833 -4.583,-5.603 0,-0.024 0,-0.049 10e-4,-0.072 0.77,0.427 1.651,0.685 2.587,0.714 -1.532,-1.023 -2.541,-2.773 -2.541,-4.755 0,-1.048 0.281,-2.03 0.773,-2.874 2.817,3.458 7.029,5.732 11.777,5.972 -0.098,-0.419 -0.147,-0.854 -0.147,-1.303 0,-3.155 2.558,-5.714 5.713,-5.714 1.644,0 3.127,0.694 4.171,1.804 1.303,-0.256 2.523,-0.73 3.63,-1.387 -0.43,1.335 -1.333,2.454 -2.516,3.162 1.157,-0.138 2.261,-0.444 3.282,-0.899 -0.762,1.144 -1.731,2.151 -2.848,2.954 z"
         id="path6544"
         style="fill:#4292cf;fill-opacity:1"
         inkscape:connector-curvature="0" /></g></g><g
     id="g6546"
     transform="translate(0,-14.652)" /><g
     id="g6548"
     transform="translate(0,-14.652)" /><g
     id="g6550"
     transform="translate(0,-14.652)" /><g
     id="g6552"
     transform="translate(0,-14.652)" /><g
     id="g6554"
     transform="translate(0,-14.652)" /><g
     id="g6556"
     transform="translate(0,-14.652)" /><g
     id="g6558"
     transform="translate(0,-14.652)" /><g
     id="g6560"
     transform="translate(0,-14.652)" /><g
     id="g6562"
     transform="translate(0,-14.652)" /><g
     id="g6564"
     transform="translate(0,-14.652)" /><g
     id="g6566"
     transform="translate(0,-14.652)" /><g
     id="g6568"
     transform="translate(0,-14.652)" /><g
     id="g6570"
     transform="translate(0,-14.652)" /><g
     id="g6572"
     transform="translate(0,-14.652)" /><g
     id="g6574"
     transform="translate(0,-14.652)" /></svg>