<?xml version="1.0" encoding="UTF-8" standalone="no"?>
<!-- Generator: Adobe Illustrator 16.0.0, SVG Export Plug-In . SVG Version: 6.00 Build 0)  -->

<svg
   xmlns:dc="http://purl.org/dc/elements/1.1/"
   xmlns:cc="http://creativecommons.org/ns#"
   xmlns:rdf="http://www.w3.org/1999/02/22-rdf-syntax-ns#"
   xmlns:svg="http://www.w3.org/2000/svg"
   xmlns="http://www.w3.org/2000/svg"
   xmlns:sodipodi="http://sodipodi.sourceforge.net/DTD/sodipodi-0.dtd"
   xmlns:inkscape="http://www.inkscape.org/namespaces/inkscape"
   version="1.1"
   id="Capa_1"
   x="0px"
   y="0px"
   width="35"
   height="35"
   viewBox="0 0 35 35"
   xml:space="preserve"
   inkscape:version="0.91 r13725"
   sodipodi:docname="social_google.svg"
   inkscape:export-filename="C:\eclipse\project\AbcMap2\icons\social_google.png"
   inkscape:export-xdpi="90"
   inkscape:export-ydpi="90"><metadata
     id="metadata47"><rdf:RDF><cc:Work
         rdf:about=""><dc:format>image/svg+xml</dc:format><dc:type
           rdf:resource="http://purl.org/dc/dcmitype/StillImage" /><dc:title></dc:title></cc:Work></rdf:RDF></metadata><defs
     id="defs45" /><sodipodi:namedview
     pagecolor="#ffffff"
     bordercolor="#666666"
     borderopacity="1"
     objecttolerance="10"
     gridtolerance="10"
     guidetolerance="10"
     inkscape:pageopacity="0"
     inkscape:pageshadow="2"
     inkscape:window-width="1366"
     inkscape:window-height="705"
     id="namedview43"
     showgrid="false"
     inkscape:zoom="13.657469"
     inkscape:cx="4.1522767"
     inkscape:cy="16.993904"
     inkscape:window-x="-8"
     inkscape:window-y="-8"
     inkscape:window-maximized="1"
     inkscape:current-layer="Capa_1" /><g
     id="g3"
     transform="matrix(0.35381355,0,0,0.35381355,0.20736274,0.20736274)"
     style="fill:#db4936;fill-opacity:1"><g
       id="g5"
       style="fill:#db4936;fill-opacity:1"><path
         d="m 50.729,33.67 c 0,-6.775 -4.039,-17.311 -11.826,-17.311 -2.448,0 -5.071,1.222 -6.577,3.105 -1.598,1.979 -2.062,4.511 -2.062,6.965 0,6.3 3.658,16.741 11.736,16.741 2.345,0 4.872,-1.123 6.382,-2.63 2.159,-2.171 2.347,-5.175 2.347,-6.87 z"
         id="path7"
         inkscape:connector-curvature="0"
         style="fill:#db4936;fill-opacity:1" /><path
         d="M 45.657,58.414 C 44.909,58.32 44.439,58.32 43.501,58.32 c -0.847,0 -5.918,0.185 -9.859,1.511 -2.064,0.748 -8.071,3.008 -8.071,9.687 0,6.682 6.478,11.485 16.522,11.485 9.015,0 13.804,-4.338 13.804,-10.163 -10e-4,-4.813 -3.099,-7.344 -10.24,-12.426 z"
         id="path9"
         inkscape:connector-curvature="0"
         style="fill:#db4936;fill-opacity:1" /><path
         d="M 48.875,0 C 21.882,0 0,21.882 0,48.875 0,75.868 21.882,97.75 48.875,97.75 75.868,97.75 97.75,75.868 97.75,48.875 97.75,21.882 75.868,0 48.875,0 Z M 37.489,84.945 c -13.616,0 -20.184,-6.488 -20.184,-13.455 0,-3.385 1.687,-8.18 7.227,-11.475 5.818,-3.576 13.709,-4.043 17.936,-4.334 -1.319,-1.692 -2.816,-3.479 -2.816,-6.395 0,-1.597 0.47,-2.539 0.934,-3.669 -1.034,0.096 -2.062,0.188 -3.002,0.188 -9.948,0 -15.581,-7.438 -15.581,-14.775 0,-4.322 1.969,-9.124 6.005,-12.605 5.354,-4.422 12.67,-5.622 17.744,-5.622 l 18.498,0 -6.105,3.836 -5.816,0 c 2.158,1.786 6.658,5.549 6.658,12.703 0,6.957 -3.938,10.259 -7.879,13.36 -1.223,1.221 -2.632,2.538 -2.632,4.611 0,2.065 1.41,3.193 2.44,4.047 l 3.383,2.628 c 4.132,3.479 7.888,6.679 7.886,13.177 -0.001,8.847 -8.55,17.78 -24.696,17.78 z m 40.516,-37.22 0,9.464 -4.646,0 0,-9.464 -9.393,0 0,-4.697 9.393,0 0,-9.406 4.646,0 0,9.406 9.438,0 0,4.697 -9.438,0 z"
         id="path11"
         inkscape:connector-curvature="0"
         style="fill:#db4936;fill-opacity:1" /></g></g><g
     id="g13"
     transform="translate(0,-62.75)" /><g
     id="g15"
     transform="translate(0,-62.75)" /><g
     id="g17"
     transform="translate(0,-62.75)" /><g
     id="g19"
     transform="translate(0,-62.75)" /><g
     id="g21"
     transform="translate(0,-62.75)" /><g
     id="g23"
     transform="translate(0,-62.75)" /><g
     id="g25"
     transform="translate(0,-62.75)" /><g
     id="g27"
     transform="translate(0,-62.75)" /><g
     id="g29"
     transform="translate(0,-62.75)" /><g
     id="g31"
     transform="translate(0,-62.75)" /><g
     id="g33"
     transform="translate(0,-62.75)" /><g
     id="g35"
     transform="translate(0,-62.75)" /><g
     id="g37"
     transform="translate(0,-62.75)" /><g
     id="g39"
     transform="translate(0,-62.75)" /><g
     id="g41"
     transform="translate(0,-62.75)" /></svg>