<?xml version="1.0" encoding="UTF-8" standalone="no"?>
<!-- Generator: Adobe Illustrator 16.0.0, SVG Export Plug-In . SVG Version: 6.00 Build 0)  -->

<svg
   xmlns:dc="http://purl.org/dc/elements/1.1/"
   xmlns:cc="http://creativecommons.org/ns#"
   xmlns:rdf="http://www.w3.org/1999/02/22-rdf-syntax-ns#"
   xmlns:svg="http://www.w3.org/2000/svg"
   xmlns="http://www.w3.org/2000/svg"
   xmlns:sodipodi="http://sodipodi.sourceforge.net/DTD/sodipodi-0.dtd"
   xmlns:inkscape="http://www.inkscape.org/namespaces/inkscape"
   version="1.1"
   id="Capa_1"
   x="0px"
   y="0px"
   width="35"
   height="35"
   viewBox="0 0 35 35"
   xml:space="preserve"
   inkscape:version="0.91 r13725"
   sodipodi:docname="social_facebook.svg"
   inkscape:export-filename="C:\eclipse\project\AbcMap2\icons\social_facebook.png"
   inkscape:export-xdpi="90"
   inkscape:export-ydpi="90"><metadata
     id="metadata43"><rdf:RDF><cc:Work
         rdf:about=""><dc:format>image/svg+xml</dc:format><dc:type
           rdf:resource="http://purl.org/dc/dcmitype/StillImage" /><dc:title></dc:title></cc:Work></rdf:RDF></metadata><defs
     id="defs41" /><sodipodi:namedview
     pagecolor="#ffffff"
     bordercolor="#666666"
     borderopacity="1"
     objecttolerance="10"
     gridtolerance="10"
     guidetolerance="10"
     inkscape:pageopacity="0"
     inkscape:pageshadow="2"
     inkscape:window-width="1366"
     inkscape:window-height="705"
     id="namedview39"
     showgrid="false"
     inkscape:zoom="1.680468"
     inkscape:cx="63.889747"
     inkscape:cy="19.148272"
     inkscape:window-x="-8"
     inkscape:window-y="-8"
     inkscape:window-maximized="1"
     inkscape:current-layer="Capa_1" /><path
     d="M 17.5,0.19543652 C 7.9583031,0.19543652 0.19543652,7.9583031 0.19543652,17.5 0.19543652,27.041 7.9583031,34.804564 17.5,34.804564 27.041,34.804564 34.804564,27.041 34.804564,17.5 34.804564,7.9583031 27.042394,0.19543652 17.5,0.19543652 Z m 4.303487,17.91377148 -2.81532,0 c 0,4.49796 0,10.0345 0,10.0345 l -4.171747,0 c 0,0 0,-5.482869 0,-10.0345 l -1.983062,0 0,-3.546509 1.983062,0 0,-2.293938 c 0,-1.642909 0.780678,-4.2100851 4.210084,-4.2100851 l 3.091346,0.01185 0,3.4426505 c 0,0 -1.878507,0 -2.243752,0 -0.365246,0 -0.884536,0.182623 -0.884536,0.966089 l 0,2.084131 3.178474,0 -0.364549,3.545812 z"
     id="path7"
     inkscape:connector-curvature="0"
     style="fill:#3b5999;fill-opacity:1" /><g
     id="g9"
     transform="translate(0,-14.652)" /><g
     id="g11"
     transform="translate(0,-14.652)" /><g
     id="g13"
     transform="translate(0,-14.652)" /><g
     id="g15"
     transform="translate(0,-14.652)" /><g
     id="g17"
     transform="translate(0,-14.652)" /><g
     id="g19"
     transform="translate(0,-14.652)" /><g
     id="g21"
     transform="translate(0,-14.652)" /><g
     id="g23"
     transform="translate(0,-14.652)" /><g
     id="g25"
     transform="translate(0,-14.652)" /><g
     id="g27"
     transform="translate(0,-14.652)" /><g
     id="g29"
     transform="translate(0,-14.652)" /><g
     id="g31"
     transform="translate(0,-14.652)" /><g
     id="g33"
     transform="translate(0,-14.652)" /><g
     id="g35"
     transform="translate(0,-14.652)" /><g
     id="g37"
     transform="translate(0,-14.652)" /></svg>