<?xml version="1.0" encoding="UTF-8" standalone="no"?>
<!-- Generator: Adobe Illustrator 18.0.0, SVG Export Plug-In . SVG Version: 6.00 Build 0)  -->

<svg
   xmlns:dc="http://purl.org/dc/elements/1.1/"
   xmlns:cc="http://creativecommons.org/ns#"
   xmlns:rdf="http://www.w3.org/1999/02/22-rdf-syntax-ns#"
   xmlns:svg="http://www.w3.org/2000/svg"
   xmlns="http://www.w3.org/2000/svg"
   xmlns:sodipodi="http://sodipodi.sourceforge.net/DTD/sodipodi-0.dtd"
   xmlns:inkscape="http://www.inkscape.org/namespaces/inkscape"
   version="1.1"
   id="Capa_1"
   x="0px"
   y="0px"
   viewBox="0 0 20 20"
   xml:space="preserve"
   inkscape:version="0.91 r13725"
   sodipodi:docname="smallicon_displaylayout.svg"
   width="20"
   height="20"
   inkscape:export-filename="C:\eclipse\project\AbcMap2\icons\smallicon_displaylayout.png"
   inkscape:export-xdpi="90"
   inkscape:export-ydpi="90"><metadata
     id="metadata45"><rdf:RDF><cc:Work
         rdf:about=""><dc:format>image/svg+xml</dc:format><dc:type
           rdf:resource="http://purl.org/dc/dcmitype/StillImage" /><dc:title></dc:title></cc:Work></rdf:RDF></metadata><defs
     id="defs43" /><sodipodi:namedview
     pagecolor="#ffffff"
     bordercolor="#666666"
     borderopacity="1"
     objecttolerance="10"
     gridtolerance="10"
     guidetolerance="10"
     inkscape:pageopacity="0"
     inkscape:pageshadow="2"
     inkscape:window-width="1366"
     inkscape:window-height="705"
     id="namedview41"
     showgrid="false"
     inkscape:zoom="11.64279"
     inkscape:cx="13.320403"
     inkscape:cy="5.6188962"
     inkscape:window-x="-8"
     inkscape:window-y="-8"
     inkscape:window-maximized="1"
     inkscape:current-layer="Capa_1" /><rect
     y="0.80357015"
     x="4.5092282"
     height="1.7607473"
     width="14.687201"
     id="rect5429"
     style="opacity:1;fill:#ffffff;fill-opacity:1;stroke:none;stroke-width:1.505;stroke-linecap:round;stroke-linejoin:round;stroke-miterlimit:4;stroke-dasharray:none;stroke-dashoffset:0;stroke-opacity:1" /><rect
     style="opacity:1;fill:#ffffff;fill-opacity:1;stroke:none;stroke-width:1.505;stroke-linecap:round;stroke-linejoin:round;stroke-miterlimit:4;stroke-dasharray:none;stroke-dashoffset:0;stroke-opacity:1"
     id="rect5427"
     width="14.429531"
     height="14.429531"
     x="0.94479072"
     y="4.6256781" /><rect
     style="opacity:1;fill:#ffffff;fill-opacity:1;stroke:none;stroke-width:1.505;stroke-linecap:round;stroke-linejoin:round;stroke-miterlimit:4;stroke-dasharray:none;stroke-dashoffset:0;stroke-opacity:1"
     id="rect5431"
     width="2.061357"
     height="13.613576"
     x="17.478628"
     y="1.3189106" /><g
     id="g3"
     transform="matrix(0.04279305,0,0,0.04279305,0.18629052,0.18631191)"
     style="fill:#1a1a1a"><path
       style="fill:#1a1a1a"
       d="M 428.281,0 114.979,0 C 98.906,0 85.863,13.037 85.863,29.124 l 0,27.444 30.563,0 0,-26.005 310.408,0 0,310.401 -23.474,0 0,30.563 24.922,0 c 16.072,0 29.115,-13.035 29.115,-29.122 l 0,-313.281 C 457.397,13.037 444.354,0 428.281,0 Z"
       id="path5"
       inkscape:connector-curvature="0" /><path
       style="fill:#1a1a1a"
       d="m 343.68,87.131 -313.304,0 c -16.071,0 -29.114,13.035 -29.114,29.124 l 0,313.279 c 0,16.089 13.043,29.124 29.114,29.124 l 313.304,0 c 16.073,0 29.116,-13.035 29.116,-29.124 l 0,-313.279 c 0,-16.089 -13.043,-29.124 -29.116,-29.124 z m -1.447,340.964 -310.408,0 0,-310.4 310.407,0 0,310.4 z"
       id="path7"
       inkscape:connector-curvature="0" /><path
       style="fill:#1a1a1a"
       d="m 55.493,409.381 70.706,0.023 c 2.061,0 3.926,-1.246 4.716,-3.149 0.792,-1.902 0.345,-4.097 -1.103,-5.56 l -24.535,-24.54 184.633,-185.627 24.52,24.527 c 1.462,1.455 3.656,1.895 5.552,1.103 1.91,-0.79 3.15,-2.649 3.15,-4.708 l 0.014,-70.691 c 0,-2.813 -2.283,-5.096 -5.103,-5.096 l -70.692,-0.023 c -2.061,0 -3.926,1.245 -4.716,3.149 -0.792,1.902 -0.358,4.096 1.104,5.558 L 268.302,168.919 83.668,354.544 59.104,329.988 c -1.463,-1.455 -3.642,-1.896 -5.553,-1.104 -1.91,0.791 -3.147,2.649 -3.147,4.708 l 0,70.692 c 10e-4,2.814 2.284,5.097 5.089,5.097 z"
       id="path9"
       inkscape:connector-curvature="0" /></g><g
     id="g11"
     transform="translate(0,-438.659)" /><g
     id="g13"
     transform="translate(0,-438.659)" /><g
     id="g15"
     transform="translate(0,-438.659)" /><g
     id="g17"
     transform="translate(0,-438.659)" /><g
     id="g19"
     transform="translate(0,-438.659)" /><g
     id="g21"
     transform="translate(0,-438.659)" /><g
     id="g23"
     transform="translate(0,-438.659)" /><g
     id="g25"
     transform="translate(0,-438.659)" /><g
     id="g27"
     transform="translate(0,-438.659)" /><g
     id="g29"
     transform="translate(0,-438.659)" /><g
     id="g31"
     transform="translate(0,-438.659)" /><g
     id="g33"
     transform="translate(0,-438.659)" /><g
     id="g35"
     transform="translate(0,-438.659)" /><g
     id="g37"
     transform="translate(0,-438.659)" /><g
     id="g39"
     transform="translate(0,-438.659)" /></svg>