<?xml version="1.0" encoding="UTF-8" standalone="no"?>
<!-- Generator: Adobe Illustrator 16.0.0, SVG Export Plug-In . SVG Version: 6.00 Build 0)  -->

<svg
   xmlns:dc="http://purl.org/dc/elements/1.1/"
   xmlns:cc="http://creativecommons.org/ns#"
   xmlns:rdf="http://www.w3.org/1999/02/22-rdf-syntax-ns#"
   xmlns:svg="http://www.w3.org/2000/svg"
   xmlns="http://www.w3.org/2000/svg"
   xmlns:sodipodi="http://sodipodi.sourceforge.net/DTD/sodipodi-0.dtd"
   xmlns:inkscape="http://www.inkscape.org/namespaces/inkscape"
   version="1.1"
   id="Capa_1"
   x="0px"
   y="0px"
   width="20"
   height="20"
   viewBox="0 0 20 20"
   xml:space="preserve"
   inkscape:version="0.91 r13725"
   sodipodi:docname="smallicon_displaymap.svg"
   inkscape:export-filename="C:\eclipse\project\AbcMap2\icons\smallicon_displaymap.png"
   inkscape:export-xdpi="90"
   inkscape:export-ydpi="90"><metadata
     id="metadata69"><rdf:RDF><cc:Work
         rdf:about=""><dc:format>image/svg+xml</dc:format><dc:type
           rdf:resource="http://purl.org/dc/dcmitype/StillImage" /><dc:title></dc:title></cc:Work></rdf:RDF></metadata><defs
     id="defs67" /><sodipodi:namedview
     pagecolor="#ffffff"
     bordercolor="#666666"
     borderopacity="1"
     objecttolerance="10"
     gridtolerance="10"
     guidetolerance="10"
     inkscape:pageopacity="0"
     inkscape:pageshadow="2"
     inkscape:window-width="1366"
     inkscape:window-height="705"
     id="namedview65"
     showgrid="false"
     inkscape:zoom="21.092991"
     inkscape:cx="12.97533"
     inkscape:cy="10.299652"
     inkscape:window-x="-8"
     inkscape:window-y="-8"
     inkscape:window-maximized="1"
     inkscape:current-layer="Capa_1" /><g
     id="g35"
     transform="translate(0,-11.646)" /><g
     id="g37"
     transform="translate(0,-11.646)" /><g
     id="g39"
     transform="translate(0,-11.646)" /><g
     id="g41"
     transform="translate(0,-11.646)" /><g
     id="g43"
     transform="translate(0,-11.646)" /><g
     id="g45"
     transform="translate(0,-11.646)" /><g
     id="g47"
     transform="translate(0,-11.646)" /><g
     id="g49"
     transform="translate(0,-11.646)" /><g
     id="g51"
     transform="translate(0,-11.646)" /><g
     id="g53"
     transform="translate(0,-11.646)" /><g
     id="g55"
     transform="translate(0,-11.646)" /><g
     id="g57"
     transform="translate(0,-11.646)" /><g
     id="g59"
     transform="translate(0,-11.646)" /><g
     id="g61"
     transform="translate(0,-11.646)" /><g
     id="g63"
     transform="translate(0,-11.646)" /><g
     id="g4349"
     transform="translate(0,0.24036875)"><path
       id="path33"
       d="m -5.6953125,2.7460938 c -0.021426,0.045762 -0.022696,0.1055753 0.035156,0.2226562 0.1455596,0.2922655 -0.3700872,0.474342 -0.2382813,0.7929688 0.131806,0.3186265 -0.026756,1.1803199 0.5039063,1.3476562 0.5318085,0.1673363 0.9685645,0.2643371 1.2734374,0.015625 0.3071653,-0.2521506 0.7724091,-0.2511678 0.9179688,0.027344 0.1455596,0.2785118 0.2263312,0.695536 0.703125,0.9316406 0.4767938,0.2372508 0.8876893,0.9189294 0.8613281,1.2226562 -0.025215,0.3071653 0.015651,1.3217191 0.5039063,1.90625 0.49283971,0.5845309 0.99733363,1.6427764 1.03515623,1.3906254 0.04011487,-0.251004 0.04070044,-0.500596 0.14843749,-0.31836 0.10429865,0.18109 0.38240562,0.738516 0.83398438,0.835938 0.4527249,0.09742 0.6788347,0.124487 0.8496094,0.292968 0.1719209,0.167337 0.321331,0.262843 0.5058593,0.347657 0.1856746,0.08252 0.6356785,0.335763 0.7285157,0.501953 0.093983,0.167336 0.054922,0.38962 -0.039063,0.640625 -0.091691,0.251004 -0.1982124,0.501031 -0.066406,0.738281 0.1340983,0.236105 0.4117364,0.917877 0.6386719,1.070313 0.2257894,0.154729 0.4492068,0.404673 0.3964844,0.751953 -0.043425,0.286042 -0.1913322,1.236937 -0.2382813,1.789062 l 1.8242188,0 c 0.00213,-0.0023 0.00774,-0.0075 0.00977,-0.0098 C 5.6629622,17.049298 6.7548309,15.712738 6.9003906,15.601562 7.0459502,15.490388 7.376638,15.226595 7.484375,14.810547 7.590966,14.394498 7.9756956,13.571072 7.7109375,13.361328 7.4450339,13.151585 6.4619899,12.99821 6.421875,12.970703 6.3829063,12.944342 5.7319181,12.357843 5.5703125,12.150391 5.4121453,11.940648 5.106579,11.886402 4.9472656,11.802734 4.7868062,11.720212 3.7290522,11.369691 3.4746094,11.550781 c -0.2510045,0.18109 -0.5983236,0.291119 -0.7324219,0 C 2.6103815,11.257369 2.5450496,11.217042 2.359375,11.175781 2.1737005,11.13452 2.2665138,10.913593 2.2539062,10.71875 2.2390064,10.52276 2.1329522,10.313296 2,10.453125 1.8670479,10.592954 1.4149393,10.954866 1.3496094,10.771484 1.2831334,10.59154 0.96427325,9.8401938 1.4433594,9.6992188 1.9201532,9.561682 2.3191085,9.6434559 2.4394531,9.7695312 2.5586515,9.8933142 2.649023,10.243579 2.796875,10.201172 2.9435808,10.158765 2.8632932,9.8919337 2.9160156,9.671875 2.968738,9.4506702 3.3175883,9.1583885 3.4746094,8.8535156 3.6339227,8.5452042 3.6591399,8.3649181 3.8574219,8.28125 4.0591424,8.198728 4.165888,8.0870946 4.3515625,7.9472656 4.5383832,7.8074367 4.8266637,7.6843418 4.9355469,7.6132812 c 0.106591,-0.071061 0.5840203,-0.3080321 0.7421875,-0.265625 0.1593133,0.042407 0.2646185,-0.013895 0.1328125,-0.25 C 5.6775948,6.8615517 5.5060567,6.152611 5.2539062,5.8339844 5.0017556,5.5153578 4.9746671,5.4287268 4.8554688,5.125 4.7362703,4.8166886 4.6026029,4.5531214 4.5097656,4.7617188 4.4169283,4.9703161 4.217919,5.2491331 4.1113281,4.984375 4.0058833,4.7196169 4.0177177,4.7312049 3.8847656,4.6074219 3.7529596,4.4824928 3.6454658,4.4545983 3.4609375,4.3984375 3.2752629,4.3422765 3.0909081,4.4138064 3.1035156,4.59375 3.1161236,4.77484 2.9292902,5.0967336 3.0507812,5.3339844 3.1699797,5.5712352 3.2756937,5.8206288 3.1152344,5.9042969 2.9570672,5.9868189 3.1151985,6.4895092 2.9570312,6.4746094 2.797718,6.4620024 2.71875,6.4888769 2.71875,6.3066406 c 0,-0.1787977 0.078568,-0.4570312 -0.2148438,-0.4570312 -0.2911196,0 -0.4637455,-0.1519118 -0.6757812,-0.3066406 C 1.6149431,5.3905322 1.4433714,5.471134 1.4960938,5.125 1.5488162,4.7754276 1.4697805,4.6518748 1.7070312,4.4570312 1.9465742,4.2633338 2.0019073,4.1515138 2.1738281,4.2363281 c 0.173067,0.083668 0.2895543,0.081797 0.3984375,-0.015625 0.1054448,-0.097422 0.3046875,-0.055904 0.3046875,-0.1796875 0,-0.1249292 -0.226726,-0.1245801 -0.1992187,-0.3320312 C 2.7029495,3.4969491 2.8106406,3.610145 2.8496094,3.2617188 2.8675128,3.101641 2.8122013,2.9066666 2.7226562,2.7460938 l -1.0292968,0 c -0.1019,0.043445 -0.1892371,0.0656 -0.2226563,0 l -0.55078122,0 C 0.8859124,2.75814 0.86977808,2.7601718 0.83203125,2.7734375 0.65544593,2.8354962 0.20513036,2.8067465 -0.21875,2.7460938 l -5.4765625,0 z m 11.3457031,0 c -0.00963,0.042111 -0.0112,0.086834 -0.025391,0.125 C 5.557378,3.0521838 5.5180939,3.456332 5.7324219,3.9296875 5.9433111,4.4018967 6.1961674,5.0006434 6.4082031,5.0292969 6.6225311,5.0556581 6.568138,5.3623216 6.7148438,5.25 6.8604034,5.1376784 6.8863218,4.8906697 7.0078125,4.5273438 7.127011,4.167456 7.1275747,3.9017931 7.4335938,3.7207031 7.7396128,3.5396132 8.587763,2.9558371 8.7734375,2.7460938 l -3.1230469,0 z m 7.3964844,0 c -0.285332,0.2903656 -0.583592,0.609032 -0.751953,0.8105468 -0.370203,0.4458481 -1.034359,0.9040297 -0.703125,1.2226563 0.333527,0.3197728 0.503661,0.2770874 0.544922,0.4570312 0.04126,0.1799438 0.08009,0.3773511 0.132812,0.4472657 0.05272,0.071061 0.37079,0.3198549 0.53125,-0.013672 0.161606,-0.3346726 0.185419,-0.5717858 0.371094,-0.515625 0.185674,0.055015 0.224842,0.1817823 0.130859,0.4316406 -0.09284,0.2521505 -0.157935,0.6398998 -0.476562,0.625 -0.317481,-0.013754 -0.663747,-0.2084227 -0.771484,-0.1660156 -0.105445,0.041261 -0.169525,0.1389063 -0.291016,0.2363281 -0.119198,0.097422 -0.49199,0.5539394 -0.744141,0.625 -0.251004,0.069915 -0.554732,0.014059 -0.382812,0.2226562 0.171921,0.2085974 0.423944,0.6672436 0.185547,0.6523438 -0.238397,-0.013754 -0.637702,-0.054464 -0.664063,0.1816406 -0.02636,0.2361046 -0.130851,0.3748254 -0.07813,0.5410156 0.05272,0.1673364 0.224657,0.4892748 0.435547,0.3769532 0.215474,-0.1123216 0.626977,-0.2205057 0.732422,-0.4726563 0.106591,-0.2510045 0.225476,-0.5274256 0.490234,-0.5136719 0.264758,0.013754 0.904542,0.3602529 0.863281,0.4863282 -0.03897,0.123783 -0.171836,0.4177343 -0.01367,0.3203125 0.159314,-0.098568 0.291928,-0.2106922 0.384765,-0.2519531 0.09284,-0.042407 0.214131,0.141023 0.251953,0.2109374 0.03897,0.071061 0.305846,0.2070652 0.357422,-0.017578 0.05387,-0.2212048 0.107458,-0.052337 0.265625,0.017578 0.160459,0.071061 0.636988,0.1235267 0.701172,0.1796876 0.06877,0.056161 0.214162,0.2218154 0.02734,0.4453124 -0.185679,0.2212052 -0.398252,0.3079613 -0.703125,0.140625 -0.306019,-0.1673363 -0.638919,0.1391857 -0.980469,-0.029297 -0.34728,-0.1661901 -0.186192,-0.4029762 -0.597656,-0.5703125 -0.409172,-0.1673363 -1.339402,0.041332 -1.632813,0.125 -0.292266,0.082522 -0.304629,0.1113172 -0.423828,0.25 -0.119198,0.139829 -0.9023435,1.0439771 -0.9023435,1.5585941 0,0.51347 0.2902959,1.907407 1.2324215,1.767578 0.943273,-0.139829 1.513648,-0.05862 1.408203,0.21875 -0.107737,0.279658 -0.05278,0.349341 0.119141,0.667968 0.17192,0.319773 0.573342,2.450741 0.638672,2.796876 0.06877,0.348425 -0.05306,0.791424 0.384766,0.722656 0.440117,-0.06991 0.903361,-0.180544 1.08789,-0.583985 0.18682,-0.404587 0.216681,-0.861552 0.455078,-1.097656 0.239543,-0.237251 0.529473,-0.236785 0.554688,-0.570312 0.02522,-0.334672 -0.06557,-1.127164 0.09375,-1.310547 0.16046,-0.178797 0.901386,-1.016084 0.980469,-1.34961 0.08023,-0.333527 0.185732,-0.416015 -0.119141,-0.416015 -0.304873,0 -0.822851,-0.03985 -0.970703,-0.31836 -0.14556,-0.275074 -0.492188,-0.804758 -0.492188,-0.929687 0,-0.123783 0.214061,-0.111268 0.31836,0.152344 0.107737,0.263612 0.477126,1.060254 0.902344,0.890625 0.425218,-0.167336 1.022549,-0.362195 1.035156,-0.626953 0.01261,-0.263613 -0.185256,-0.569588 -0.398438,-0.554688 -0.214328,0.0149 -0.439453,-0.138579 -0.439453,-0.2910156 0,-0.1524365 0.03967,-0.096276 0.292969,0 0.253297,0.097422 0.330548,0.2623626 0.716797,0.2910156 0.385103,0.02751 0.824267,0.40493 1.035156,0.572266 0.213182,0.167337 0.581798,1.307938 0.675781,1.417968 0.09169,0.112321 0.203231,0.112169 0.294922,-0.111328 0.09284,-0.223497 0.489862,-0.930963 0.716797,-1.126953 0.224643,-0.194843 0.238481,-0.458352 0.369141,-0.291015 0.132952,0.167336 0.704025,0.58298 0.74414,0.833984 0.04012,0.251005 -0.0274,0.792336 0.0918,0.625 0.119199,-0.167336 0.213253,-0.512957 0.316406,-0.359375 0.107737,0.153583 0.108371,0.390074 0.359375,0.208984 0.253297,-0.178798 0.691522,-0.250938 0.453125,-0.640625 -0.238397,-0.389687 -0.07949,-0.625725 0.06836,-0.640625 0.14556,-0.0149 1.141608,-0.195011 1.167969,-0.738281 0.02636,-0.5421237 -0.346427,-0.8328163 -0.169922,-1.1113281 0.169629,-0.2785118 0.422694,-0.5294715 0.476562,-0.3632813 0.05272,0.1673362 -0.132928,0.7106214 0.105469,0.6269532 0.239543,-0.082522 0.517578,-0.083471 0.517578,-0.2519532 0,-0.1684824 -0.05305,-0.5852831 0.05469,-0.6953125 0.106592,-0.1111755 0.887632,-0.8464065 0.980469,-1.1386719 0.09284,-0.2934115 0.265847,-0.5444202 0.119141,-0.765625 C 25.366966,6.0471803 25.116171,6.1141101 25.314453,5.8378906 25.513881,5.5593788 25.847458,5.3018805 26.099609,5.28125 c 0.805735,-0.071061 0.578043,0.9260865 0.591797,1.1484375 0.0149,0.222351 0.01476,0.7804648 0.132813,0.5019531 0.119198,-0.2773657 0.258504,-0.6213172 0.498047,-0.8574218 0.239543,-0.2349586 0.369865,-0.388252 0.384765,-0.5957032 0.01375,-0.2085973 0.02583,-0.2794495 0.253907,-0.390625 0.225789,-0.1123216 1.219662,-0.501206 1.3125,-0.7636718 0.09284,-0.2636119 -0.119257,-0.5023742 0.11914,-0.4863282 0.238397,0.012608 0.46364,0.2754016 0.583984,0.1367188 0.1192,-0.1375367 0.386801,-0.3875148 0.373047,-0.5273438 -0.01605,-0.1444135 -0.402847,-0.4649964 -0.564453,-0.5761718 -0.0214,-0.014931 -0.132837,-0.090172 -0.179687,-0.125 l -12.626953,0 c -0.03965,0.026132 -0.07966,0.053665 -0.119141,0.072266 -0.119198,0.055015 -1.022584,0.4738951 -1.193359,0.3203125 -0.173067,-0.1524365 -0.225441,-0.054852 -0.332032,-0.027344 0,0 -0.319296,-0.056783 -0.517578,-0.3066406 -0.02826,-0.035202 -0.03968,-0.034766 -0.0625,-0.058594 l -1.707031,0 z M 25.695312,7.2441406 C 25.632669,7.2433348 25.558454,7.4108237 25.5,7.5449219 25.41977,7.727158 25.380918,7.7549258 25.261719,8.1308594 25.140229,8.5045007 25.180887,8.4064735 25.060547,8.6425781 24.941348,8.8798289 24.74435,8.9077712 24.544922,9.0625 c -0.20172,0.1535826 -0.253906,0.4570312 -0.253906,0.4570312 -0.17192,0.2361047 0.702939,-0.3337279 1.007812,-0.5136718 0.306019,-0.1810899 0.227545,-0.3893752 0.253906,-0.6816406 0.02636,-0.2934115 0.108769,-0.3360083 0.238282,-0.4609376 0.131806,-0.1249292 0.02593,-0.3747436 -0.03711,-0.5546874 -0.01719,-0.044986 -0.03771,-0.064185 -0.05859,-0.064453 z m -4.982421,5.0585934 c -0.02423,9e-5 -0.02298,0.02821 0.02344,0.101563 0.184528,0.292266 0.464704,0.794666 0.597656,0.974609 0.13066,0.18109 0.277041,0.390391 0.4375,0.292969 0.159313,-0.09857 0.18721,-0.124929 0.400391,0 0.207452,0.120345 0.514585,0.259367 0.607422,0.189453 0.09284,-0.07106 0.02436,-0.221673 0.169922,-0.195312 0.146706,0.02751 0.277766,0.113043 0.453125,0.01563 0.170775,-0.09857 0.317376,-0.05647 0.291015,-0.222657 -0.02521,-0.16619 -9.2e-5,-0.38866 -0.03906,-0.527343 -0.04011,-0.139829 -0.278105,-0.18207 -0.451172,-0.02734 -0.173067,0.154729 -0.410156,0.389501 -0.410156,0.304687 0,-0.08252 0.105453,-0.304676 0.05273,-0.443359 -0.05158,-0.138683 0.02648,-0.264326 -0.238281,-0.154297 -0.265904,0.112322 -0.413022,0.0847 -0.50586,0.238281 -0.09169,0.154729 -0.199254,0.41619 -0.357421,0.25 -0.158167,-0.166191 -0.625,-0.513671 -0.625,-0.513671 -0.02836,-0.03181 -0.33356,-0.283473 -0.40625,-0.283204 z m 3.964843,0.75586 c -0.102579,-0.01734 -0.188471,-0.0017 -0.162109,0.0957 0.05387,0.19599 0.411069,0.249672 0.503906,0.304687 0.09284,0.05616 -0.133662,0.181068 0.03711,0.277344 0.171921,0.09628 0.292935,0.278817 0.517578,0.222656 0.22579,-0.05731 0.306851,0.07015 0.490234,0.09766 0.18682,0.02636 0.371714,-0.02732 0.294922,-0.113282 -0.08023,-0.08138 -0.131749,-0.19474 -0.119141,-0.291015 0.01375,-0.09742 0.04202,-0.06932 -0.208984,-0.181641 -0.254443,-0.111176 -0.147105,-0.207851 -0.453125,-0.261719 -0.306019,-0.05387 -0.55615,3.33e-4 -0.638672,-0.05469 -0.04012,-0.02808 -0.159139,-0.07837 -0.261719,-0.0957 z m 0.876954,1.048828 c -0.01129,0.0092 -0.0209,0.02946 -0.02734,0.06055 -0.05387,0.249858 -0.41163,0.429768 -0.546875,0.416015 -0.121491,-0.01375 -0.05273,-0.138485 -0.05273,-0.251953 0,-0.111176 -0.06851,-0.22234 -0.371093,-0.138672 -0.307166,0.08252 -0.370603,0.375971 -0.453125,0.34961 -0.07794,-0.02751 -0.293169,-0.08327 -0.423828,0.07031 -0.132952,0.153583 -0.253136,0.445792 -0.410157,0.501953 -0.16046,0.05616 -0.693359,0.123014 -0.693359,0.347657 0,0.222351 0.134848,0.555238 0.121094,0.736328 -0.01375,0.18109 -0.255663,0.597388 0.06641,0.724609 0.185675,0.07221 0.317729,0.08269 0.533203,-0.02734 0.212036,-0.111175 1.126557,-0.402916 1.248047,-0.30664 0.119199,0.09742 0.310524,0.325716 0.396484,0.375 0.114945,0.06881 0.176573,0.195457 0.273438,0.289062 l 1.066406,0 c 0.04114,-0.03666 0.07651,-0.07644 0.0957,-0.123047 0.08023,-0.195989 0.22454,-0.654602 0.291016,-0.876953 0.06991,-0.222351 0.13188,-0.471978 -0.06641,-0.667968 -0.198281,-0.193698 -0.610287,-0.596489 -0.703124,-0.875 -0.08123,-0.243698 -0.264712,-0.668264 -0.34375,-0.603516 z"
       style="fill:#1a1a1a"
       inkscape:connector-curvature="0" /><path
       sodipodi:nodetypes="cc"
       inkscape:connector-curvature="0"
       id="path4345"
       d="m 20.027027,17.202862 -20.05405444,0"
       style="fill:none;fill-rule:evenodd;stroke:#1a1a1a;stroke-width:1px;stroke-linecap:butt;stroke-linejoin:miter;stroke-opacity:1" /><path
       style="fill:none;fill-rule:evenodd;stroke:#1a1a1a;stroke-width:1px;stroke-linecap:butt;stroke-linejoin:miter;stroke-opacity:1"
       d="m 20.027027,2.3164005 -20.05405428,0"
       id="path4347"
       inkscape:connector-curvature="0"
       sodipodi:nodetypes="cc" /></g></svg>