<?xml version="1.0" encoding="UTF-8" standalone="no"?>
<!-- Generator: Adobe Illustrator 16.0.0, SVG Export Plug-In . SVG Version: 6.00 Build 0)  -->

<svg
   xmlns:dc="http://purl.org/dc/elements/1.1/"
   xmlns:cc="http://creativecommons.org/ns#"
   xmlns:rdf="http://www.w3.org/1999/02/22-rdf-syntax-ns#"
   xmlns:svg="http://www.w3.org/2000/svg"
   xmlns="http://www.w3.org/2000/svg"
   xmlns:sodipodi="http://sodipodi.sourceforge.net/DTD/sodipodi-0.dtd"
   xmlns:inkscape="http://www.inkscape.org/namespaces/inkscape"
   version="1.1"
   id="Capa_1"
   x="0px"
   y="0px"
   width="20"
   height="20"
   viewBox="0 0 20 20.000001"
   xml:space="preserve"
   inkscape:version="0.91 r13725"
   sodipodi:docname="smallicon_zoomin.svg"
   inkscape:export-filename="C:\eclipse\project\AbcMap2\icons\smallicon_zoomin.png"
   inkscape:export-xdpi="90"
   inkscape:export-ydpi="90"><metadata
     id="metadata41"><rdf:RDF><cc:Work
         rdf:about=""><dc:format>image/svg+xml</dc:format><dc:type
           rdf:resource="http://purl.org/dc/dcmitype/StillImage" /><dc:title /></cc:Work></rdf:RDF></metadata><defs
     id="defs39" /><sodipodi:namedview
     pagecolor="#ffffff"
     bordercolor="#666666"
     borderopacity="1"
     objecttolerance="10"
     gridtolerance="10"
     guidetolerance="10"
     inkscape:pageopacity="0"
     inkscape:pageshadow="2"
     inkscape:window-width="1366"
     inkscape:window-height="705"
     id="namedview37"
     showgrid="false"
     inkscape:zoom="14.830563"
     inkscape:cx="-2.222923"
     inkscape:cy="3.2782866"
     inkscape:window-x="-8"
     inkscape:window-y="-8"
     inkscape:window-maximized="1"
     inkscape:current-layer="Capa_1" /><g
     id="g7"
     transform="translate(0,-25.008999)" /><g
     id="g9"
     transform="translate(0,-25.008999)" /><g
     id="g11"
     transform="translate(0,-25.008999)" /><g
     id="g13"
     transform="translate(0,-25.008999)" /><g
     id="g15"
     transform="translate(0,-25.008999)" /><g
     id="g17"
     transform="translate(0,-25.008999)" /><g
     id="g19"
     transform="translate(0,-25.008999)" /><g
     id="g21"
     transform="translate(0,-25.008999)" /><g
     id="g23"
     transform="translate(0,-25.008999)" /><g
     id="g25"
     transform="translate(0,-25.008999)" /><g
     id="g27"
     transform="translate(0,-25.008999)" /><g
     id="g29"
     transform="translate(0,-25.008999)" /><g
     id="g31"
     transform="translate(0,-25.008999)" /><g
     id="g33"
     transform="translate(0,-25.008999)" /><g
     id="g35"
     transform="translate(0,-25.008999)" /><path
     style="fill:#1a1a1a"
     inkscape:connector-curvature="0"
     id="path5"
     d="M 0.62993682,13.483605 4.9078357,9.2173383 C 4.4586957,8.3348177 4.2155522,7.3554899 4.2155522,6.3371391 c 0,-1.6990024 0.6622657,-3.2963198 1.8633494,-4.4974034 1.2010836,-1.20145878 2.7987762,-1.86297406 4.4977784,-1.86297406 1.698627,0 3.296695,0.66151528 4.497779,1.86297406 1.201083,1.2014589 1.863349,2.7987762 1.863349,4.4977786 0,1.6990024 -0.66189,3.2963197 -1.863349,4.4974037 -1.201084,1.201458 -2.798777,1.862974 -4.497404,1.862974 -1.0183505,0 -1.9980535,-0.242393 -2.8798237,-0.691158 L 3.4305891,16.285008 C 3.0444863,16.671111 2.5368118,16.8651 2.030263,16.8651 1.5237141,16.8651 1.01679,16.671111 0.63031204,16.285008 -0.14376965,15.510926 -0.14376965,14.257312 0.62993682,13.483605 Z M 13.394217,9.1543011 c 0.752319,-0.752694 1.166564,-1.752659 1.166564,-2.8167868 0,-1.0641278 -0.414245,-2.064468 -1.166939,-2.817162 -0.752319,-0.7523189 -1.752659,-1.1669385 -2.816787,-1.1669385 -1.0641275,0 -2.0644676,0.4142444 -2.8171617,1.1669385 -0.7523189,0.7523188 -1.1669385,1.752659 -1.1669385,2.8167868 0,1.0641278 0.4146196,2.064468 1.1669385,2.817162 0.7526941,0.7523189 1.7534095,1.1665629 2.8171617,1.1665629 1.063753,0 2.064093,-0.4138688 2.817162,-1.1665629 z" /><g
     id="g4152"><path
       style="fill:#1a1a1a;fill-rule:evenodd;stroke:#1a1a1a;stroke-width:1.78813732;stroke-linecap:round;stroke-linejoin:miter;stroke-miterlimit:4;stroke-dasharray:none;stroke-opacity:1"
       d="m 19.043494,16.002717 -6.227442,0"
       id="path4175"
       inkscape:connector-curvature="0" /><path
       inkscape:connector-curvature="0"
       id="path4242"
       d="m 15.929773,19.116438 0,-6.227442"
       style="fill:#1a1a1a;fill-rule:evenodd;stroke:#1a1a1a;stroke-width:1.78813732;stroke-linecap:round;stroke-linejoin:miter;stroke-miterlimit:4;stroke-dasharray:none;stroke-opacity:1" /></g></svg>