<?xml version="1.0" encoding="UTF-8" standalone="no"?>
<!-- Generator: Adobe Illustrator 18.1.1, SVG Export Plug-In . SVG Version: 6.00 Build 0)  -->

<svg
   xmlns:dc="http://purl.org/dc/elements/1.1/"
   xmlns:cc="http://creativecommons.org/ns#"
   xmlns:rdf="http://www.w3.org/1999/02/22-rdf-syntax-ns#"
   xmlns:svg="http://www.w3.org/2000/svg"
   xmlns="http://www.w3.org/2000/svg"
   xmlns:sodipodi="http://sodipodi.sourceforge.net/DTD/sodipodi-0.dtd"
   xmlns:inkscape="http://www.inkscape.org/namespaces/inkscape"
   version="1.1"
   id="Capa_1"
   x="0px"
   y="0px"
   viewBox="0 0 19.999999 19.999999"
   xml:space="preserve"
   inkscape:version="0.91 r13725"
   sodipodi:docname="smallicon_newproject.svg"
   width="20"
   height="20"
   inkscape:export-filename="C:\eclipse\project\AbcMap2\icons\smallicon_newproject.png"
   inkscape:export-xdpi="90"
   inkscape:export-ydpi="90"><metadata
     id="metadata66"><rdf:RDF><cc:Work
         rdf:about=""><dc:format>image/svg+xml</dc:format><dc:type
           rdf:resource="http://purl.org/dc/dcmitype/StillImage" /><dc:title /></cc:Work></rdf:RDF></metadata><defs
     id="defs64" /><sodipodi:namedview
     pagecolor="#ffffff"
     bordercolor="#666666"
     borderopacity="1"
     objecttolerance="10"
     gridtolerance="10"
     guidetolerance="10"
     inkscape:pageopacity="0"
     inkscape:pageshadow="2"
     inkscape:window-width="1366"
     inkscape:window-height="705"
     id="namedview62"
     showgrid="false"
     inkscape:zoom="17.36868"
     inkscape:cx="3.2770869"
     inkscape:cy="7.4922239"
     inkscape:window-x="-8"
     inkscape:window-y="-8"
     inkscape:window-maximized="1"
     inkscape:current-layer="Capa_1" /><g
     id="g32"
     transform="translate(0,-287.45401)" /><g
     id="g34"
     transform="translate(0,-287.45401)" /><g
     id="g36"
     transform="translate(0,-287.45401)" /><g
     id="g38"
     transform="translate(0,-287.45401)" /><g
     id="g40"
     transform="translate(0,-287.45401)" /><g
     id="g42"
     transform="translate(0,-287.45401)" /><g
     id="g44"
     transform="translate(0,-287.45401)" /><g
     id="g46"
     transform="translate(0,-287.45401)" /><g
     id="g48"
     transform="translate(0,-287.45401)" /><g
     id="g50"
     transform="translate(0,-287.45401)" /><g
     id="g52"
     transform="translate(0,-287.45401)" /><g
     id="g54"
     transform="translate(0,-287.45401)" /><g
     id="g56"
     transform="translate(0,-287.45401)" /><g
     id="g58"
     transform="translate(0,-287.45401)" /><g
     id="g60"
     transform="translate(0,-287.45401)" /><g
     id="g4313"
     inkscape:export-xdpi="90"
     inkscape:export-ydpi="90"><path
       id="path12"
       d="M 5.5429688 0.19921875 C 4.9086064 0.19921875 4.3925781 0.71708233 4.3925781 1.3515625 L 4.3925781 9.984375 A 5.2393156 5.2393156 0 0 1 4.8496094 9.9609375 A 5.2393156 5.2393156 0 0 1 5.2460938 9.9824219 L 5.2460938 1.3515625 C 5.2460938 1.1897294 5.3812534 1.0527344 5.5429688 1.0527344 L 12.880859 1.0527344 C 13.005078 1.0527344 13.265625 1.1177433 13.265625 1.4726562 L 13.265625 4.9648438 C 13.265625 5.599265 13.781536 6.1171875 14.416016 6.1171875 L 18.75 6.1171875 C 18.82912 6.1171875 18.962891 6.1698994 18.962891 6.3613281 L 18.964844 17.175781 C 18.964844 17.340444 18.830679 17.474609 18.666016 17.474609 L 9.5605469 17.474609 A 5.2393156 5.2393156 0 0 1 9.046875 18.326172 L 18.666016 18.326172 C 19.300496 18.326172 19.816406 17.810261 19.816406 17.175781 L 19.816406 6.1074219 C 19.816406 5.5797102 19.509065 4.9289716 19.101562 4.59375 L 14.435547 0.7578125 C 14.049328 0.43992389 13.38092 0.19921875 12.880859 0.19921875 L 5.5429688 0.19921875 z M 14.234375 1.7988281 C 14.292725 1.8176571 14.351562 1.8730469 14.351562 1.8730469 L 18.048828 5.03125 C 18.048828 5.03125 18.284462 5.2636719 17.878906 5.2636719 L 14.416016 5.2636719 C 14.251353 5.2636719 14.117188 5.1295068 14.117188 4.9648438 L 14.117188 1.9375 C 14.117188 1.7965667 14.176028 1.7799992 14.234375 1.7988281 z M 7.2363281 3.5507812 C 7.0775017 3.5507812 6.9472656 3.6811942 6.9472656 3.8398438 L 6.9472656 4.03125 C 6.9472656 4.1898995 7.0775607 4.3203125 7.2363281 4.3203125 L 11.019531 4.3203125 C 11.178358 4.3203125 11.308594 4.1898406 11.308594 4.03125 L 11.308594 3.8398438 C 11.308594 3.6811352 11.178299 3.5507812 11.019531 3.5507812 L 7.2363281 3.5507812 z M 7.2363281 6.2148438 C 7.0775018 6.2148438 6.9472656 6.3452567 6.9472656 6.5039062 L 6.9472656 6.6953125 C 6.9472656 6.854021 7.0775607 6.984375 7.2363281 6.984375 L 13.025391 6.984375 C 13.1841 6.984375 13.314453 6.853962 13.314453 6.6953125 L 13.314453 6.5039062 C 13.314453 6.3452567 13.184041 6.2148437 13.025391 6.2148438 L 7.2363281 6.2148438 z M 7.2363281 8.8789062 C 7.0775017 8.8789062 6.9472656 9.0093192 6.9472656 9.1679688 L 6.9472656 9.359375 C 6.9472656 9.5180245 7.0775607 9.6484375 7.2363281 9.6484375 L 16.972656 9.6484375 C 17.131365 9.6484375 17.261719 9.5180245 17.261719 9.359375 L 17.261719 9.1679688 C 17.261719 9.0092603 17.131306 8.8789062 16.972656 8.8789062 L 7.2363281 8.8789062 z M 8.5996094 11.542969 A 5.2393156 5.2393156 0 0 1 9.2167969 12.3125 L 16.972656 12.3125 C 17.131365 12.3125 17.261719 12.182088 17.261719 12.023438 L 17.261719 11.830078 C 17.261719 11.67137 17.131306 11.542969 16.972656 11.542969 L 8.5996094 11.542969 z M 13.042969 14.207031 C 12.884143 14.207031 12.753906 14.335491 12.753906 14.494141 L 12.753906 14.6875 C 12.753906 14.84609 12.884202 14.974609 13.042969 14.974609 L 16.826172 14.974609 C 16.984999 14.974609 17.115234 14.84609 17.115234 14.6875 L 17.115234 14.494141 C 17.115234 14.335432 16.98494 14.207031 16.826172 14.207031 L 13.042969 14.207031 z "
       style="fill:#1a1a1a" /><path
       inkscape:connector-curvature="0"
       id="circle4200"
       d="m 9.3939512,15.200902 a 4.5453807,4.5453807 0 0 0 -4.5449202,-4.54492 4.5453807,4.5453807 0 0 0 -4.54492177,4.54492 4.5453807,4.5453807 0 0 0 4.54492017,4.544922 4.5453807,4.5453807 0 0 0 4.5449218,-4.544922 z m -1.8140967,-0.78828 -7e-7,1.576558 -1.9425446,1e-6 0,1.942545 -1.5765583,0 0,-1.942545 -1.9425446,0 7e-7,-1.576557 1.9425447,-2e-6 7e-7,-1.942544 1.5765568,0 0,1.942544 1.9425453,0 z"
       style="opacity:1;fill:#1a1a1a;fill-opacity:1;stroke:none;stroke-width:3.17025375;stroke-linecap:round;stroke-linejoin:round;stroke-miterlimit:4;stroke-dasharray:none;stroke-dashoffset:0;stroke-opacity:1" /></g></svg>