<?xml version="1.0" encoding="UTF-8" standalone="no"?>
<!-- Generator: Adobe Illustrator 18.1.1, SVG Export Plug-In . SVG Version: 6.00 Build 0)  -->

<svg
   xmlns:dc="http://purl.org/dc/elements/1.1/"
   xmlns:cc="http://creativecommons.org/ns#"
   xmlns:rdf="http://www.w3.org/1999/02/22-rdf-syntax-ns#"
   xmlns:svg="http://www.w3.org/2000/svg"
   xmlns="http://www.w3.org/2000/svg"
   xmlns:sodipodi="http://sodipodi.sourceforge.net/DTD/sodipodi-0.dtd"
   xmlns:inkscape="http://www.inkscape.org/namespaces/inkscape"
   version="1.1"
   id="Capa_1"
   x="0px"
   y="0px"
   viewBox="0 0 20 20"
   xml:space="preserve"
   inkscape:version="0.91 r13725"
   sodipodi:docname="smallicon_saveas.svg"
   width="20"
   height="20"
   inkscape:export-filename="C:\projects\AbcMap2\icons\projects\smallicon_saveas.png"
   inkscape:export-xdpi="90"
   inkscape:export-ydpi="90"><metadata
     id="metadata51"><rdf:RDF><cc:Work
         rdf:about=""><dc:format>image/svg+xml</dc:format><dc:type
           rdf:resource="http://purl.org/dc/dcmitype/StillImage" /><dc:title /></cc:Work></rdf:RDF></metadata><defs
     id="defs49" /><sodipodi:namedview
     pagecolor="#ffffff"
     bordercolor="#666666"
     borderopacity="1"
     objecttolerance="10"
     gridtolerance="10"
     guidetolerance="10"
     inkscape:pageopacity="0"
     inkscape:pageshadow="2"
     inkscape:window-width="1366"
     inkscape:window-height="705"
     id="namedview47"
     showgrid="false"
     inkscape:zoom="16"
     inkscape:cx="12.465715"
     inkscape:cy="9.17522"
     inkscape:window-x="-8"
     inkscape:window-y="-8"
     inkscape:window-maximized="1"
     inkscape:current-layer="Capa_1" /><path
     style="fill:#1a1a1a"
     d="M 0.1328125 0.1328125 L 0.1328125 19.867188 L 12.378906 19.867188 A 5.644441 5.644441 0 0 1 10.867188 18.632812 L 2.5996094 18.632812 L 2.5996094 10 L 12.402344 10 A 5.644441 5.644441 0 0 1 15.125 9.2929688 A 5.644441 5.644441 0 0 1 19.867188 11.876953 L 19.867188 3.8339844 L 16.166016 0.1328125 L 14.933594 0.1328125 L 14.933594 8.1503906 L 5.0664062 8.1503906 L 5.0664062 0.1328125 L 0.1328125 0.1328125 z M 19.867188 17.988281 A 5.644441 5.644441 0 0 1 17.861328 19.867188 L 19.867188 19.867188 L 19.867188 17.988281 z "
     id="path7" /><path
     style="fill:#1a1a1a"
     d="M 3.8339844 11.232422 L 3.8339844 12.466797 L 10.058594 12.466797 A 5.644441 5.644441 0 0 1 10.873047 11.232422 L 3.8339844 11.232422 z "
     id="rect9" /><path
     style="fill:#1a1a1a"
     d="M 3.8339844 13.699219 L 3.8339844 14.933594 L 9.4804688 14.933594 A 5.644441 5.644441 0 0 1 9.6230469 13.699219 L 3.8339844 13.699219 z "
     id="rect11" /><path
     style="fill:#1a1a1a"
     d="M 3.8339844 16.166016 L 3.8339844 17.400391 L 10.050781 17.400391 A 5.644441 5.644441 0 0 1 9.6230469 16.166016 L 3.8339844 16.166016 z "
     id="rect13" /><rect
     x="11.233352"
     y="1.3665363"
     style="fill:#1a1a1a"
     width="2.4667039"
     height="5.5500841"
     id="rect15" /><g
     id="g17"
     transform="translate(0,-12)" /><g
     id="g19"
     transform="translate(0,-12)" /><g
     id="g21"
     transform="translate(0,-12)" /><g
     id="g23"
     transform="translate(0,-12)" /><g
     id="g25"
     transform="translate(0,-12)" /><g
     id="g27"
     transform="translate(0,-12)" /><g
     id="g29"
     transform="translate(0,-12)" /><g
     id="g31"
     transform="translate(0,-12)" /><g
     id="g33"
     transform="translate(0,-12)" /><g
     id="g35"
     transform="translate(0,-12)" /><g
     id="g37"
     transform="translate(0,-12)" /><g
     id="g39"
     transform="translate(0,-12)" /><g
     id="g41"
     transform="translate(0,-12)" /><g
     id="g43"
     transform="translate(0,-12)" /><g
     id="g45"
     transform="translate(0,-12)" /><path
     style="opacity:1;fill:#1a1a1a;fill-opacity:1;stroke:none;stroke-width:3.17025375;stroke-linecap:round;stroke-linejoin:round;stroke-miterlimit:4;stroke-dasharray:none;stroke-dashoffset:0;stroke-opacity:1"
     d="m 15.124999,10.392578 a 4.5453817,4.5453817 0 0 0 -4.544922,4.544922 4.5453817,4.5453817 0 0 0 4.544922,4.544922 4.5453817,4.5453817 0 0 0 4.544922,-4.544922 4.5453817,4.5453817 0 0 0 -4.544922,-4.544922 z m -0.788279,1.814098 1.576558,0 0,1.942545 1.942545,0 0,1.576558 -1.942545,0 0,1.942545 -1.576558,0 0,-1.942545 -1.942545,0 0,-1.576558 1.942545,0 0,-1.942545 z"
     id="circle4200"
     inkscape:connector-curvature="0" /></svg>