<?xml version="1.0" encoding="UTF-8" standalone="no"?>
<!-- Generator: Adobe Illustrator 18.1.1, SVG Export Plug-In . SVG Version: 6.00 Build 0)  -->

<svg
   xmlns:dc="http://purl.org/dc/elements/1.1/"
   xmlns:cc="http://creativecommons.org/ns#"
   xmlns:rdf="http://www.w3.org/1999/02/22-rdf-syntax-ns#"
   xmlns:svg="http://www.w3.org/2000/svg"
   xmlns="http://www.w3.org/2000/svg"
   xmlns:sodipodi="http://sodipodi.sourceforge.net/DTD/sodipodi-0.dtd"
   xmlns:inkscape="http://www.inkscape.org/namespaces/inkscape"
   version="1.1"
   id="Capa_1"
   x="0px"
   y="0px"
   viewBox="0 0 20 20"
   xml:space="preserve"
   inkscape:version="0.91 r13725"
   sodipodi:docname="smallicon_openproject.svg"
   width="20"
   height="20"
   inkscape:export-filename="C:\eclipse\project\AbcMap2\icons\smallicon_openproject.png"
   inkscape:export-xdpi="90"
   inkscape:export-ydpi="90"><metadata
     id="metadata44"><rdf:RDF><cc:Work
         rdf:about=""><dc:format>image/svg+xml</dc:format><dc:type
           rdf:resource="http://purl.org/dc/dcmitype/StillImage" /><dc:title /></cc:Work></rdf:RDF></metadata><defs
     id="defs42" /><sodipodi:namedview
     pagecolor="#ffffff"
     bordercolor="#666666"
     borderopacity="1"
     objecttolerance="10"
     gridtolerance="10"
     guidetolerance="10"
     inkscape:pageopacity="0"
     inkscape:pageshadow="2"
     inkscape:window-width="1366"
     inkscape:window-height="705"
     id="namedview40"
     showgrid="false"
     inkscape:zoom="10.10731"
     inkscape:cx="-14.315764"
     inkscape:cy="13.190331"
     inkscape:window-x="-8"
     inkscape:window-y="-8"
     inkscape:window-maximized="1"
     inkscape:current-layer="Capa_1" /><path
     style="fill:#1a1a1a"
     inkscape:connector-curvature="0"
     id="path8"
     d="m 18.9306,6.2194579 c 0,0 -0.787355,0 -1.049807,0 -0.118044,0 -0.10023,-0.1754284 -0.10023,-0.1754284 l 0,-0.5262342 c 0,-0.6908614 -0.562067,-1.2529286 -1.252928,-1.2529286 l -8.5721392,0 c -0.057589,0 -0.1272074,-0.1156384 -0.2522136,-0.358689 C 7.6847002,3.8700887 7.6660158,3.8337949 7.6469731,3.7977059 7.2100657,2.9698086 6.6429818,2.7960182 6.244211,2.7960182 l -2.2301986,0 c -0.5637565,0 -0.9002289,0.3275142 -1.296645,0.973482 -0.0258,0.042078 -0.051139,0.084771 -0.076478,0.1274633 C 2.513119,4.1123714 2.4169328,4.2649179 2.3426048,4.2649179 l -0.6517523,0 c -0.69086141,0 -1.2529286,0.5620672 -1.2529286,1.2529286 l 0,10.4162105 c 0,0.612234 0.44151453,1.122957 1.0227268,1.231378 0.070284,0.02467 0.1473763,0.03855 0.2302018,0.03855 l 15.2851565,0 c 0.413462,0 0.811004,-0.333043 0.883438,-0.740106 L 19.550614,6.9596154 C 19.623099,6.5525006 19.344062,6.2194579 18.9306,6.2194579 Z M 1.6909037,5.2672198 l 0.6517523,0 c 0.6509843,0 0.9575618,-0.5169687 1.1604281,-0.8590209 0.022728,-0.03829 0.045457,-0.076683 0.068595,-0.114461 C 3.773419,3.9650463 3.9310845,3.7983202 4.1226378,3.7983202 l 2.1216244,0 c 0.066701,0 0.2697718,0 0.5162521,0.4671608 0.017405,0.033018 0.034451,0.066189 0.051446,0.099206 0.1848475,0.3594056 0.4642942,0.9024813 1.1435355,0.9024813 l 8.5721392,0 c 0.135807,0 0.250575,0.1147681 0.250575,0.2505754 l 0,0.501151 c 0,0 0.01561,0.2005116 -0.10023,0.2005116 -3.258147,0 -13.0325874,0 -13.0325874,0 -0.4134624,0 -0.8110046,0.3330427 -0.8834386,0.7401063 l -1.2574846,7.067201 c 0,0 -0.064192,0.236499 -0.064192,-0.202047 0,-2.076731 0,-8.3068717 0,-8.3068717 0,-0.1358073 0.1147681,-0.2505755 0.2506266,-0.2505755 z" /><g
     id="g10"
     transform="translate(0,-353.591)" /><g
     id="g12"
     transform="translate(0,-353.591)" /><g
     id="g14"
     transform="translate(0,-353.591)" /><g
     id="g16"
     transform="translate(0,-353.591)" /><g
     id="g18"
     transform="translate(0,-353.591)" /><g
     id="g20"
     transform="translate(0,-353.591)" /><g
     id="g22"
     transform="translate(0,-353.591)" /><g
     id="g24"
     transform="translate(0,-353.591)" /><g
     id="g26"
     transform="translate(0,-353.591)" /><g
     id="g28"
     transform="translate(0,-353.591)" /><g
     id="g30"
     transform="translate(0,-353.591)" /><g
     id="g32"
     transform="translate(0,-353.591)" /><g
     id="g34"
     transform="translate(0,-353.591)" /><g
     id="g36"
     transform="translate(0,-353.591)" /><g
     id="g38"
     transform="translate(0,-353.591)" /></svg>