<?xml version="1.0" encoding="UTF-8" standalone="no"?>
<!-- Generator: Adobe Illustrator 18.1.1, SVG Export Plug-In . SVG Version: 6.00 Build 0)  -->

<svg
   xmlns:dc="http://purl.org/dc/elements/1.1/"
   xmlns:cc="http://creativecommons.org/ns#"
   xmlns:rdf="http://www.w3.org/1999/02/22-rdf-syntax-ns#"
   xmlns:svg="http://www.w3.org/2000/svg"
   xmlns="http://www.w3.org/2000/svg"
   xmlns:sodipodi="http://sodipodi.sourceforge.net/DTD/sodipodi-0.dtd"
   xmlns:inkscape="http://www.inkscape.org/namespaces/inkscape"
   version="1.1"
   id="Capa_1"
   x="0px"
   y="0px"
   viewBox="0 0 19.999999 19.999999"
   xml:space="preserve"
   inkscape:version="0.91 r13725"
   sodipodi:docname="smallicon_closeproject.svg"
   width="20"
   height="20"
   inkscape:export-filename="C:\projects\AbcMap2\icons\projects\smallicon_closeproject.png"
   inkscape:export-xdpi="90"
   inkscape:export-ydpi="90"><metadata
     id="metadata66"><rdf:RDF><cc:Work
         rdf:about=""><dc:format>image/svg+xml</dc:format><dc:type
           rdf:resource="http://purl.org/dc/dcmitype/StillImage" /><dc:title /></cc:Work></rdf:RDF></metadata><defs
     id="defs64" /><sodipodi:namedview
     pagecolor="#ffffff"
     bordercolor="#666666"
     borderopacity="1"
     objecttolerance="10"
     gridtolerance="10"
     guidetolerance="10"
     inkscape:pageopacity="0"
     inkscape:pageshadow="2"
     inkscape:window-width="1366"
     inkscape:window-height="705"
     id="namedview62"
     showgrid="false"
     inkscape:zoom="17.36868"
     inkscape:cx="3.2770869"
     inkscape:cy="7.4922239"
     inkscape:window-x="-8"
     inkscape:window-y="-8"
     inkscape:window-maximized="1"
     inkscape:current-layer="Capa_1" /><path
     style="opacity:1;fill:#1a1a1a;fill-opacity:1;stroke:none;stroke-width:3.17025375;stroke-linecap:round;stroke-linejoin:round;stroke-miterlimit:4;stroke-dasharray:none;stroke-dashoffset:0;stroke-opacity:1"
     d="m 18.510633,11.967994 a 4.5453812,4.5453812 0 0 0 -6.427489,0 4.5453812,4.5453812 0 0 0 -1e-6,6.42749 4.5453812,4.5453812 0 0 0 6.42749,1e-6 4.5453812,4.5453812 0 0 0 0,-6.427491 z m -1.840158,0.725363 1.114794,1.114795 -1.373586,1.373587 1.373587,1.373587 -1.114795,1.114795 -1.373587,-1.373587 -1.373586,1.373587 -1.114795,-1.114795 1.373586,-1.373588 -1.373586,-1.373586 1.114795,-1.114794 1.373586,1.373586 1.373587,-1.373587 z"
     id="circle4200"
     inkscape:connector-curvature="0" /><g
     id="g32"
     transform="translate(0,-287.45401)" /><g
     id="g34"
     transform="translate(0,-287.45401)" /><g
     id="g36"
     transform="translate(0,-287.45401)" /><g
     id="g38"
     transform="translate(0,-287.45401)" /><g
     id="g40"
     transform="translate(0,-287.45401)" /><g
     id="g42"
     transform="translate(0,-287.45401)" /><g
     id="g44"
     transform="translate(0,-287.45401)" /><g
     id="g46"
     transform="translate(0,-287.45401)" /><g
     id="g48"
     transform="translate(0,-287.45401)" /><g
     id="g50"
     transform="translate(0,-287.45401)" /><g
     id="g52"
     transform="translate(0,-287.45401)" /><g
     id="g54"
     transform="translate(0,-287.45401)" /><g
     id="g56"
     transform="translate(0,-287.45401)" /><g
     id="g58"
     transform="translate(0,-287.45401)" /><g
     id="g60"
     transform="translate(0,-287.45401)" /><path
     style="fill:#1a1a1a"
     d="M 1.3984375 0.083984375 C 0.76407514 0.083984375 0.24804687 0.60184798 0.24804688 1.2363281 L 0.24804688 17.025391 C 0.24804688 18.210339 1.3678243 18.210938 1.3945312 18.210938 L 10.748047 18.210938 A 5.4696157 5.4696157 0 0 1 10.287109 17.359375 L 1.3144531 17.359375 C 1.2672301 17.359375 1.0996094 17.34438 1.0996094 17.111328 L 1.0996094 1.2363281 C 1.0996094 1.074495 1.2367223 0.9375 1.3984375 0.9375 L 8.7363281 0.9375 C 8.8605475 0.9375 9.1191406 1.0025092 9.1191406 1.3574219 L 9.1191406 4.8496094 C 9.1191406 5.4840307 9.635051 6.0019531 10.269531 6.0019531 L 14.605469 6.0019531 C 14.684589 6.0019531 14.818359 6.0546647 14.818359 6.2460938 L 14.818359 9.7382812 A 5.4696157 5.4696157 0 0 1 15.296875 9.7128906 A 5.4696157 5.4696157 0 0 1 15.669922 9.7324219 L 15.669922 5.9921875 C 15.669922 5.4644758 15.36258 4.8137373 14.955078 4.4785156 L 10.291016 0.64257812 C 9.9047975 0.32468952 9.2363896 0.083984375 8.7363281 0.083984375 L 1.3984375 0.083984375 z M 10.087891 1.6835938 C 10.146242 1.7024226 10.205078 1.7578125 10.205078 1.7578125 L 13.902344 4.9160156 C 13.902344 4.9160156 14.13993 5.1484375 13.734375 5.1484375 L 10.269531 5.1484375 C 10.104868 5.1484375 9.9726562 5.0142724 9.9726562 4.8496094 L 9.9726562 1.8222656 C 9.9726562 1.6813323 10.029539 1.6647648 10.087891 1.6835938 z M 3.0917969 3.4355469 C 2.9329705 3.4355469 2.8027344 3.5659599 2.8027344 3.7246094 L 2.8027344 3.9160156 C 2.8027344 4.0746651 2.9330295 4.2050781 3.0917969 4.2050781 L 6.875 4.2050781 C 7.0338263 4.2050781 7.1621094 4.0746062 7.1621094 3.9160156 L 7.1621094 3.7246094 C 7.1621094 3.5659009 7.0337674 3.4355469 6.875 3.4355469 L 3.0917969 3.4355469 z M 3.0917969 6.0996094 C 2.9329706 6.0996094 2.8027344 6.2300224 2.8027344 6.3886719 L 2.8027344 6.5800781 C 2.8027344 6.7387866 2.9330295 6.8691406 3.0917969 6.8691406 L 8.8808594 6.8691406 C 9.0395678 6.8691406 9.1679687 6.7387276 9.1679688 6.5800781 L 9.1679688 6.3886719 C 9.1679688 6.2300224 9.0395089 6.0996094 8.8808594 6.0996094 L 3.0917969 6.0996094 z M 3.0917969 8.7636719 C 2.9329705 8.7636719 2.8027344 8.8940849 2.8027344 9.0527344 L 2.8027344 9.2441406 C 2.8027344 9.4027901 2.9330295 9.5332031 3.0917969 9.5332031 L 12.826172 9.5332031 C 12.98488 9.5332031 13.115234 9.4027901 13.115234 9.2441406 L 13.115234 9.0527344 C 13.115234 8.894026 12.984821 8.7636719 12.826172 8.7636719 L 3.0917969 8.7636719 z M 3.0917969 11.427734 C 2.9329705 11.427734 2.8027344 11.556195 2.8027344 11.714844 L 2.8027344 11.908203 C 2.8027344 12.066912 2.9330295 12.197266 3.0917969 12.197266 L 10.71875 12.197266 A 5.4696157 5.4696157 0 0 1 11.328125 11.427734 L 3.0917969 11.427734 z M 8.8984375 14.091797 C 8.7396112 14.091797 8.609375 14.220256 8.609375 14.378906 L 8.609375 14.572266 C 8.609375 14.730856 8.7396701 14.859375 8.8984375 14.859375 L 9.84375 14.859375 A 5.4696157 5.4696157 0 0 1 9.9375 14.091797 L 8.8984375 14.091797 z "
     id="path12" /></svg>