<?xml version="1.0" encoding="UTF-8" standalone="no"?>
<!-- Generator: Adobe Illustrator 16.0.0, SVG Export Plug-In . SVG Version: 6.00 Build 0)  -->

<svg
   xmlns:dc="http://purl.org/dc/elements/1.1/"
   xmlns:cc="http://creativecommons.org/ns#"
   xmlns:rdf="http://www.w3.org/1999/02/22-rdf-syntax-ns#"
   xmlns:svg="http://www.w3.org/2000/svg"
   xmlns="http://www.w3.org/2000/svg"
   xmlns:sodipodi="http://sodipodi.sourceforge.net/DTD/sodipodi-0.dtd"
   xmlns:inkscape="http://www.inkscape.org/namespaces/inkscape"
   version="1.1"
   id="Capa_1"
   x="0px"
   y="0px"
   width="15"
   height="15"
   viewBox="0 0 15 15"
   xml:space="preserve"
   inkscape:version="0.91 r13725"
   sodipodi:docname="navb_close.svg"
   inkscape:export-filename="C:\eclipse\project\DockIHM\icons\navb_close.png"
   inkscape:export-xdpi="90"
   inkscape:export-ydpi="90"><metadata
     id="metadata41"><rdf:RDF><cc:Work
         rdf:about=""><dc:format>image/svg+xml</dc:format><dc:type
           rdf:resource="http://purl.org/dc/dcmitype/StillImage" /><dc:title></dc:title></cc:Work></rdf:RDF></metadata><defs
     id="defs39" /><sodipodi:namedview
     pagecolor="#ffffff"
     bordercolor="#666666"
     borderopacity="1"
     objecttolerance="10"
     gridtolerance="10"
     guidetolerance="10"
     inkscape:pageopacity="0"
     inkscape:pageshadow="2"
     inkscape:window-width="1366"
     inkscape:window-height="705"
     id="namedview37"
     showgrid="false"
     inkscape:zoom="16.088487"
     inkscape:cx="-1.6364957"
     inkscape:cy="9.0993316"
     inkscape:window-x="-8"
     inkscape:window-y="-8"
     inkscape:window-maximized="1"
     inkscape:current-layer="Capa_1" /><path
     inkscape:connector-curvature="0"
     id="path5"
     d="M 9.8929941,7.5120439 14.618389,2.7842462 c 0.396576,-0.396607 0.396576,-1.0423185 0,-1.443762 L 13.655891,0.37798687 c -0.396638,-0.39660708 -1.042285,-0.39660708 -1.44373,0 L 7.4867334,5.1058479 2.7878931,0.40700684 c -0.396607,-0.39660695 -1.0423182,-0.39660695 -1.4437303,0 L 0.3816338,1.3695042 c -0.39660696,0.3966069 -0.39660696,1.0423183 0,1.4437619 L 5.0804752,7.5120759 0.38650211,12.203678 c -0.39660708,0.396606 -0.39660708,1.042285 0,1.443729 l 0.96249729,0.962497 c 0.396607,0.396607 1.0423184,0.396607 1.4437303,0 L 7.4867334,9.9183351 12.190381,14.622012 c 0.396637,0.396608 1.04235,0.396608 1.443731,0 l 0.962497,-0.962498 c 0.396637,-0.396606 0.396637,-1.042318 0,-1.443761 L 9.8929941,7.5120439 Z"
     style="fill:#1a1a1a;fill-opacity:1" /><g
     id="g7"
     transform="translate(0,-454.40399)" /><g
     id="g9"
     transform="translate(0,-454.40399)" /><g
     id="g11"
     transform="translate(0,-454.40399)" /><g
     id="g13"
     transform="translate(0,-454.40399)" /><g
     id="g15"
     transform="translate(0,-454.40399)" /><g
     id="g17"
     transform="translate(0,-454.40399)" /><g
     id="g19"
     transform="translate(0,-454.40399)" /><g
     id="g21"
     transform="translate(0,-454.40399)" /><g
     id="g23"
     transform="translate(0,-454.40399)" /><g
     id="g25"
     transform="translate(0,-454.40399)" /><g
     id="g27"
     transform="translate(0,-454.40399)" /><g
     id="g29"
     transform="translate(0,-454.40399)" /><g
     id="g31"
     transform="translate(0,-454.40399)" /><g
     id="g33"
     transform="translate(0,-454.40399)" /><g
     id="g35"
     transform="translate(0,-454.40399)" /></svg>