<?xml version="1.0" encoding="UTF-8" standalone="no"?>
<!-- Generator: Adobe Illustrator 18.1.1, SVG Export Plug-In . SVG Version: 6.00 Build 0)  -->

<svg
   xmlns:dc="http://purl.org/dc/elements/1.1/"
   xmlns:cc="http://creativecommons.org/ns#"
   xmlns:rdf="http://www.w3.org/1999/02/22-rdf-syntax-ns#"
   xmlns:svg="http://www.w3.org/2000/svg"
   xmlns="http://www.w3.org/2000/svg"
   xmlns:sodipodi="http://sodipodi.sourceforge.net/DTD/sodipodi-0.dtd"
   xmlns:inkscape="http://www.inkscape.org/namespaces/inkscape"
   version="1.1"
   id="Capa_1"
   x="0px"
   y="0px"
   viewBox="0 0 15.000001 15.000001"
   xml:space="preserve"
   inkscape:version="0.91 r13725"
   sodipodi:docname="navb_expand_infos.svg"
   width="15"
   height="15"
   inkscape:export-filename="C:\eclipse\project\AbcMap2\icons\navb_expand_infos.png"
   inkscape:export-xdpi="90"
   inkscape:export-ydpi="90"><metadata
     id="metadata45"><rdf:RDF><cc:Work
         rdf:about=""><dc:format>image/svg+xml</dc:format><dc:type
           rdf:resource="http://purl.org/dc/dcmitype/StillImage" /><dc:title></dc:title></cc:Work></rdf:RDF></metadata><defs
     id="defs43" /><sodipodi:namedview
     pagecolor="#ffffff"
     bordercolor="#666666"
     borderopacity="1"
     objecttolerance="10"
     gridtolerance="10"
     guidetolerance="10"
     inkscape:pageopacity="0"
     inkscape:pageshadow="2"
     inkscape:window-width="1366"
     inkscape:window-height="705"
     id="namedview41"
     showgrid="false"
     inkscape:zoom="20.860954"
     inkscape:cx="4.4558715"
     inkscape:cy="9.4955127"
     inkscape:window-x="-8"
     inkscape:window-y="-8"
     inkscape:window-maximized="1"
     inkscape:current-layer="Capa_1" /><g
     id="g11"
     transform="translate(0,-0.9989997)" /><g
     id="g13"
     transform="translate(0,-0.9989997)" /><g
     id="g15"
     transform="translate(0,-0.9989997)" /><g
     id="g17"
     transform="translate(0,-0.9989997)" /><g
     id="g19"
     transform="translate(0,-0.9989997)" /><g
     id="g21"
     transform="translate(0,-0.9989997)" /><g
     id="g23"
     transform="translate(0,-0.9989997)" /><g
     id="g25"
     transform="translate(0,-0.9989997)" /><g
     id="g27"
     transform="translate(0,-0.9989997)" /><g
     id="g29"
     transform="translate(0,-0.9989997)" /><g
     id="g31"
     transform="translate(0,-0.9989997)" /><g
     id="g33"
     transform="translate(0,-0.9989997)" /><g
     id="g35"
     transform="translate(0,-0.9989997)" /><g
     id="g37"
     transform="translate(0,-0.9989997)" /><g
     id="g39"
     transform="translate(0,-0.9989997)" /><g
     id="g5402"
     transform="translate(0.33555318,-7.5297427e-7)"><text
       sodipodi:linespacing="125%"
       id="text5358"
       y="13.79466"
       x="-0.75316018"
       style="font-style:normal;font-weight:normal;font-size:16.99599266px;line-height:125%;font-family:sans-serif;letter-spacing:0px;word-spacing:0px;fill:#1a1a1a;fill-opacity:1;stroke:none;stroke-width:1px;stroke-linecap:butt;stroke-linejoin:miter;stroke-opacity:1"
       xml:space="preserve"><tspan
         style="font-style:normal;font-variant:normal;font-weight:normal;font-stretch:semi-condensed;font-family:'Lucida Console';-inkscape-font-specification:'Lucida Console Semi-Condensed';fill:#1a1a1a"
         y="13.79466"
         x="-0.75316018"
         id="tspan5360"
         sodipodi:role="line">?</tspan></text>
<path
       sodipodi:nodetypes="scsssscsccccccs"
       inkscape:connector-curvature="0"
       id="path4773"
       d="m 13.400648,5.3159987 -1.119139,0 0,3.344399 c 0,0.3393931 -0.190982,0.6143316 -0.426592,0.6143316 l -0.541366,0 c -0.235132,0 -0.426114,-0.2749385 -0.426114,-0.6143316 l 0,-3.344399 -1.0717673,0 C 9.6863664,5.3159987 9.5700082,5.2034781 9.519877,5.0310349 9.4702834,4.85937 9.4973282,4.6609252 9.5895687,4.5284914 L 11.381278,1.9496267 c 0.125327,-0.1803626 0.328366,-0.1803626 0.453184,0 l 1.792728,2.5788647 c 0.09174,0.1324338 0.118839,0.3308786 0.0697,0.5025435 -0.05007,0.1724432 -0.166871,0.2849638 -0.296242,0.2849638 z"
       style="fill:#1a1a1a" /><path
       style="fill:#1a1a1a"
       d="m 13.400648,9.7730855 -1.119139,0 0,-3.344399 c 0,-0.3393931 -0.190982,-0.6143316 -0.426592,-0.6143316 l -0.541366,0 c -0.235132,0 -0.426114,0.2749385 -0.426114,0.6143316 l 0,3.344399 -1.0717673,0 c -0.1293033,0 -0.2456615,0.1125206 -0.2957927,0.2849635 -0.049594,0.171665 -0.022549,0.37011 0.069692,0.502544 l 1.791709,2.578864 c 0.125327,0.180363 0.328366,0.180363 0.453184,0 l 1.792728,-2.578864 c 0.09174,-0.132434 0.118839,-0.330879 0.0697,-0.502544 C 13.64682,9.8856061 13.530019,9.7730855 13.400648,9.7730855 Z"
       id="path5400"
       inkscape:connector-curvature="0"
       sodipodi:nodetypes="scsssscsccccccs" /></g></svg>