<?xml version="1.0" encoding="UTF-8" standalone="no"?>
<!-- Generator: Adobe Illustrator 16.0.0, SVG Export Plug-In . SVG Version: 6.00 Build 0)  -->

<svg
   xmlns:dc="http://purl.org/dc/elements/1.1/"
   xmlns:cc="http://creativecommons.org/ns#"
   xmlns:rdf="http://www.w3.org/1999/02/22-rdf-syntax-ns#"
   xmlns:svg="http://www.w3.org/2000/svg"
   xmlns="http://www.w3.org/2000/svg"
   xmlns:sodipodi="http://sodipodi.sourceforge.net/DTD/sodipodi-0.dtd"
   xmlns:inkscape="http://www.inkscape.org/namespaces/inkscape"
   version="1.1"
   id="Capa_1"
   x="0px"
   y="0px"
   width="35"
   height="35"
   viewBox="0 0 35 35"
   xml:space="preserve"
   inkscape:version="0.91 r13725"
   sodipodi:docname="group_geoloc.svg"
   inkscape:export-filename="C:\projects\AbcMap2\icons\groups\group_geoloc.png"
   inkscape:export-xdpi="90"
   inkscape:export-ydpi="90"><metadata
     id="metadata45"><rdf:RDF><cc:Work
         rdf:about=""><dc:format>image/svg+xml</dc:format><dc:type
           rdf:resource="http://purl.org/dc/dcmitype/StillImage" /><dc:title /></cc:Work></rdf:RDF></metadata><defs
     id="defs43" /><sodipodi:namedview
     pagecolor="#ffffff"
     bordercolor="#666666"
     borderopacity="1"
     objecttolerance="10"
     gridtolerance="10"
     guidetolerance="10"
     inkscape:pageopacity="0"
     inkscape:pageshadow="2"
     inkscape:window-width="1366"
     inkscape:window-height="705"
     id="namedview41"
     showgrid="false"
     inkscape:zoom="8.7256052"
     inkscape:cx="-4.7124877"
     inkscape:cy="21.651367"
     inkscape:window-x="-8"
     inkscape:window-y="-8"
     inkscape:window-maximized="1"
     inkscape:current-layer="Capa_1" /><path
     d="M 33.519998,10.722798 C 31.683887,6.4429397 28.564399,3.3302794 24.248754,1.4896741 22.091757,0.56979814 19.851124,0.09990357 17.49067,0.09990357 c -2.360909,0 -4.60359,0.46545677 -6.758539,1.38977053 -4.2794032,1.8357692 -7.4322313,4.9463813 -9.2712435,9.2331239 -0.92112766,2.14761 -1.37071076,4.39763 -1.37071076,6.758084 0,2.360852 0.4495831,4.629534 1.37071076,6.777542 1.8390122,4.286799 4.9918403,7.41613 9.2713005,9.252184 2.154949,0.924427 4.39763,1.389486 6.758539,1.389486 2.360454,0 4.601086,-0.469952 6.758084,-1.389486 4.315645,-1.840549 7.435133,-4.972724 9.271243,-9.252184 0.924314,-2.154892 1.389771,-4.41669 1.389771,-6.777542 0,-2.360454 -0.465457,-4.603135 -1.389827,-6.758084 z M 31.57829,23.43965 c -0.807793,1.881172 -1.880033,3.526912 -3.255637,4.89273 -1.365818,1.356487 -3.007803,2.436806 -4.892673,3.255239 -1.884471,0.818773 -3.864412,1.218346 -5.939367,1.218346 -2.760538,0 -5.311419,-0.685185 -7.6532106,-2.055895 C 7.4960087,29.379359 5.6261594,27.516053 4.2594882,25.172269 2.884738,22.813807 2.2031946,20.241306 2.2031946,17.480825 c 0,-2.760538 0.6855829,-5.311419 2.0562936,-7.6528124 C 5.630199,7.4862206 7.4960087,5.620866 9.8374024,4.2501553 12.179194,2.8794446 14.730132,2.1938616 17.490613,2.1938616 c 2.074955,0 4.054896,0.3996295 5.939367,1.2184032 1.88487,0.8187738 3.517069,1.908424 4.892673,3.2742987 1.365875,1.356487 2.447787,2.9923846 3.255637,4.8736125 0.81024,1.888113 1.218403,3.845694 1.218403,5.920649 0,2.075467 -0.408106,4.07077 -1.218403,5.958825 z"
     id="path7"
     style="fill:#1a1a1a"
     inkscape:connector-curvature="0" /><path
     d="m 22.706676,13.350088 c -0.09951,-0.298072 -0.323675,-0.590511 -0.62829,-0.666466 L 8.866378,8.0004931 C 8.4565644,7.8551268 8.1048405,7.9241402 7.7433875,8.2860484 7.4578891,8.5715467 7.3798863,9.0292658 7.5338438,9.4094372 L 12.692955,22.126403 c 0.109238,0.268373 0.300575,0.46705 0.571054,0.57094 l 12.374573,4.759141 c 0.07595,0.05724 0.209145,0.07635 0.380512,0.07635 0.285499,0 0.526733,-0.102012 0.704643,-0.266495 0.336249,-0.311499 0.409814,-0.655827 0.266439,-1.085212 l -4.2835,-12.831041 z m -8.224264,7.557741 1.789855,-1.827633 c -0.05729,-0.01912 -0.114529,-0.07635 -0.190484,-0.15225 -0.780597,-0.780655 -0.780597,-2.075411 0,-2.855553 0.780597,-0.780597 2.055838,-0.780597 2.836436,0 0.05729,0.05689 0.114131,0.133191 0.152364,0.209146 L 20.8791,14.473022 24.306047,24.69623 14.482412,20.907829 Z"
     id="path9"
     style="fill:#1a1a1a"
     inkscape:connector-curvature="0" /><g
     id="g11"
     transform="translate(0,-577)" /><g
     id="g13"
     transform="translate(0,-577)" /><g
     id="g15"
     transform="translate(0,-577)" /><g
     id="g17"
     transform="translate(0,-577)" /><g
     id="g19"
     transform="translate(0,-577)" /><g
     id="g21"
     transform="translate(0,-577)" /><g
     id="g23"
     transform="translate(0,-577)" /><g
     id="g25"
     transform="translate(0,-577)" /><g
     id="g27"
     transform="translate(0,-577)" /><g
     id="g29"
     transform="translate(0,-577)" /><g
     id="g31"
     transform="translate(0,-577)" /><g
     id="g33"
     transform="translate(0,-577)" /><g
     id="g35"
     transform="translate(0,-577)" /><g
     id="g37"
     transform="translate(0,-577)" /><g
     id="g39"
     transform="translate(0,-577)" /></svg>