<?xml version="1.0" encoding="UTF-8" standalone="no"?>
<!-- Generator: Adobe Illustrator 16.0.0, SVG Export Plug-In . SVG Version: 6.00 Build 0)  -->

<svg
   xmlns:dc="http://purl.org/dc/elements/1.1/"
   xmlns:cc="http://creativecommons.org/ns#"
   xmlns:rdf="http://www.w3.org/1999/02/22-rdf-syntax-ns#"
   xmlns:svg="http://www.w3.org/2000/svg"
   xmlns="http://www.w3.org/2000/svg"
   xmlns:sodipodi="http://sodipodi.sourceforge.net/DTD/sodipodi-0.dtd"
   xmlns:inkscape="http://www.inkscape.org/namespaces/inkscape"
   version="1.1"
   id="Capa_1"
   x="0px"
   y="0px"
   width="35"
   height="35"
   viewBox="0 0 35 35"
   xml:space="preserve"
   inkscape:version="0.91 r13725"
   sodipodi:docname="group_config_profile.svg"
   inkscape:export-filename="C:\projects\AbcMap2\icons\groups\group_config_profile.png"
   inkscape:export-xdpi="90"
   inkscape:export-ydpi="90"><metadata
     id="metadata41"><rdf:RDF><cc:Work
         rdf:about=""><dc:format>image/svg+xml</dc:format><dc:type
           rdf:resource="http://purl.org/dc/dcmitype/StillImage" /><dc:title /></cc:Work></rdf:RDF></metadata><defs
     id="defs39" /><sodipodi:namedview
     pagecolor="#ffffff"
     bordercolor="#666666"
     borderopacity="1"
     objecttolerance="10"
     gridtolerance="10"
     guidetolerance="10"
     inkscape:pageopacity="0"
     inkscape:pageshadow="2"
     inkscape:window-width="1366"
     inkscape:window-height="705"
     id="namedview37"
     showgrid="false"
     inkscape:zoom="8.0240381"
     inkscape:cx="1.4806828"
     inkscape:cy="12.635882"
     inkscape:window-x="-8"
     inkscape:window-y="-8"
     inkscape:window-maximized="1"
     inkscape:current-layer="Capa_1" /><g
     id="g7"
     transform="translate(0,-435.586)" /><g
     id="g9"
     transform="translate(0,-435.586)" /><g
     id="g11"
     transform="translate(0,-435.586)" /><g
     id="g13"
     transform="translate(0,-435.586)" /><g
     id="g15"
     transform="translate(0,-435.586)" /><g
     id="g17"
     transform="translate(0,-435.586)" /><g
     id="g19"
     transform="translate(0,-435.586)" /><g
     id="g21"
     transform="translate(0,-435.586)" /><g
     id="g23"
     transform="translate(0,-435.586)" /><g
     id="g25"
     transform="translate(0,-435.586)" /><g
     id="g27"
     transform="translate(0,-435.586)" /><g
     id="g29"
     transform="translate(0,-435.586)" /><g
     id="g31"
     transform="translate(0,-435.586)" /><g
     id="g33"
     transform="translate(0,-435.586)" /><g
     id="g35"
     transform="translate(0,-435.586)" /><g
     id="g4186"><path
       id="path5"
       d="M 6.8964844 0.30273438 C 5.7341014 0.30273438 4.7890625 1.2499433 4.7890625 2.4121094 L 4.7890625 32.587891 C 4.7890625 33.751806 5.7341014 34.697266 6.8964844 34.697266 L 28.101562 34.697266 C 29.264968 34.697266 30.210938 33.751806 30.210938 32.587891 L 30.210938 6.8242188 L 24.208984 0.30273438 L 6.8964844 0.30273438 z M 6.8964844 2.0742188 L 22.933594 2.0742188 L 22.933594 7.203125 C 22.933594 7.6915231 23.331621 8.0878906 23.820312 8.0878906 L 28.439453 8.0878906 L 28.439453 32.587891 C 28.439453 32.773691 28.28824 32.925781 28.101562 32.925781 L 6.8964844 32.925781 C 6.7100964 32.925781 6.5605469 32.773691 6.5605469 32.587891 L 6.5605469 2.4121094 C 6.5605469 2.2258681 6.7100964 2.0742188 6.8964844 2.0742188 z M 24.707031 3.4589844 L 27.337891 6.3183594 L 24.707031 6.3183594 L 24.707031 3.4589844 z "
       style="fill:#1a1a1a;fill-opacity:1" /><path
       style="fill:#1a1a1a;fill-opacity:1"
       id="path3"
       d="m 17.892928,19.569961 -0.496202,-1.101566 c 0.473032,-0.347226 0.879313,-0.779187 1.19676,-1.272212 l 1.129841,0.428114 c 0.216064,0.0819 0.457473,-0.02693 0.539282,-0.242916 l 0.41523,-1.096046 c 0.03931,-0.10372 0.0358,-0.218825 -0.0097,-0.319956 -0.04559,-0.101129 -0.129405,-0.180012 -0.233212,-0.219327 l -1.129882,-0.428113 c 0.089,-0.579684 0.07093,-1.17225 -0.05328,-1.745829 l 1.101568,-0.496203 c 0.101129,-0.04559 0.180012,-0.129405 0.219327,-0.233212 0.03931,-0.10372 0.0358,-0.218825 -0.0097,-0.319956 l -0.481493,-1.06861 c -0.09486,-0.210627 -0.342623,-0.304313 -0.553083,-0.209539 l -1.101567,0.496203 c -0.347268,-0.473033 -0.779229,-0.879314 -1.272254,-1.19676 l 0.428114,-1.1298397 c 0.08181,-0.21598 -0.02693,-0.457475 -0.242916,-0.539283 l -1.095963,-0.415315 c -0.103639,-0.03923 -0.218741,-0.0358 -0.319955,0.0098 -0.10113,0.04559 -0.180012,0.129404 -0.219327,0.233212 l -0.42803,1.129758 c -0.58027,-0.08951 -1.17384,-0.07102 -1.745912,0.0532 l -0.496119,-1.101486 c -0.04559,-0.101131 -0.129404,-0.180012 -0.233213,-0.219326 -0.103639,-0.03923 -0.218824,-0.0358 -0.319956,0.0098 l -1.068693,0.481398 c -0.210627,0.09486 -0.304398,0.342457 -0.20954,0.553083 l 0.496203,1.1015667 c -0.473032,0.347225 -0.879313,0.779186 -1.19676,1.272211 L 9.3726563,11.554674 c -0.103639,-0.03923 -0.218741,-0.03571 -0.319955,0.0097 -0.101129,0.04559 -0.180012,0.129405 -0.219327,0.233213 l -0.415232,1.095963 c -0.08181,0.21598 0.02693,0.457473 0.242917,0.539282 l 1.12984,0.428112 c -0.089,0.579601 -0.07093,1.172335 0.05328,1.74583 l -1.101652,0.496245 c -0.101129,0.04559 -0.180011,0.129404 -0.219325,0.233211 -0.03931,0.103731 -0.0358,0.218825 0.0097,0.319957 l 0.481397,1.06861 c 0.0455,0.101129 0.129404,0.180012 0.233128,0.219326 0.103811,0.03931 0.218825,0.03588 0.319956,-0.0097 l 1.1015687,-0.496245 c 0.347225,0.473117 0.779102,0.879314 1.272211,1.19676 l -0.428113,1.129841 c -0.08181,0.215981 0.02693,0.457474 0.242915,0.539282 l 1.096046,0.415231 c 0.04777,0.01807 0.09804,0.0271 0.148142,0.0271 0.05863,0 0.117275,-0.0123 0.171814,-0.03689 0.10113,-0.04559 0.180012,-0.129404 0.219326,-0.233213 l 0.42803,-1.129756 c 0.58027,0.08942 1.173923,0.07102 1.745912,-0.0532 l 0.496119,1.101484 c 0.04559,0.101129 0.129405,0.180011 0.233213,0.219327 0.103719,0.03931 0.218909,0.03588 0.319955,-0.0097 l 1.068611,-0.481314 c 0.210711,-0.09486 0.304564,-0.342457 0.209707,-0.553083 z M 17.199817,15.59423 c -0.415148,1.095796 -1.481081,1.831987 -2.652412,1.831987 -0.342623,0 -0.68048,-0.06223 -1.004201,-0.184864 -0.708335,-0.268344 -1.269784,-0.796501 -1.580873,-1.487187 -0.31109,-0.690602 -0.334594,-1.461089 -0.06625,-2.169425 0.415146,-1.095796 1.481079,-1.831987 2.65241,-1.831987 0.342625,0 0.680482,0.06223 1.004201,0.184864 0.708336,0.268344 1.269785,0.796501 1.580873,1.487103 0.311173,0.690686 0.334678,1.461173 0.06625,2.169509 z m 9.299124,5.711188 c -0.07495,-0.08173 -0.179426,-0.130324 -0.290177,-0.135092 l -0.787802,-0.0338 c -0.07252,-0.371817 -0.203517,-0.730753 -0.387542,-1.062085 l 0.580938,-0.533175 c 0.170225,-0.156171 0.181517,-0.420752 0.02535,-0.590893 l -0.57684,-0.628534 c -0.07495,-0.08173 -0.179427,-0.130323 -0.290261,-0.135091 -0.110584,-0.0041 -0.218992,0.0348 -0.300716,0.109748 l -0.580856,0.533176 c -0.314434,-0.211716 -0.660822,-0.372906 -1.025028,-0.476965 l 0.0338,-0.787802 c 0.0099,-0.230786 -0.16922,-0.425854 -0.400007,-0.435726 l -0.852295,-0.03655 c -0.229615,-0.0087 -0.425854,0.169221 -0.435724,0.399924 l -0.0338,0.787802 c -0.371734,0.07252 -0.73067,0.203517 -1.062085,0.38746 l -0.533175,-0.58094 c -0.07495,-0.08173 -0.179428,-0.130323 -0.290177,-0.135092 -0.110745,-0.0046 -0.218993,0.0348 -0.300718,0.109748 l -0.628535,0.57684 c -0.170224,0.156172 -0.181516,0.420752 -0.02535,0.590894 l 0.533176,0.580939 c -0.211713,0.314435 -0.372905,0.66074 -0.476963,1.02503 l -0.787718,-0.0338 c -0.229783,-0.0093 -0.425939,0.169136 -0.435809,0.399924 l -0.03655,0.852294 c -0.0048,0.110837 0.03472,0.218992 0.109748,0.300717 0.07495,0.08173 0.179426,0.130324 0.290261,0.135092 l 0.787718,0.03372 c 0.07252,0.371817 0.203517,0.730753 0.38746,1.062169 l -0.580855,0.533175 c -0.08173,0.07495 -0.130324,0.179426 -0.135093,0.290177 -0.0048,0.110836 0.03471,0.218991 0.109748,0.300716 l 0.57684,0.628535 c 0.07495,0.08173 0.179426,0.130325 0.290262,0.135093 0.110332,0.0045 0.218991,-0.03479 0.300715,-0.109748 l 0.580856,-0.533174 c 0.314435,0.211714 0.660824,0.372904 1.025029,0.476963 l -0.0338,0.787802 c -0.0099,0.230787 0.169136,0.425855 0.399923,0.435725 l 0.852295,0.03656 c 0.006,2.51e-4 0.01197,3.35e-4 0.0179,3.35e-4 0.104556,0 0.205523,-0.03915 0.282814,-0.11008 0.08173,-0.07495 0.130326,-0.179427 0.135093,-0.290177 l 0.0338,-0.787802 c 0.371735,-0.07252 0.73067,-0.203517 1.062087,-0.38746 l 0.533174,0.580938 c 0.07495,0.08173 0.179427,0.130326 0.290177,0.135093 0.11125,0.0048 0.219076,-0.03479 0.300718,-0.109747 l 0.628535,-0.576842 c 0.170224,-0.156171 0.181517,-0.420752 0.02535,-0.590892 L 24.871657,23.8496 c 0.211714,-0.314434 0.372905,-0.660739 0.476964,-1.025029 l 0.787718,0.0338 c 0.230535,0.0088 0.425854,-0.169137 0.435808,-0.399924 l 0.03655,-0.852295 c 0.0048,-0.110836 -0.03471,-0.218992 -0.109747,-0.300717 z m -4.711169,2.472985 c -1.074381,-0.046 -1.911035,-0.957608 -1.864944,-2.03199 0.04483,-1.046778 0.899974,-1.866785 1.946753,-1.866785 0.02827,0 0.05671,5.79e-4 0.08523,0.0018 1.074382,0.0461 1.911034,0.957607 1.864943,2.03199 -0.0461,1.075134 -0.948825,1.910449 -2.03199,1.864944 z"
       inkscape:connector-curvature="0" /></g></svg>