<?xml version="1.0" encoding="UTF-8" standalone="no"?>
<!-- Generator: Adobe Illustrator 17.1.0, SVG Export Plug-In . SVG Version: 6.00 Build 0)  -->

<svg
   xmlns:dc="http://purl.org/dc/elements/1.1/"
   xmlns:cc="http://creativecommons.org/ns#"
   xmlns:rdf="http://www.w3.org/1999/02/22-rdf-syntax-ns#"
   xmlns:svg="http://www.w3.org/2000/svg"
   xmlns="http://www.w3.org/2000/svg"
   xmlns:sodipodi="http://sodipodi.sourceforge.net/DTD/sodipodi-0.dtd"
   xmlns:inkscape="http://www.inkscape.org/namespaces/inkscape"
   version="1.1"
   id="Capa_1"
   x="0px"
   y="0px"
   viewBox="0 0 34.999999 34.999999"
   xml:space="preserve"
   inkscape:version="0.91 r13725"
   sodipodi:docname="group_settings.svg"
   width="35"
   height="35"
   inkscape:export-filename="C:\eclipse\project\AbcMap2\icons\group_settings.png"
   inkscape:export-xdpi="90"
   inkscape:export-ydpi="90"><metadata
     id="metadata39"><rdf:RDF><cc:Work
         rdf:about=""><dc:format>image/svg+xml</dc:format><dc:type
           rdf:resource="http://purl.org/dc/dcmitype/StillImage" /><dc:title></dc:title></cc:Work></rdf:RDF></metadata><defs
     id="defs37" /><sodipodi:namedview
     pagecolor="#ffffff"
     bordercolor="#666666"
     borderopacity="1"
     objecttolerance="10"
     gridtolerance="10"
     guidetolerance="10"
     inkscape:pageopacity="0"
     inkscape:pageshadow="2"
     inkscape:window-width="1366"
     inkscape:window-height="705"
     id="namedview35"
     showgrid="false"
     inkscape:zoom="12.259452"
     inkscape:cx="21.079563"
     inkscape:cy="15.538"
     inkscape:window-x="-8"
     inkscape:window-y="-8"
     inkscape:window-maximized="1"
     inkscape:current-layer="Capa_1" /><path
     d="m 18.249268,21.446662 -0.946073,-2.100278 c 0.901897,-0.662029 1.676526,-1.485616 2.28178,-2.42563 l 2.154185,0.816252 c 0.411955,0.156138 0.872226,-0.05136 1.0282,-0.463149 l 0.791691,-2.089751 c 0.07491,-0.197764 0.06825,-0.417218 -0.0187,-0.610037 -0.08695,-0.192819 -0.246721,-0.343215 -0.44465,-0.418174 l -2.154186,-0.816252 c 0.1697,-1.105242 0.135249,-2.235044 -0.101624,-3.328643 l 2.100274,-0.9460741 c 0.192822,-0.08692 0.343214,-0.2467251 0.418178,-0.4446479 0.07491,-0.1977635 0.06825,-0.4172169 -0.0187,-0.6100354 L 22.4218,5.9728024 C 22.240946,5.5712144 21.768543,5.3925902 21.367278,5.5732882 L 19.267004,6.519362 C 18.604978,5.617466 17.781381,4.8428401 16.841369,4.2375881 l 0.816257,-2.154184 C 17.8136,1.6716097 17.606312,1.2111724 17.19447,1.0551941 L 15.104885,0.26334471 c -0.197603,-0.0748005 -0.417062,-0.068264 -0.610035,0.0186562 -0.192823,0.0869202 -0.343214,0.24672635 -0.418177,0.44464918 L 13.260578,2.8806747 C 12.154229,2.7100236 11.02251,2.745271 9.9317791,2.9821109 L 8.9858697,0.88199232 C 8.8989244,0.6891733 8.7391359,0.5387768 8.5412193,0.46381818 8.3436164,0.38901764 8.1239949,0.39555422 7.9311849,0.4824744 L 5.8935804,1.4003192 C 5.4919936,1.5811779 5.3132088,2.0532581 5.4940662,2.4548448 L 6.4401425,4.5551227 C 5.538244,5.2171514 4.763618,6.040739 4.1583673,6.9807528 L 2.0041821,6.1645011 C 1.8065791,6.0897005 1.5871245,6.0964002 1.3941462,6.1831573 1.2013272,6.2700775 1.0509319,6.4298824 0.97597329,6.6278052 L 0.184282,8.717397 c -0.15597831,0.4117943 0.0513517,0.8722317 0.46314856,1.02821 L 2.8016145,10.561859 C 2.6319207,11.66694 2.66637,12.797062 2.9032012,13.890503 L 0.802764,14.836576 c -0.19281902,0.08692 -0.34321427,0.246725 -0.41817289,0.444648 -0.0749636,0.197764 -0.068264,0.417217 0.0186562,0.610036 l 0.91784595,2.037442 c 0.086757,0.192819 0.2467252,0.343214 0.4444886,0.418173 0.1979229,0.07496 0.4172169,0.06842 0.6100359,-0.01866 l 2.1002779,-0.946073 c 0.6620287,0.902055 1.4854569,1.676521 2.4256251,2.281773 L 6.085274,21.818101 c -0.1559783,0.411795 0.051351,0.872232 0.463146,1.028211 l 2.0897602,0.79169 c 0.091086,0.03445 0.1869135,0.05168 0.2824405,0.05168 0.1117867,0 0.2235986,-0.02345 0.3275942,-0.07034 0.1928102,-0.08693 0.3432142,-0.246727 0.4181653,-0.44465 l 0.8160938,-2.154024 c 1.106363,0.17049 2.238232,0.135403 3.328799,-0.101437 l 0.945922,2.100119 c 0.08695,0.192819 0.246722,0.343216 0.444651,0.418174 0.197754,0.07496 0.417375,0.06842 0.610035,-0.01866 l 2.037442,-0.917685 c 0.401743,-0.180859 0.580689,-0.652939 0.399823,-1.054526 z m -1.321506,-7.580234 c -0.791528,2.089273 -2.823864,3.492914 -5.057153,3.492914 -0.653257,0 -1.297418,-0.118662 -1.9146409,-0.352466 C 8.6054434,16.495244 7.5349629,15.488245 6.9418406,14.171366 6.3487056,12.854645 6.3038918,11.385614 6.8155252,10.035082 7.6070534,7.945809 9.6393895,6.5421686 11.872679,6.5421686 c 0.653256,0 1.297429,0.118662 1.91464,0.3524657 1.350538,0.5116323 2.421006,1.5186299 3.01414,2.8353502 0.593286,1.3168805 0.638101,2.7859115 0.126303,4.1364435 z M 34.657723,24.755529 C 34.514821,24.59971 34.315625,24.507049 34.10446,24.497958 l -1.502033,-0.06444 c -0.138285,-0.708917 -0.388042,-1.393273 -0.738909,-2.025 l 1.107642,-1.016567 c 0.324545,-0.297761 0.346075,-0.802216 0.0483,-1.126612 l -1.099814,-1.198382 c -0.142902,-0.155818 -0.342098,-0.248479 -0.553426,-0.25757 -0.21084,-0.0078 -0.417525,0.06635 -0.57335,0.209246 l -1.10748,1.016566 c -0.599505,-0.403656 -1.259937,-0.710986 -1.954333,-0.909389 l 0.06436,-1.502042 c 0.01882,-0.440023 -0.322638,-0.811946 -0.762659,-0.830765 l -1.625011,-0.0697 c -0.437787,-0.01659 -0.811941,0.322642 -0.83076,0.762505 l -0.06449,1.502044 c -0.70876,0.138275 -1.393119,0.38803 -2.024997,0.738742 l -1.016569,-1.107633 c -0.142902,-0.15582 -0.342098,-0.248481 -0.553263,-0.257572 -0.211153,-0.0087 -0.417538,0.06635 -0.573349,0.209246 l -1.198377,1.09982 c -0.324558,0.297761 -0.346088,0.802216 -0.0483,1.126612 l 1.01657,1.107634 c -0.403662,0.59951 -0.710994,1.259784 -0.9094,1.954348 l -1.501882,-0.06444 c -0.438114,-0.0177 -0.812104,0.322482 -0.830924,0.762505 l -0.06963,1.625007 c -0.0088,0.21132 0.06625,0.417535 0.209246,0.573355 0.142902,0.155817 0.342098,0.24848 0.553414,0.25757 l 1.501882,0.06427 c 0.138285,0.708917 0.388042,1.393275 0.738746,2.02516 l -1.107479,1.016567 c -0.155812,0.1429 -0.248478,0.342099 -0.257561,0.553259 -0.0088,0.211319 0.06625,0.417536 0.209245,0.573353 l 1.099814,1.198382 c 0.142902,0.15582 0.342098,0.248481 0.553426,0.257572 0.210362,0.0084 0.417525,-0.06634 0.57335,-0.209248 l 1.107467,-1.016566 c 0.59952,0.40366 1.259953,0.710991 1.954349,0.909391 l -0.06436,1.502045 c -0.01882,0.440024 0.322475,0.811946 0.762495,0.830765 l 1.625012,0.0697 c 0.01129,4.79e-4 0.02284,6.39e-4 0.03413,6.39e-4 0.199347,0 0.391856,-0.07464 0.539225,-0.209885 0.155811,-0.142899 0.248477,-0.342098 0.25756,-0.553258 l 0.06449,-1.502044 c 0.70876,-0.138275 1.393119,-0.388031 2.024997,-0.738742 l 1.016569,1.107634 c 0.142902,0.155818 0.342098,0.24848 0.553264,0.257571 0.212118,0.0093 0.417688,-0.06634 0.573349,-0.209247 l 1.198376,-1.099819 c 0.324559,-0.29776 0.346088,-0.802217 0.0483,-1.126613 l -1.01657,-1.107633 c 0.403662,-0.59951 0.710994,-1.259785 0.9094,-1.954348 l 1.501882,0.06444 c 0.439544,0.0169 0.811941,-0.322482 0.830924,-0.762505 l 0.06963,-1.625009 c 0.0088,-0.211319 -0.06625,-0.417535 -0.209246,-0.573352 z m -8.982438,4.715059 c -2.048446,-0.08771 -3.643635,-1.825801 -3.555748,-3.874247 0.08544,-1.995814 1.715908,-3.559259 3.711722,-3.559259 0.05395,0 0.108148,0.0011 0.162524,0.0035 2.048446,0.08787 3.643622,1.825802 3.555748,3.874247 -0.08782,2.04988 -1.809052,3.642512 -3.874246,3.555751 z"
     id="path3"
     inkscape:connector-curvature="0"
     style="fill:#1a1a1a" /><g
     id="g5"
     transform="translate(0,-182.79401)" /><g
     id="g7"
     transform="translate(0,-182.79401)" /><g
     id="g9"
     transform="translate(0,-182.79401)" /><g
     id="g11"
     transform="translate(0,-182.79401)" /><g
     id="g13"
     transform="translate(0,-182.79401)" /><g
     id="g15"
     transform="translate(0,-182.79401)" /><g
     id="g17"
     transform="translate(0,-182.79401)" /><g
     id="g19"
     transform="translate(0,-182.79401)" /><g
     id="g21"
     transform="translate(0,-182.79401)" /><g
     id="g23"
     transform="translate(0,-182.79401)" /><g
     id="g25"
     transform="translate(0,-182.79401)" /><g
     id="g27"
     transform="translate(0,-182.79401)" /><g
     id="g29"
     transform="translate(0,-182.79401)" /><g
     id="g31"
     transform="translate(0,-182.79401)" /><g
     id="g33"
     transform="translate(0,-182.79401)" /></svg>