<?xml version="1.0" encoding="UTF-8" standalone="no"?>
<!-- Generator: Adobe Illustrator 16.0.0, SVG Export Plug-In . SVG Version: 6.00 Build 0)  -->

<svg
   xmlns:dc="http://purl.org/dc/elements/1.1/"
   xmlns:cc="http://creativecommons.org/ns#"
   xmlns:rdf="http://www.w3.org/1999/02/22-rdf-syntax-ns#"
   xmlns:svg="http://www.w3.org/2000/svg"
   xmlns="http://www.w3.org/2000/svg"
   xmlns:sodipodi="http://sodipodi.sourceforge.net/DTD/sodipodi-0.dtd"
   xmlns:inkscape="http://www.inkscape.org/namespaces/inkscape"
   version="1.1"
   id="Capa_1"
   x="0px"
   y="0px"
   width="35"
   height="35"
   viewBox="0 0 35 35"
   xml:space="preserve"
   inkscape:version="0.91 r13725"
   sodipodi:docname="group_color_palette.svg"
   inkscape:export-filename="C:\projects\AbcMap2\icons\groups\group_color_palette.png"
   inkscape:export-xdpi="90"
   inkscape:export-ydpi="90"><metadata
     id="metadata42"><rdf:RDF><cc:Work
         rdf:about=""><dc:format>image/svg+xml</dc:format><dc:type
           rdf:resource="http://purl.org/dc/dcmitype/StillImage" /><dc:title /></cc:Work></rdf:RDF></metadata><defs
     id="defs40" /><sodipodi:namedview
     pagecolor="#ffffff"
     bordercolor="#666666"
     borderopacity="1"
     objecttolerance="10"
     gridtolerance="10"
     guidetolerance="10"
     inkscape:pageopacity="0"
     inkscape:pageshadow="2"
     inkscape:window-width="1366"
     inkscape:window-height="705"
     id="namedview38"
     showgrid="false"
     inkscape:zoom="11.63414"
     inkscape:cx="1.5436636"
     inkscape:cy="13.70018"
     inkscape:window-x="-8"
     inkscape:window-y="-8"
     inkscape:window-maximized="1"
     inkscape:current-layer="Capa_1" /><g
     id="g3"
     transform="matrix(0.07524305,0,0,0.07524305,0.23172002,0.23172003)"
     style="fill:#1a1a1a"><g
       id="palette"
       style="fill:#1a1a1a"><path
         d="M 229.5,0 C 102,0 0,102 0,229.5 0,357 102,459 229.5,459 c 20.4,0 38.25,-17.85 38.25,-38.25 0,-10.2 -2.55,-17.85 -10.2,-25.5 -5.1,-7.65 -10.2,-15.3 -10.2,-25.5 0,-20.4 17.851,-38.25 38.25,-38.25 l 45.9,0 C 402.9,331.5 459,275.4 459,204 459,91.8 357,0 229.5,0 Z M 89.25,229.5 C 68.85,229.5 51,211.65 51,191.25 51,170.85 68.85,153 89.25,153 c 20.4,0 38.25,17.85 38.25,38.25 0,20.4 -17.85,38.25 -38.25,38.25 z m 76.5,-102 c -20.4,0 -38.25,-17.85 -38.25,-38.25 0,-20.4 17.85,-38.25 38.25,-38.25 20.4,0 38.25,17.85 38.25,38.25 0,20.4 -17.85,38.25 -38.25,38.25 z m 127.5,0 C 272.85,127.5 255,109.65 255,89.25 255,68.85 272.85,51 293.25,51 c 20.4,0 38.25,17.85 38.25,38.25 0,20.4 -17.85,38.25 -38.25,38.25 z m 76.5,102 c -20.4,0 -38.25,-17.85 -38.25,-38.25 0,-20.4 17.85,-38.25 38.25,-38.25 20.4,0 38.25,17.85 38.25,38.25 0,20.4 -17.85,38.25 -38.25,38.25 z"
         id="path6"
         inkscape:connector-curvature="0"
         style="fill:#1a1a1a" /></g></g><g
     id="g8"
     transform="translate(0,-424)" /><g
     id="g10"
     transform="translate(0,-424)" /><g
     id="g12"
     transform="translate(0,-424)" /><g
     id="g14"
     transform="translate(0,-424)" /><g
     id="g16"
     transform="translate(0,-424)" /><g
     id="g18"
     transform="translate(0,-424)" /><g
     id="g20"
     transform="translate(0,-424)" /><g
     id="g22"
     transform="translate(0,-424)" /><g
     id="g24"
     transform="translate(0,-424)" /><g
     id="g26"
     transform="translate(0,-424)" /><g
     id="g28"
     transform="translate(0,-424)" /><g
     id="g30"
     transform="translate(0,-424)" /><g
     id="g32"
     transform="translate(0,-424)" /><g
     id="g34"
     transform="translate(0,-424)" /><g
     id="g36"
     transform="translate(0,-424)" /></svg>