<?xml version="1.0" encoding="UTF-8" standalone="no"?>
<!-- Generator: Adobe Illustrator 18.0.0, SVG Export Plug-In . SVG Version: 6.00 Build 0)  -->

<svg
   xmlns:dc="http://purl.org/dc/elements/1.1/"
   xmlns:cc="http://creativecommons.org/ns#"
   xmlns:rdf="http://www.w3.org/1999/02/22-rdf-syntax-ns#"
   xmlns:svg="http://www.w3.org/2000/svg"
   xmlns="http://www.w3.org/2000/svg"
   xmlns:sodipodi="http://sodipodi.sourceforge.net/DTD/sodipodi-0.dtd"
   xmlns:inkscape="http://www.inkscape.org/namespaces/inkscape"
   version="1.1"
   id="Capa_1"
   x="0px"
   y="0px"
   viewBox="0 0 35 35"
   xml:space="preserve"
   inkscape:version="0.91 r13725"
   sodipodi:docname="group_layout.svg"
   width="35"
   height="35"
   inkscape:export-filename="C:\projects\AbcMap2\icons\groups\group_layout.png"
   inkscape:export-xdpi="90"
   inkscape:export-ydpi="90"><metadata
     id="metadata45"><rdf:RDF><cc:Work
         rdf:about=""><dc:format>image/svg+xml</dc:format><dc:type
           rdf:resource="http://purl.org/dc/dcmitype/StillImage" /><dc:title /></cc:Work></rdf:RDF></metadata><defs
     id="defs43" /><sodipodi:namedview
     pagecolor="#ffffff"
     bordercolor="#666666"
     borderopacity="1"
     objecttolerance="10"
     gridtolerance="10"
     guidetolerance="10"
     inkscape:pageopacity="0"
     inkscape:pageshadow="2"
     inkscape:window-width="1366"
     inkscape:window-height="705"
     id="namedview41"
     showgrid="false"
     inkscape:zoom="8.2326958"
     inkscape:cx="-13.934857"
     inkscape:cy="9.7300377"
     inkscape:window-x="-8"
     inkscape:window-y="-8"
     inkscape:window-maximized="1"
     inkscape:current-layer="Capa_1" /><g
     id="g4754"><path
       style="fill:#1a1a1a"
       d="m 32.439993,0.27884725 -23.5269905,0 c -1.2069802,0 -2.1864267,0.97899595 -2.1864267,2.18702745 l 0,2.0608701 2.2950873,0 0,-1.9528103 23.3096699,0 0,23.3091445 -1.762749,0 0,2.295087 1.871484,0 c 1.206906,0 2.186352,-0.978846 2.186352,-2.186878 l 0,-23.5254133 c 0,-1.2080315 -0.979446,-2.18702745 -2.186427,-2.18702745 z"
       id="path5"
       inkscape:connector-curvature="0" /><path
       style="fill:#1a1a1a"
       d="m 26.086995,6.8218321 -23.5271405,0 c -1.2068301,0 -2.18627655,0.9788457 -2.18627655,2.1870274 l 0,23.5252635 c 0,1.208182 0.97944645,2.187028 2.18627655,2.187028 l 23.5271405,0 c 1.206981,0 2.186427,-0.978846 2.186427,-2.187028 l 0,-23.5252635 c 0,-1.2081817 -0.979446,-2.1870274 -2.186427,-2.1870274 z m -0.10866,25.6042309 -23.3096698,0 0,-23.3090686 23.3095948,0 0,23.3090686 z"
       id="path7"
       inkscape:connector-curvature="0" /></g><path
     inkscape:connector-curvature="0"
     id="path9"
     d="m 4.4459817,31.020761 5.3095716,0.0017 c 0.154768,0 0.2948177,-0.09357 0.3541417,-0.23647 0.05947,-0.142828 0.02591,-0.307659 -0.08283,-0.417521 L 8.184444,28.525699 22.04921,14.58629 l 1.841296,1.841822 c 0.109787,0.109261 0.274543,0.142303 0.41692,0.08283 0.143429,-0.05932 0.236545,-0.198923 0.236545,-0.35354 l 0.0011,-5.308446 c 0,-0.211238 -0.171438,-0.382677 -0.383203,-0.382677 l -5.30852,-0.0017 c -0.154768,0 -0.294817,0.09349 -0.354141,0.23647 -0.05948,0.142828 -0.02688,0.307583 0.0829,0.41737 L 20.426586,12.963592 6.5617453,26.90285 4.7171448,25.058851 c -0.109862,-0.109262 -0.273491,-0.142378 -0.416995,-0.0829 -0.1434289,0.0594 -0.2363197,0.198923 -0.2363197,0.353541 l 0,5.30852 c 7.51e-5,0.211314 0.1715139,0.382753 0.3821516,0.382753 z"
     style="fill:#1a1a1a" /><g
     id="g11"
     transform="translate(0,-423.659)" /><g
     id="g13"
     transform="translate(0,-423.659)" /><g
     id="g15"
     transform="translate(0,-423.659)" /><g
     id="g17"
     transform="translate(0,-423.659)" /><g
     id="g19"
     transform="translate(0,-423.659)" /><g
     id="g21"
     transform="translate(0,-423.659)" /><g
     id="g23"
     transform="translate(0,-423.659)" /><g
     id="g25"
     transform="translate(0,-423.659)" /><g
     id="g27"
     transform="translate(0,-423.659)" /><g
     id="g29"
     transform="translate(0,-423.659)" /><g
     id="g31"
     transform="translate(0,-423.659)" /><g
     id="g33"
     transform="translate(0,-423.659)" /><g
     id="g35"
     transform="translate(0,-423.659)" /><g
     id="g37"
     transform="translate(0,-423.659)" /><g
     id="g39"
     transform="translate(0,-423.659)" /></svg>