<?xml version="1.0" encoding="UTF-8" standalone="no"?>
<!-- Generator: Adobe Illustrator 17.1.0, SVG Export Plug-In . SVG Version: 6.00 Build 0)  -->

<svg
   xmlns:dc="http://purl.org/dc/elements/1.1/"
   xmlns:cc="http://creativecommons.org/ns#"
   xmlns:rdf="http://www.w3.org/1999/02/22-rdf-syntax-ns#"
   xmlns:svg="http://www.w3.org/2000/svg"
   xmlns="http://www.w3.org/2000/svg"
   xmlns:sodipodi="http://sodipodi.sourceforge.net/DTD/sodipodi-0.dtd"
   xmlns:inkscape="http://www.inkscape.org/namespaces/inkscape"
   version="1.1"
   id="Capa_1"
   x="0px"
   y="0px"
   viewBox="0 0 35.000001 35.000001"
   xml:space="preserve"
   inkscape:version="0.91 r13725"
   sodipodi:docname="group_draw.svg"
   width="35"
   height="35"
   inkscape:export-filename="C:\projects\AbcMap2\icons\groups\group_draw.png"
   inkscape:export-xdpi="90"
   inkscape:export-ydpi="90"><metadata
     id="metadata39"><rdf:RDF><cc:Work
         rdf:about=""><dc:format>image/svg+xml</dc:format><dc:type
           rdf:resource="http://purl.org/dc/dcmitype/StillImage" /><dc:title /></cc:Work></rdf:RDF></metadata><defs
     id="defs37" /><sodipodi:namedview
     pagecolor="#ffffff"
     bordercolor="#666666"
     borderopacity="1"
     objecttolerance="10"
     gridtolerance="10"
     guidetolerance="10"
     inkscape:pageopacity="0"
     inkscape:pageshadow="2"
     inkscape:window-width="1366"
     inkscape:window-height="705"
     id="namedview35"
     showgrid="false"
     inkscape:zoom="8.7964108"
     inkscape:cx="17.461472"
     inkscape:cy="11.4277"
     inkscape:window-x="-8"
     inkscape:window-y="-8"
     inkscape:window-maximized="1"
     inkscape:current-layer="Capa_1" /><path
     d="m 22.307862,19.234683 4.533946,-5.396473 c 1.071008,-0.0041 3.1178,-0.291842 4.967648,-2.14169 3.754456,-3.7542942 0.696455,-10.85014325 0.564509,-11.15043525 -0.148034,-0.336528 -0.503899,-0.531522 -0.867238,-0.474974 -0.363503,0.0559 -0.644295,0.349853 -0.684268,0.715467 -0.0031,0.02779 -0.325316,2.79053405 -2.03688,2.96895405 -0.208482,0.02161 -0.405751,0.03217 -0.603183,0.03217 -0.494311,0 -0.879101,-0.06744 -1.251215,-0.132596 -0.329216,-0.05752 -0.640394,-0.11196 -0.98066,-0.11196 -0.752354,0 -1.437759,0.28388 -2.22245,0.920699 -1.611467,1.307763 -1.820111,3.57035 -1.825148,4.606095 L 16.599235,13.526052 10.786774,7.7135908 c -0.0028,-0.0028 -0.0062,-0.0047 -0.0091,-0.0075 -0.03152,-0.03055 -0.06581,-0.0585 -0.10221,-0.08385 -0.0067,-0.0047 -0.013,-0.0098 -0.01982,-0.01414 -0.0312,-0.02031 -0.06337,-0.03916 -0.0975,-0.05525 L 4.797519,4.8409598 2.485697,3.7525658 c -0.310367,-0.146408 -0.678744,-0.0819 -0.920862,0.160708 -0.0273,0.02746 -0.05167,0.05687 -0.07442,0.08726 -0.0024,0.0031 -0.0054,0.0059 -0.0078,0.0091 -0.01446,0.01982 -0.02584,0.04127 -0.03835,0.06224 -0.0088,0.01479 -0.01917,0.02876 -0.02714,0.04404 -0.0076,0.01495 -0.01267,0.03071 -0.0195,0.04599 -0.0099,0.02242 -0.0208,0.04452 -0.02844,0.0676 -0.0044,0.013 -0.0065,0.02665 -0.01008,0.03997 -0.0073,0.02616 -0.01527,0.05216 -0.01999,0.07897 -0.0024,0.01398 -0.0024,0.02811 -0.0041,0.04225 -0.0032,0.02665 -0.0072,0.05314 -0.0078,0.07995 -3.25e-4,0.013 0.0018,0.026 0.0021,0.039 8.13e-4,0.02811 9.75e-4,0.05606 0.0046,0.08417 0.0016,0.01202 0.0054,0.02389 0.0075,0.03591 0.005,0.02876 0.0098,0.05769 0.0182,0.08596 0.0039,0.01349 0.0104,0.02632 0.01495,0.03965 0.0093,0.02632 0.01771,0.05297 0.02974,0.07865 l 3.800443,8.0726092 c 0.0156,0.03299 0.03364,0.06435 0.05314,0.09474 0.0041,0.0062 0.0088,0.01186 0.01284,0.01804 0.02632,0.03835 0.05557,0.07442 0.08775,0.107409 0.0026,0.0026 0.0042,0.0057 0.0067,0.0083 l 6.404594,6.404594 c -2.31881,2.442794 -4.709767,5.177917 -6.558152,7.518176 -1.244715,1.576043 -2.183451,2.890143 -2.789721,3.906064 -0.671107,1.124144 -1.196617,2.259986 -0.504386,2.952379 0.148358,0.148196 0.413713,0.324991 0.835876,0.324991 2.092291,0 9.006146,-5.882984 13.539118,-10.178712 L 26.93036,34.70053 c 0.158758,0.158758 0.36659,0.238056 0.574584,0.238056 0.207994,0 0.415826,-0.0793 0.574584,-0.238056 L 29.641117,33.138927 8.076026,11.573186 9.225031,10.424181 30.790447,31.989435 32.35219,30.427691 c 0.317354,-0.317191 0.317354,-0.831651 0,-1.148842 L 22.307862,19.234683 Z M 6.18263,11.168735 4.760307,8.1472948 5.798978,7.1086248 8.820418,8.5309468 6.18263,11.168735 Z m 11.569835,3.510389 4.8734,-4.09456 2.623326,2.623326 -4.094559,4.8734 -3.402167,-3.402166 z"
     id="path3"
     style="fill:#1a1a1a"
     inkscape:connector-curvature="0" /><g
     id="g5"
     transform="translate(0,-179.633)" /><g
     id="g7"
     transform="translate(0,-179.633)" /><g
     id="g9"
     transform="translate(0,-179.633)" /><g
     id="g11"
     transform="translate(0,-179.633)" /><g
     id="g13"
     transform="translate(0,-179.633)" /><g
     id="g15"
     transform="translate(0,-179.633)" /><g
     id="g17"
     transform="translate(0,-179.633)" /><g
     id="g19"
     transform="translate(0,-179.633)" /><g
     id="g21"
     transform="translate(0,-179.633)" /><g
     id="g23"
     transform="translate(0,-179.633)" /><g
     id="g25"
     transform="translate(0,-179.633)" /><g
     id="g27"
     transform="translate(0,-179.633)" /><g
     id="g29"
     transform="translate(0,-179.633)" /><g
     id="g31"
     transform="translate(0,-179.633)" /><g
     id="g33"
     transform="translate(0,-179.633)" /></svg>