<?xml version="1.0" encoding="UTF-8" standalone="no"?>
<!-- Generator: Adobe Illustrator 18.1.1, SVG Export Plug-In . SVG Version: 6.00 Build 0)  -->

<svg
   xmlns:dc="http://purl.org/dc/elements/1.1/"
   xmlns:cc="http://creativecommons.org/ns#"
   xmlns:rdf="http://www.w3.org/1999/02/22-rdf-syntax-ns#"
   xmlns:svg="http://www.w3.org/2000/svg"
   xmlns="http://www.w3.org/2000/svg"
   xmlns:sodipodi="http://sodipodi.sourceforge.net/DTD/sodipodi-0.dtd"
   xmlns:inkscape="http://www.inkscape.org/namespaces/inkscape"
   version="1.1"
   id="Capa_1"
   x="0px"
   y="0px"
   viewBox="0 0 34.999998 34.999998"
   xml:space="preserve"
   inkscape:version="0.91 r13725"
   sodipodi:docname="group_import.svg"
   width="35"
   height="35"
   inkscape:export-filename="C:\eclipse\project\AbcMap2\icons\group_import.png"
   inkscape:export-xdpi="90"
   inkscape:export-ydpi="90"><metadata
     id="metadata40"><rdf:RDF><cc:Work
         rdf:about=""><dc:format>image/svg+xml</dc:format><dc:type
           rdf:resource="http://purl.org/dc/dcmitype/StillImage" /><dc:title></dc:title></cc:Work></rdf:RDF></metadata><defs
     id="defs38" /><sodipodi:namedview
     pagecolor="#ffffff"
     bordercolor="#666666"
     borderopacity="1"
     objecttolerance="10"
     gridtolerance="10"
     guidetolerance="10"
     inkscape:pageopacity="0"
     inkscape:pageshadow="2"
     inkscape:window-width="1366"
     inkscape:window-height="705"
     id="namedview36"
     showgrid="false"
     inkscape:zoom="4.9725768"
     inkscape:cx="44.599611"
     inkscape:cy="5.8795328"
     inkscape:window-x="-8"
     inkscape:window-y="-8"
     inkscape:window-maximized="1"
     inkscape:current-layer="Capa_1" /><g
     id="g6"
     transform="translate(0,-233.47601)" /><g
     id="g8"
     transform="translate(0,-233.47601)" /><g
     id="g10"
     transform="translate(0,-233.47601)" /><g
     id="g12"
     transform="translate(0,-233.47601)" /><g
     id="g14"
     transform="translate(0,-233.47601)" /><g
     id="g16"
     transform="translate(0,-233.47601)" /><g
     id="g18"
     transform="translate(0,-233.47601)" /><g
     id="g20"
     transform="translate(0,-233.47601)" /><g
     id="g22"
     transform="translate(0,-233.47601)" /><g
     id="g24"
     transform="translate(0,-233.47601)" /><g
     id="g26"
     transform="translate(0,-233.47601)" /><g
     id="g28"
     transform="translate(0,-233.47601)" /><g
     id="g30"
     transform="translate(0,-233.47601)" /><g
     id="g32"
     transform="translate(0,-233.47601)" /><g
     id="g34"
     transform="translate(0,-233.47601)" /><g
     id="g4751"
     transform="matrix(0.95488296,0,0,0.95488296,-1.8378285,0.78954803)"><path
       inkscape:connector-curvature="0"
       id="path3"
       d="m 16.896347,3.0257206 c -7.9939078,0 -14.4742789,6.4802972 -14.4742789,14.4742784 0,7.993979 6.4803711,14.474277 14.4742789,14.474277 0.388363,0 0.77206,-0.01916 1.15271,-0.04918 l 0,-28.8489981 c -0.38065,-0.030019 -0.764347,-0.050378 -1.15271,-0.050378 z m -1.181502,2.6676716 0,4.8759378 c -1.267284,-0.055 -2.532377,-0.198655 -3.789196,-0.430618 0.934666,-2.2491592 2.275475,-3.8775533 3.789196,-4.4453198 z M 11.294712,6.4166866 C 11.035434,6.7757997 10.786253,7.160973 10.551025,7.5741967 10.191692,8.2053512 9.8711779,8.8844637 9.5902333,9.6025392 8.9916615,9.4377543 8.3961543,9.2527839 7.8041907,9.0471741 8.7989873,7.9777815 9.9800773,7.0839156 11.294712,6.4166866 Z M 6.3048225,11.020339 c 0.8490182,0.318662 1.7047674,0.596974 2.5669159,0.837247 -0.3548073,1.405419 -0.5746204,2.909192 -0.6489252,4.460912 l -3.6908417,0 c 0.182891,-1.927385 0.8084174,-3.727656 1.772851,-5.298159 z m 4.8735405,1.384215 c 1.503409,0.294758 3.018684,0.473056 4.536482,0.533774 l 0,3.38017 -5.124233,0 c 0.07475,-1.379886 0.278974,-2.699957 0.587751,-3.913944 z m -6.6463915,6.278145 3.6908417,0 c 0.07441,1.551723 0.2941179,3.054294 0.6489252,4.459713 C 8.0095899,23.382685 7.1538407,23.6622 6.3048225,23.980857 5.3403152,22.410284 4.7147888,20.610083 4.5319715,18.682699 Z m 6.0586405,0 5.124233,0 0,3.378971 c -1.517798,0.06072 -3.033011,0.239093 -4.536482,0.533773 -0.308777,-1.213987 -0.513004,-2.532861 -0.587751,-3.912744 z m 5.124233,5.749168 0,4.875938 c -1.513721,-0.567687 -2.85453,-2.197358 -3.789196,-4.446519 1.256739,-0.231959 2.521912,-0.374417 3.789196,-0.429419 z m -6.1246117,0.965591 c 0.2810244,0.718075 0.6014587,1.397186 0.9607917,2.028343 0.235167,0.413147 0.484409,0.799597 0.743687,1.158709 -1.3146347,-0.667305 -2.4957247,-1.562294 -3.4905213,-2.631687 0.5919636,-0.20561 1.1875507,-0.390727 1.7860426,-0.555365 z"
       style="fill:#1a1a1a" /><path
       inkscape:connector-curvature="0"
       id="path4-1"
       d="m 24.901488,3.0345265 c -1.736698,0 -3.144706,1.4080083 -3.144706,3.1447068 l 0,14.9566637 -2.569404,-2.576589 0,9.040209 3.414697,3.424276 c 0.567,0.567983 1.295637,0.863996 2.037205,0.914736 0.08799,0.0075 0.172394,0.02694 0.262208,0.02694 0.08897,0 0.172213,-0.01917 0.259216,-0.02634 0.742693,-0.05018 1.472496,-0.34665 2.040198,-0.915336 l 9.945966,-9.974706 c 1.245458,-1.247426 1.245458,-3.269985 0,-4.51741 -1.245317,-1.247567 -3.264769,-1.247567 -4.510227,0 l -4.590446,4.604214 0,-14.9566637 c 0,-1.7366984 -1.407728,-3.1447068 -3.144707,-3.1447068 z"
       style="clip-rule:evenodd;fill:#1a1a1a;fill-rule:evenodd" /></g><path
     id="path4743"
     d="m 158.56797,57.75114 c -5.66607,0 -10.25977,4.5937 -10.25977,10.259766 l 0,48.796874 -14.97852,-15.02148 c -4.06291,-4.070253 -10.64998,-4.070253 -14.71289,0 -4.06291,4.06979 -4.06291,10.66849 0,14.73828 l 32.44922,32.54297 c 1.84987,1.85307 4.22708,2.81883 6.64649,2.98437 0.28706,0.0243 0.56244,0.0879 0.85547,0.0879 0.29027,0 0.56184,-0.0626 0.8457,-0.0859 2.42307,-0.16371 4.80409,-1.13096 6.65625,-2.98632 l 32.44922,-32.54297 c 4.06337,-4.06979 4.06337,-10.66849 0,-14.73828 -4.06292,-4.070253 -10.65148,-4.070253 -14.71485,0 l -14.97656,15.02148 0,-48.796874 c 0,-5.666066 -4.59278,-10.259766 -10.25976,-10.259766 z"
     style="clip-rule:evenodd;fill-rule:evenodd"
     inkscape:connector-curvature="0" /></svg>