<?xml version="1.0" encoding="UTF-8" standalone="no"?>
<!-- Generator: Adobe Illustrator 18.0.0, SVG Export Plug-In . SVG Version: 6.00 Build 0)  -->

<svg
   xmlns:dc="http://purl.org/dc/elements/1.1/"
   xmlns:cc="http://creativecommons.org/ns#"
   xmlns:rdf="http://www.w3.org/1999/02/22-rdf-syntax-ns#"
   xmlns:svg="http://www.w3.org/2000/svg"
   xmlns="http://www.w3.org/2000/svg"
   xmlns:sodipodi="http://sodipodi.sourceforge.net/DTD/sodipodi-0.dtd"
   xmlns:inkscape="http://www.inkscape.org/namespaces/inkscape"
   version="1.1"
   id="Capa_1"
   x="0px"
   y="0px"
   viewBox="0 0 35.000001 35.000001"
   xml:space="preserve"
   inkscape:version="0.91 r13725"
   sodipodi:docname="menu_export.svg"
   width="35"
   height="35"
   inkscape:export-filename="C:\eclipse\project\DockIHM\icons\menu_export.png"
   inkscape:export-xdpi="90"
   inkscape:export-ydpi="90"><metadata
     id="metadata47"><rdf:RDF><cc:Work
         rdf:about=""><dc:format>image/svg+xml</dc:format><dc:type
           rdf:resource="http://purl.org/dc/dcmitype/StillImage" /><dc:title></dc:title></cc:Work></rdf:RDF></metadata><defs
     id="defs45" /><sodipodi:namedview
     pagecolor="#ffffff"
     bordercolor="#666666"
     borderopacity="1"
     objecttolerance="10"
     gridtolerance="10"
     guidetolerance="10"
     inkscape:pageopacity="0"
     inkscape:pageshadow="2"
     inkscape:window-width="1366"
     inkscape:window-height="705"
     id="namedview43"
     showgrid="false"
     inkscape:zoom="11.611272"
     inkscape:cx="23.233422"
     inkscape:cy="16.647541"
     inkscape:window-x="-8"
     inkscape:window-y="-8"
     inkscape:window-maximized="1"
     inkscape:current-layer="Capa_1" /><g
     id="g3"
     style="fill:#1a1a1a"
     transform="matrix(0.075381,0,0,0.075381,0.16598829,0.16596944)"><g
       id="g5"
       style="fill:#1a1a1a"><path
         d="m 123.465,168.28 46.543,0 0,138.07 c 0,14.008 11.358,25.352 25.352,25.352 l 69.2,0 c 13.993,0 25.352,-11.343 25.352,-25.352 l 0,-138.07 46.527,0 c 7.708,0 14.637,-4.641 17.601,-11.764 2.933,-7.094 1.301,-15.295 -4.145,-20.741 L 243.413,29.28 c -7.437,-7.422 -19.485,-7.422 -26.938,0 L 110.011,135.775 c -5.447,5.446 -7.079,13.633 -4.13,20.741 2.962,7.109 9.876,11.764 17.584,11.764 z"
         id="path7"
         style="fill:#1a1a1a"
         inkscape:connector-curvature="0" /></g><g
       id="g9"
       style="fill:#1a1a1a"><path
         d="m 437.036,220.029 c -12.617,0 -22.852,10.237 -22.852,22.867 l 0,95.615 c 0,28.643 -23.317,51.944 -51.961,51.944 l -264.544,0 c -28.644,0 -51.945,-23.301 -51.945,-51.944 l 0,-95.615 c 0,-12.63 -10.251,-22.867 -22.867,-22.867 C 10.236,220.029 0,230.266 0,242.897 l 0,95.615 c 0,53.859 43.818,97.679 97.679,97.679 l 264.544,0 c 53.861,0 97.681,-43.819 97.681,-97.679 l 0,-95.615 c 0,-12.631 -10.237,-22.868 -22.868,-22.868 z"
         id="path11"
         style="fill:#1a1a1a"
         inkscape:connector-curvature="0" /></g></g><g
     id="g13"
     transform="translate(0,-424.90399)" /><g
     id="g15"
     transform="translate(0,-424.90399)" /><g
     id="g17"
     transform="translate(0,-424.90399)" /><g
     id="g19"
     transform="translate(0,-424.90399)" /><g
     id="g21"
     transform="translate(0,-424.90399)" /><g
     id="g23"
     transform="translate(0,-424.90399)" /><g
     id="g25"
     transform="translate(0,-424.90399)" /><g
     id="g27"
     transform="translate(0,-424.90399)" /><g
     id="g29"
     transform="translate(0,-424.90399)" /><g
     id="g31"
     transform="translate(0,-424.90399)" /><g
     id="g33"
     transform="translate(0,-424.90399)" /><g
     id="g35"
     transform="translate(0,-424.90399)" /><g
     id="g37"
     transform="translate(0,-424.90399)" /><g
     id="g39"
     transform="translate(0,-424.90399)" /><g
     id="g41"
     transform="translate(0,-424.90399)" /></svg>