<?xml version="1.0" encoding="UTF-8" standalone="no"?>
<!-- Generator: Adobe Illustrator 16.0.0, SVG Export Plug-In . SVG Version: 6.00 Build 0)  -->

<svg
   xmlns:dc="http://purl.org/dc/elements/1.1/"
   xmlns:cc="http://creativecommons.org/ns#"
   xmlns:rdf="http://www.w3.org/1999/02/22-rdf-syntax-ns#"
   xmlns:svg="http://www.w3.org/2000/svg"
   xmlns="http://www.w3.org/2000/svg"
   xmlns:sodipodi="http://sodipodi.sourceforge.net/DTD/sodipodi-0.dtd"
   xmlns:inkscape="http://www.inkscape.org/namespaces/inkscape"
   version="1.1"
   id="Capa_1"
   x="0px"
   y="0px"
   width="35"
   height="35"
   viewBox="0 0 35 35"
   xml:space="preserve"
   inkscape:version="0.91 r13725"
   sodipodi:docname="group_project.svg"
   inkscape:export-filename="C:\projects\AbcMap2\icons\groups\group_project.png"
   inkscape:export-xdpi="90"
   inkscape:export-ydpi="90"><metadata
     id="metadata41"><rdf:RDF><cc:Work
         rdf:about=""><dc:format>image/svg+xml</dc:format><dc:type
           rdf:resource="http://purl.org/dc/dcmitype/StillImage" /><dc:title /></cc:Work></rdf:RDF></metadata><defs
     id="defs39" /><sodipodi:namedview
     pagecolor="#ffffff"
     bordercolor="#666666"
     borderopacity="1"
     objecttolerance="10"
     gridtolerance="10"
     guidetolerance="10"
     inkscape:pageopacity="0"
     inkscape:pageshadow="2"
     inkscape:window-width="1366"
     inkscape:window-height="705"
     id="namedview37"
     showgrid="false"
     inkscape:zoom="11.347704"
     inkscape:cx="15.057773"
     inkscape:cy="17.185776"
     inkscape:window-x="-8"
     inkscape:window-y="-8"
     inkscape:window-maximized="1"
     inkscape:current-layer="Capa_1" /><path
     style="fill:#1a1a1a"
     inkscape:connector-curvature="0"
     id="path5"
     d="m 24.243277,0.2140526 -17.4001495,0 c -1.168326,0 -2.119708,0.9520428 -2.119708,2.1201488 l 0,30.3313026 c 0,1.169869 0.951382,2.120443 2.119708,2.120443 l 21.3135975,0 c 1.169355,0 2.119855,-0.950574 2.119855,-2.120443 l 0,-25.8958056 -6.033303,-6.5556458 z m 0.500302,3.1725458 2.644474,2.874055 -2.644474,0 0,-2.874055 z m 3.752705,29.2789786 c 0,0.18675 -0.152882,0.340073 -0.340514,0.340073 l -21.3126425,0 c -0.187338,0 -0.339339,-0.153323 -0.339339,-0.340073 l 0,-30.3313756 c 0,-0.187191 0.152001,-0.338898 0.339339,-0.338898 l 16.1191995,0 0,5.155902 c 0,0.490899 0.399874,0.888863 0.891067,0.888863 l 4.64289,0 0,24.6255086 z M 9.6443775,9.6830574 l 15.1182285,0 c 0.368284,0 0.666996,0.298711 0.666996,0.6669956 0,0.368284 -0.298712,0.666996 -0.666996,0.666996 l -15.1182285,0 c -0.36821,0 -0.666996,-0.298712 -0.666996,-0.666996 0,-0.3682106 0.298786,-0.6669956 0.666996,-0.6669956 z M 25.429602,14.832273 c 0,0.368211 -0.298712,0.666996 -0.666996,0.666996 l -15.1182285,0 c -0.36821,0 -0.666996,-0.298712 -0.666996,-0.666996 0,-0.368284 0.298786,-0.666995 0.666996,-0.666995 l 15.1182285,0 c 0.368284,0 0.666996,0.298785 0.666996,0.666995 z m 0,4.335436 c 0,0.368284 -0.298712,0.666996 -0.666996,0.666996 l -15.1182285,0 c -0.36821,0 -0.666996,-0.298712 -0.666996,-0.666996 0,-0.368283 0.298786,-0.666995 0.666996,-0.666995 l 15.1182285,0 c 0.368284,0 0.666996,0.298712 0.666996,0.666995 z m 0,4.40927 c 0,0.368284 -0.298712,0.666995 -0.666996,0.666995 l -15.1182285,0 c -0.36821,0 -0.666996,-0.298711 -0.666996,-0.666995 0,-0.368284 0.298786,-0.666996 0.666996,-0.666996 l 15.1182285,0 c 0.368284,0 0.666996,0.298712 0.666996,0.666996 z" /><g
     id="g7"
     transform="translate(0,-435.586)" /><g
     id="g9"
     transform="translate(0,-435.586)" /><g
     id="g11"
     transform="translate(0,-435.586)" /><g
     id="g13"
     transform="translate(0,-435.586)" /><g
     id="g15"
     transform="translate(0,-435.586)" /><g
     id="g17"
     transform="translate(0,-435.586)" /><g
     id="g19"
     transform="translate(0,-435.586)" /><g
     id="g21"
     transform="translate(0,-435.586)" /><g
     id="g23"
     transform="translate(0,-435.586)" /><g
     id="g25"
     transform="translate(0,-435.586)" /><g
     id="g27"
     transform="translate(0,-435.586)" /><g
     id="g29"
     transform="translate(0,-435.586)" /><g
     id="g31"
     transform="translate(0,-435.586)" /><g
     id="g33"
     transform="translate(0,-435.586)" /><g
     id="g35"
     transform="translate(0,-435.586)" /></svg>