<?xml version="1.0" encoding="UTF-8" standalone="no"?>
<!-- Generator: Adobe Illustrator 18.1.1, SVG Export Plug-In . SVG Version: 6.00 Build 0)  -->

<svg
   xmlns:dc="http://purl.org/dc/elements/1.1/"
   xmlns:cc="http://creativecommons.org/ns#"
   xmlns:rdf="http://www.w3.org/1999/02/22-rdf-syntax-ns#"
   xmlns:svg="http://www.w3.org/2000/svg"
   xmlns="http://www.w3.org/2000/svg"
   xmlns:sodipodi="http://sodipodi.sourceforge.net/DTD/sodipodi-0.dtd"
   xmlns:inkscape="http://www.inkscape.org/namespaces/inkscape"
   version="1.1"
   id="Capa_1"
   x="0px"
   y="0px"
   viewBox="0 0 34.999999 34.999999"
   xml:space="preserve"
   inkscape:version="0.91 r13725"
   sodipodi:docname="group_wizard.svg"
   width="35"
   height="35"
   inkscape:export-filename="C:\eclipse\project\AbcMap2\icons\group_wizard.png"
   inkscape:export-xdpi="90"
   inkscape:export-ydpi="90"><metadata
     id="metadata89"><rdf:RDF><cc:Work
         rdf:about=""><dc:format>image/svg+xml</dc:format><dc:type
           rdf:resource="http://purl.org/dc/dcmitype/StillImage" /><dc:title /></cc:Work></rdf:RDF></metadata><defs
     id="defs87" /><sodipodi:namedview
     pagecolor="#ffffff"
     bordercolor="#666666"
     borderopacity="1"
     objecttolerance="10"
     gridtolerance="10"
     guidetolerance="10"
     inkscape:pageopacity="0"
     inkscape:pageshadow="2"
     inkscape:window-width="1366"
     inkscape:window-height="705"
     id="namedview85"
     showgrid="false"
     inkscape:zoom="8.7255765"
     inkscape:cx="4.6478277"
     inkscape:cy="1.7194349"
     inkscape:window-x="-8"
     inkscape:window-y="-8"
     inkscape:window-maximized="1"
     inkscape:current-layer="Capa_1" /><path
     style="fill:#1a1a1a"
     inkscape:connector-curvature="0"
     id="path9"
     d="m 34.86641,15.870279 c -0.101261,-0.176821 -0.29415,-0.281842 -0.498836,-0.267881 l -0.464019,0.02946 -0.28828,-0.366462 c -0.125934,-0.160182 -0.330563,-0.235229 -0.531488,-0.19289 -0.199329,0.04234 -0.357345,0.193972 -0.408288,0.391136 l -0.115221,0.449545 -0.436154,0.159155 c -0.191807,0.06963 -0.327372,0.242694 -0.34931,0.445784 -0.022,0.20309 0.0734,0.400767 0.245372,0.510062 l 0.394327,0.249702 0.01823,0.464019 c 0.008,0.203603 0.130721,0.38521 0.316659,0.468805 0.0702,0.03106 0.144681,0.04661 0.218589,0.04661 0.122686,0 0.243777,-0.04177 0.341276,-0.122686 l 0.357915,-0.295746 0.446866,0.12753 c 0.195056,0.05516 0.406693,-0.0048 0.543853,-0.155908 0.13716,-0.151121 0.176251,-0.367032 0.100747,-0.556674 l -0.171464,-0.432905 0.258251,-0.383615 c 0.114195,-0.170609 0.12223,-0.389712 0.02097,-0.567045 z" /><path
     style="fill:#1a1a1a"
     d="m 18.746621,12.062398 c -0.884615,0 -1.717205,0.344523 -2.343,0.970831 L 1.0312882,28.404536 c -1.29125151,1.292335 -1.29125151,3.393667 5.129e-4,4.686001 0.6257954,0.625796 1.457872,0.970832 2.3430004,0.970832 0.8851285,0 1.7177179,-0.345036 2.3430005,-0.970832 L 21.089109,17.7198 c 0.626365,-0.625795 0.971402,-1.457872 0.971402,-2.34357 0,-0.885129 -0.344524,-1.717205 -0.970319,-2.343001 -0.626879,-0.626308 -1.458955,-0.970831 -2.343571,-0.970831 z m 0.448462,3.761781 -2.896996,2.896996 -0.897437,-0.897436 2.896996,-2.896997 c 0.161834,-0.161834 0.350963,-0.185938 0.448975,-0.185938 0.09807,0 0.287198,0.0241 0.448975,0.185938 0.161834,0.161834 0.185938,0.350393 0.185938,0.448462 -5.13e-4,0.09858 -0.02462,0.287141 -0.186451,0.448975 z"
     id="path13"
     inkscape:connector-curvature="0" /><path
     d="M 31.018412,16.368032 C 31.14218,15.905666 31.009864,15.4127 30.67121,15.074102 L 27.343416,11.746309 28.561273,7.2006588 C 28.685041,6.7382927 28.552725,6.2453264 28.214641,5.9072418 27.876043,5.5686445 27.381994,5.4357584 26.920711,5.5606098 L 22.375061,6.7789791 19.04721,3.4511857 C 18.708613,3.1125883 18.215134,2.9807849 17.753281,3.1045536 17.290915,3.2283223 16.929752,3.5894282 16.806553,4.0518513 l -1.185148,4.4207985 -3.324602,0.413645 c -0.734008,0.09163 -1.254839,0.7602771 -1.163722,1.4948542 0.09163,0.734008 0.75549,1.252674 1.494854,1.163722 l 4.219361,-0.525618 c 0.540605,-0.06753 0.986902,-0.455984 1.128392,-0.982627 l 0.817603,-3.0513088 2.234218,2.2342185 c 0.338598,0.3380845 0.832077,0.4709706 1.29393,0.3466321 l 3.051309,-0.8176027 -0.817603,3.0513079 c -0.123769,0.462366 0.0085,0.955333 0.346632,1.29393 l 2.234218,2.234219 -3.051878,0.817602 c -0.548126,0.14679 -0.944619,0.623687 -0.988554,1.188909 l -0.345606,4.399373 c -0.0579,0.737255 0.492909,1.382311 1.230165,1.440207 0.0359,0.0027 0.07129,0.0043 0.106616,0.0043 0.692239,0 1.278944,-0.533083 1.333591,-1.234439 l 0.271129,-3.455836 4.377946,-1.172839 c 0.464076,-0.123769 0.824669,-0.484875 0.949008,-0.947241 z"
     id="path15"
     inkscape:connector-curvature="0"
     style="fill:#1a1a1a;stroke:none;stroke-opacity:1" /><path
     style="fill:#1a1a1a"
     d="m 12.689535,6.2485175 0.394327,0.2497027 0.01824,0.4640186 c 0.008,0.2036029 0.130721,0.3852101 0.316089,0.4682924 0.0702,0.031626 0.144681,0.046613 0.219159,0.046613 0.122173,0 0.243777,-0.041769 0.341276,-0.122686 l 0.358428,-0.2963155 0.446296,0.1269598 c 0.196081,0.05573 0.407206,-0.00427 0.544366,-0.1559075 0.13716,-0.1510639 0.176251,-0.3670323 0.10126,-0.5566742 L 15.257507,6.0396151 15.515757,5.6560005 C 15.629896,5.4867018 15.63793,5.2670295 15.5361,5.090209 15.434327,4.9133884 15.241437,4.8089372 15.037265,4.8217586 L 14.573246,4.8512192 14.284965,4.4847567 C 14.159031,4.3250883 13.95275,4.2500977 13.753478,4.2918668 13.554149,4.3342057 13.395563,4.4852696 13.344677,4.6830032 l -0.115221,0.4495447 -0.436154,0.1601813 c -0.191807,0.069634 -0.327372,0.2426937 -0.34931,0.4457838 -0.02182,0.2030331 0.07357,0.4007097 0.245543,0.5100045 z"
     id="path17"
     inkscape:connector-curvature="0" /><path
     style="fill:#1a1a1a"
     d="M 32.772029,8.9649893 C 32.670769,8.7876559 32.476284,8.6847433 32.273194,8.6971088 L 31.809175,8.7265694 31.520894,8.3601069 C 31.39496,8.2004385 31.189249,8.1254479 30.989407,8.167217 30.789565,8.2095559 30.631492,8.3606198 30.580606,8.5583534 l -0.115222,0.4495447 -0.435583,0.1591556 c -0.191808,0.069634 -0.327372,0.2426937 -0.349311,0.4457838 -0.02194,0.20309 0.0734,0.4007665 0.245942,0.5100615 l 0.393815,0.249703 0.01767,0.463448 c 0.008,0.203603 0.13072,0.385211 0.316658,0.468806 0.0702,0.03163 0.144682,0.04661 0.21916,0.04661 0.122173,0 0.243263,-0.04177 0.341275,-0.122686 l 0.358428,-0.295745 0.446297,0.12696 c 0.196081,0.05516 0.407206,-0.0043 0.544366,-0.155395 0.137159,-0.151634 0.17625,-0.367032 0.100747,-0.556674 l -0.171464,-0.4334756 0.25825,-0.3836145 c 0.114138,-0.1693557 0.12166,-0.3885152 0.0204,-0.5658486 z"
     id="path19"
     inkscape:connector-curvature="0" /><path
     style="fill:#1a1a1a"
     d="m 23.077955,4.5205995 c 0.19232,0 0.388458,-0.024104 0.582944,-0.074478 C 24.676748,4.1814323 25.28864,3.1377181 25.025033,2.1186209 24.804278,1.2769141 23.939549,0.77055657 23.098868,0.98971604 22.758106,1.0780978 22.472503,1.2940662 22.294087,1.5983594 c -0.177903,0.3037803 -0.227194,0.6585041 -0.138755,0.998697 0.154312,0.5898957 0.757598,0.946215 1.349659,0.7929857 0.14303,-0.036982 0.229303,-0.1832597 0.191808,-0.3262889 C 23.659816,2.920724 23.514109,2.833368 23.37051,2.871946 23.06673,2.9506975 22.753262,2.7669249 22.673428,2.4620619 22.620946,2.2600546 22.650406,2.0500125 22.75594,1.869488 c 0.105534,-0.1805815 0.274833,-0.3086239 0.47741,-0.361106 0.554566,-0.1467901 1.127309,0.1891291 1.272504,0.7452904 0.189642,0.732412 -0.250729,1.4836286 -0.980519,1.6737834 -0.950489,0.2459418 -1.926678,-0.3246934 -2.173189,-1.2735866 -0.03698,-0.143599 -0.18326,-0.2303853 -0.326289,-0.1918073 -0.143599,0.036982 -0.229303,0.1832597 -0.191807,0.3262889 0.270615,1.0410929 1.213069,1.7322487 2.243905,1.7322487 z"
     id="path21"
     inkscape:connector-curvature="0" /><path
     style="fill:#1a1a1a"
     d="m 29.720721,19.293406 c -0.702439,0.18269 -1.125144,0.903876 -0.942454,1.607398 0.154312,0.590465 0.758681,0.945645 1.350173,0.792985 0.143029,-0.03698 0.229302,-0.183259 0.191807,-0.326289 -0.03698,-0.143029 -0.18326,-0.230385 -0.326289,-0.191807 -0.303268,0.07767 -0.617248,-0.105021 -0.697082,-0.409884 -0.108212,-0.417406 0.142516,-0.844955 0.558839,-0.95368 0.556162,-0.144682 1.12731,0.190212 1.273017,0.746373 0.190212,0.732412 -0.249703,1.483059 -0.980519,1.673271 -0.950489,0.247024 -1.926677,-0.324181 -2.173189,-1.273017 -0.03698,-0.143599 -0.183773,-0.230385 -0.326289,-0.191807 -0.143029,0.03698 -0.229302,0.183259 -0.191807,0.326289 0.269476,1.040523 1.21193,1.731678 2.243336,1.731678 0.19232,0 0.388458,-0.0241 0.582943,-0.07448 1.015849,-0.26469 1.628254,-1.308404 1.364134,-2.326931 -0.221211,-0.842391 -1.085996,-1.349204 -1.92662,-1.130102 z"
     id="path23"
     inkscape:connector-curvature="0" /><g
     id="g55"
     transform="translate(0,-577.00201)" /><g
     id="g57"
     transform="translate(0,-577.00201)" /><g
     id="g59"
     transform="translate(0,-577.00201)" /><g
     id="g61"
     transform="translate(0,-577.00201)" /><g
     id="g63"
     transform="translate(0,-577.00201)" /><g
     id="g65"
     transform="translate(0,-577.00201)" /><g
     id="g67"
     transform="translate(0,-577.00201)" /><g
     id="g69"
     transform="translate(0,-577.00201)" /><g
     id="g71"
     transform="translate(0,-577.00201)" /><g
     id="g73"
     transform="translate(0,-577.00201)" /><g
     id="g75"
     transform="translate(0,-577.00201)" /><g
     id="g77"
     transform="translate(0,-577.00201)" /><g
     id="g79"
     transform="translate(0,-577.00201)" /><g
     id="g81"
     transform="translate(0,-577.00201)" /><g
     id="g83"
     transform="translate(0,-577.00201)" /></svg>