<?xml version="1.0" encoding="UTF-8" standalone="no"?>
<!-- Generator: Adobe Illustrator 18.0.0, SVG Export Plug-In . SVG Version: 6.00 Build 0)  -->

<svg
   xmlns:dc="http://purl.org/dc/elements/1.1/"
   xmlns:cc="http://creativecommons.org/ns#"
   xmlns:rdf="http://www.w3.org/1999/02/22-rdf-syntax-ns#"
   xmlns:svg="http://www.w3.org/2000/svg"
   xmlns="http://www.w3.org/2000/svg"
   xmlns:sodipodi="http://sodipodi.sourceforge.net/DTD/sodipodi-0.dtd"
   xmlns:inkscape="http://www.inkscape.org/namespaces/inkscape"
   version="1.1"
   id="Capa_1"
   x="0px"
   y="0px"
   viewBox="0 0 35 35"
   xml:space="preserve"
   inkscape:version="0.91 r13725"
   sodipodi:docname="group_layers.svg"
   width="35"
   height="35"
   inkscape:export-filename="C:\eclipse\project\AbcMap2\icons\group_layers.png"
   inkscape:export-xdpi="90"
   inkscape:export-ydpi="90"><metadata
     id="metadata47"><rdf:RDF><cc:Work
         rdf:about=""><dc:format>image/svg+xml</dc:format><dc:type
           rdf:resource="http://purl.org/dc/dcmitype/StillImage" /><dc:title></dc:title></cc:Work></rdf:RDF></metadata><defs
     id="defs45" /><sodipodi:namedview
     pagecolor="#ffffff"
     bordercolor="#666666"
     borderopacity="1"
     objecttolerance="10"
     gridtolerance="10"
     guidetolerance="10"
     inkscape:pageopacity="0"
     inkscape:pageshadow="2"
     inkscape:window-width="1366"
     inkscape:window-height="705"
     id="namedview43"
     showgrid="false"
     inkscape:zoom="10.980795"
     inkscape:cx="1.7508998"
     inkscape:cy="17.393204"
     inkscape:window-x="-8"
     inkscape:window-y="-8"
     inkscape:window-maximized="1"
     inkscape:current-layer="Capa_1" /><g
     id="g3"
     transform="matrix(0.07145596,0,0,0.07145596,0.12512679,0.12512605)"
     style="fill:#1a1a1a"><path
       d="m 0.018,393.086 c 0.335,7.91 5.781,14.674 13.434,16.707 l 183.256,48.558 c 4.355,1.151 8.823,1.721 13.273,1.721 5.718,0 11.416,-0.936 16.878,-2.818 l 247.238,-85.063 c 7.655,-2.633 12.633,-10.029 12.185,-18.109 -0.446,-8.084 -6.211,-14.882 -14.107,-16.66 l -31.558,-7.076 -203.079,69.875 c -8.888,3.06 -18.157,4.611 -27.558,4.611 -7.301,0 -14.586,-0.951 -21.681,-2.826 L 43.936,363.752 11.962,375.272 c -7.444,2.683 -12.296,9.904 -11.944,17.814 z"
       id="path5"
       inkscape:connector-curvature="0"
       style="fill:#1a1a1a" /><path
       d="m 0.018,305.044 c 0.335,7.91 5.797,14.677 13.449,16.709 l 183.24,48.556 c 4.355,1.154 8.823,1.73 13.273,1.73 5.718,0 11.416,-0.945 16.878,-2.826 l 247.238,-85.064 c 7.655,-2.633 12.633,-10.031 12.185,-18.108 -0.446,-8.087 -6.211,-14.884 -14.107,-16.662 l -31.558,-7.076 -203.079,69.876 c -8.888,3.059 -18.157,4.603 -27.558,4.603 -7.301,0 -14.586,-0.943 -21.681,-2.817 L 43.936,275.711 11.962,287.232 c -7.444,2.681 -12.296,9.903 -11.944,17.812 z"
       id="path7"
       inkscape:connector-curvature="0"
       style="fill:#1a1a1a" /><path
       d="m 237.538,224.128 c -8.888,3.059 -18.157,4.604 -27.558,4.604 -7.301,0 -14.586,-0.944 -21.681,-2.818 L 43.936,187.669 11.962,199.19 c -7.444,2.682 -12.296,9.904 -11.944,17.814 0.335,7.908 5.797,14.674 13.449,16.707 l 183.24,48.557 c 4.355,1.152 8.823,1.722 13.273,1.722 5.718,0 11.416,-0.937 16.878,-2.817 l 247.238,-85.065 c 7.655,-2.634 12.633,-10.032 12.185,-18.109 -0.446,-8.086 -6.211,-14.883 -14.107,-16.66 l -31.558,-7.078 -203.078,69.867 z"
       id="path9"
       inkscape:connector-curvature="0"
       style="fill:#1a1a1a" /><path
       d="m 13.452,145.662 183.256,48.557 c 4.355,1.152 8.823,1.721 13.273,1.721 5.718,0 11.416,-0.937 16.878,-2.818 l 247.238,-85.063 c 7.655,-2.635 12.633,-10.031 12.185,-18.109 -0.446,-8.087 -6.211,-14.883 -14.107,-16.661 L 268.008,27.494 c -3.748,-0.841 -7.557,-1.256 -11.352,-1.256 -5.973,0 -11.912,1.023 -17.582,3.066 L 11.962,111.14 c -7.444,2.682 -12.296,9.904 -11.944,17.814 0.335,7.91 5.781,14.674 13.434,16.708 z"
       id="path11"
       inkscape:connector-curvature="0"
       style="fill:#1a1a1a" /></g><g
     id="g13"
     transform="translate(0,-451.31)" /><g
     id="g15"
     transform="translate(0,-451.31)" /><g
     id="g17"
     transform="translate(0,-451.31)" /><g
     id="g19"
     transform="translate(0,-451.31)" /><g
     id="g21"
     transform="translate(0,-451.31)" /><g
     id="g23"
     transform="translate(0,-451.31)" /><g
     id="g25"
     transform="translate(0,-451.31)" /><g
     id="g27"
     transform="translate(0,-451.31)" /><g
     id="g29"
     transform="translate(0,-451.31)" /><g
     id="g31"
     transform="translate(0,-451.31)" /><g
     id="g33"
     transform="translate(0,-451.31)" /><g
     id="g35"
     transform="translate(0,-451.31)" /><g
     id="g37"
     transform="translate(0,-451.31)" /><g
     id="g39"
     transform="translate(0,-451.31)" /><g
     id="g41"
     transform="translate(0,-451.31)" /></svg>