<?xml version="1.0" encoding="UTF-8" standalone="no"?>
<!-- Generator: Adobe Illustrator 16.0.0, SVG Export Plug-In . SVG Version: 6.00 Build 0)  -->

<svg
   xmlns:dc="http://purl.org/dc/elements/1.1/"
   xmlns:cc="http://creativecommons.org/ns#"
   xmlns:rdf="http://www.w3.org/1999/02/22-rdf-syntax-ns#"
   xmlns:svg="http://www.w3.org/2000/svg"
   xmlns="http://www.w3.org/2000/svg"
   xmlns:sodipodi="http://sodipodi.sourceforge.net/DTD/sodipodi-0.dtd"
   xmlns:inkscape="http://www.inkscape.org/namespaces/inkscape"
   version="1.1"
   id="Capa_1"
   x="0px"
   y="0px"
   width="35"
   height="35"
   viewBox="0 0 35 35.000001"
   xml:space="preserve"
   inkscape:version="0.91 r13725"
   sodipodi:docname="group_drawing_prop.svg"
   inkscape:export-filename="C:\eclipse\project\DockIHM\icons\menu_drawing_prop"
   inkscape:export-xdpi="90"
   inkscape:export-ydpi="90"><metadata
     id="metadata41"><rdf:RDF><cc:Work
         rdf:about=""><dc:format>image/svg+xml</dc:format><dc:type
           rdf:resource="http://purl.org/dc/dcmitype/StillImage" /><dc:title /></cc:Work></rdf:RDF></metadata><defs
     id="defs39" /><sodipodi:namedview
     pagecolor="#ffffff"
     bordercolor="#666666"
     borderopacity="1"
     objecttolerance="10"
     gridtolerance="10"
     guidetolerance="10"
     inkscape:pageopacity="0"
     inkscape:pageshadow="2"
     inkscape:window-width="1366"
     inkscape:window-height="705"
     id="namedview37"
     showgrid="false"
     inkscape:zoom="11.005689"
     inkscape:cx="21.150994"
     inkscape:cy="20.632979"
     inkscape:window-x="-8"
     inkscape:window-y="-8"
     inkscape:window-maximized="1"
     inkscape:current-layer="Capa_1" /><path
     inkscape:connector-curvature="0"
     id="path5"
     d="m 32.75014,8.7857695 0,21.7853995 -26.1428386,0 0,-21.7853995 26.1428386,0 m 2.178288,-2.1785758 -30.4997743,0 0,26.1426953 30.4997743,0 0,-26.1426953 0,0 z M 8.7858773,26.213945 l 21.7855427,0 -4.357223,-13.071096 -6.535584,8.71416 -4.357008,-4.35708 -6.5357277,8.714016 z M 10.964309,13.142849 c -1.2041573,0 -2.1784317,0.97449 -2.1784317,2.178648 0,1.204158 0.9742744,2.178432 2.1784317,2.178432 1.204158,0 2.178648,-0.974274 2.178648,-2.178432 0,-1.204158 -0.974274,-2.178648 -2.178648,-2.178648 z M 0.0715738,2.2501138 l 0,26.1427662 2.1786477,0 0,-23.9643341 28.3212705,0 0,-2.1784321 -30.4999182,0 z" /><g
     id="g7"
     transform="translate(0,-450.20999)" /><g
     id="g9"
     transform="translate(0,-450.20999)" /><g
     id="g11"
     transform="translate(0,-450.20999)" /><g
     id="g13"
     transform="translate(0,-450.20999)" /><g
     id="g15"
     transform="translate(0,-450.20999)" /><g
     id="g17"
     transform="translate(0,-450.20999)" /><g
     id="g19"
     transform="translate(0,-450.20999)" /><g
     id="g21"
     transform="translate(0,-450.20999)" /><g
     id="g23"
     transform="translate(0,-450.20999)" /><g
     id="g25"
     transform="translate(0,-450.20999)" /><g
     id="g27"
     transform="translate(0,-450.20999)" /><g
     id="g29"
     transform="translate(0,-450.20999)" /><g
     id="g31"
     transform="translate(0,-450.20999)" /><g
     id="g33"
     transform="translate(0,-450.20999)" /><g
     id="g35"
     transform="translate(0,-450.20999)" /></svg>