<?xml version="1.0" encoding="UTF-8" standalone="no"?>
<!-- Generator: Adobe Illustrator 17.1.0, SVG Export Plug-In . SVG Version: 6.00 Build 0)  -->

<svg
   xmlns:dc="http://purl.org/dc/elements/1.1/"
   xmlns:cc="http://creativecommons.org/ns#"
   xmlns:rdf="http://www.w3.org/1999/02/22-rdf-syntax-ns#"
   xmlns:svg="http://www.w3.org/2000/svg"
   xmlns="http://www.w3.org/2000/svg"
   xmlns:sodipodi="http://sodipodi.sourceforge.net/DTD/sodipodi-0.dtd"
   xmlns:inkscape="http://www.inkscape.org/namespaces/inkscape"
   version="1.1"
   id="Capa_1"
   x="0px"
   y="0px"
   viewBox="0 0 35.000002 35.000002"
   xml:space="preserve"
   inkscape:version="0.91 r13725"
   sodipodi:docname="search_widget.svg"
   width="35"
   height="35"
   inkscape:export-filename="/home/remipassmoilesel/projects/java/abcmap2-reboot/src/main/resources/icons/search_widget.png"
   inkscape:export-xdpi="90"
   inkscape:export-ydpi="90"><metadata
     id="metadata39"><rdf:RDF><cc:Work
         rdf:about=""><dc:format>image/svg+xml</dc:format><dc:type
           rdf:resource="http://purl.org/dc/dcmitype/StillImage" /><dc:title></dc:title></cc:Work></rdf:RDF></metadata><defs
     id="defs37" /><sodipodi:namedview
     pagecolor="#ffffff"
     bordercolor="#666666"
     borderopacity="1"
     objecttolerance="10"
     gridtolerance="10"
     guidetolerance="10"
     inkscape:pageopacity="0"
     inkscape:pageshadow="2"
     inkscape:window-width="1366"
     inkscape:window-height="716"
     id="namedview35"
     showgrid="false"
     inkscape:zoom="8"
     inkscape:cx="-1.6400781"
     inkscape:cy="12.611864"
     inkscape:window-x="1920"
     inkscape:window-y="312"
     inkscape:window-maximized="1"
     inkscape:current-layer="Capa_1" /><g
     id="g5"
     transform="translate(0,-179.633)" /><g
     id="g7"
     transform="translate(0,-179.633)" /><g
     id="g9"
     transform="translate(0,-179.633)" /><g
     id="g11"
     transform="translate(0,-179.633)" /><g
     id="g13"
     transform="translate(0,-179.633)" /><g
     id="g15"
     transform="translate(0,-179.633)" /><g
     id="g17"
     transform="translate(0,-179.633)" /><g
     id="g19"
     transform="translate(0,-179.633)" /><g
     id="g21"
     transform="translate(0,-179.633)" /><g
     id="g23"
     transform="translate(0,-179.633)" /><g
     id="g25"
     transform="translate(0,-179.633)" /><g
     id="g27"
     transform="translate(0,-179.633)" /><g
     id="g29"
     transform="translate(0,-179.633)" /><g
     id="g31"
     transform="translate(0,-179.633)" /><g
     id="g33"
     transform="translate(0,-179.633)" /><g
     id="g4308"
     transform="matrix(-0.07722255,0.01172899,0.01172899,0.07722255,33.349388,-6.0586809)"
     style="fill:#1a1a1a;fill-opacity:1"><g
       id="g4310"
       style="fill:#1a1a1a;fill-opacity:1"><path
         inkscape:connector-curvature="0"
         d="m 338.752,99.482 c -65.965,-65.974 -173.306,-65.974 -239.277,0 -65.967,65.964 -65.967,173.305 0,239.269 63.708,63.712 165.99,65.879 232.342,6.544 l 13.413,13.413 c -3.34,8.56 -1.59,18.623 5.311,25.528 l 70.782,70.782 c 9.305,9.31 24.397,9.305 33.696,0 9.31,-9.299 9.31,-24.387 0,-33.696 L 384.242,350.55 c -6.905,-6.899 -16.988,-8.65 -25.533,-5.311 l -13.413,-13.423 c 59.34,-66.351 57.167,-168.628 -6.544,-232.334 z M 119.698,318.539 c -54.819,-54.819 -54.819,-144.015 0,-198.834 54.819,-54.83 144.017,-54.819 198.836,0 54.819,54.819 54.819,144.02 0,198.839 -54.819,54.819 -144.017,54.814 -198.836,-0.005 z"
         id="path4312"
         style="fill:#1a1a1a;fill-opacity:1" /><path
         inkscape:connector-curvature="0"
         d="m 153.1,151.877 c 23.944,-23.95 57.54911,-43.0429 86.81211,-53.880903 C 206.75911,96.110097 165.477,110.722 138.228,137.961 110.604,165.587 103.51511,199.9951 105.86111,233.5511 116.61611,203.4251 128.511,176.46 153.1,151.877 Z"
         id="path4314"
         sodipodi:nodetypes="ccccc"
         style="fill:#1a1a1a;fill-opacity:1" /></g></g></svg>