<?xml version="1.0" encoding="UTF-8" standalone="no"?>
<!-- Generator: Adobe Illustrator 18.0.0, SVG Export Plug-In . SVG Version: 6.00 Build 0)  -->

<svg
   xmlns:dc="http://purl.org/dc/elements/1.1/"
   xmlns:cc="http://creativecommons.org/ns#"
   xmlns:rdf="http://www.w3.org/1999/02/22-rdf-syntax-ns#"
   xmlns:svg="http://www.w3.org/2000/svg"
   xmlns="http://www.w3.org/2000/svg"
   xmlns:sodipodi="http://sodipodi.sourceforge.net/DTD/sodipodi-0.dtd"
   xmlns:inkscape="http://www.inkscape.org/namespaces/inkscape"
   version="1.1"
   id="Capa_1"
   x="0px"
   y="0px"
   viewBox="0 0 20 20"
   xml:space="preserve"
   inkscape:version="0.91 r13725"
   sodipodi:docname="window_icon_small.svg"
   width="20"
   height="20"
   inkscape:export-filename="/home/remipassmoilesel/projects/java/abcmap2-reboot/src/main/resources/icons/window_icon_small.png"
   inkscape:export-xdpi="90"
   inkscape:export-ydpi="90"><metadata
     id="metadata39"><rdf:RDF><cc:Work
         rdf:about=""><dc:format>image/svg+xml</dc:format><dc:type
           rdf:resource="http://purl.org/dc/dcmitype/StillImage" /><dc:title></dc:title></cc:Work></rdf:RDF></metadata><defs
     id="defs37" /><sodipodi:namedview
     pagecolor="#ffffff"
     bordercolor="#666666"
     borderopacity="1"
     objecttolerance="10"
     gridtolerance="10"
     guidetolerance="10"
     inkscape:pageopacity="0"
     inkscape:pageshadow="2"
     inkscape:window-width="1366"
     inkscape:window-height="716"
     id="namedview35"
     showgrid="false"
     inkscape:zoom="13.692488"
     inkscape:cx="4.5235221"
     inkscape:cy="16.367395"
     inkscape:window-x="1920"
     inkscape:window-y="312"
     inkscape:window-maximized="1"
     inkscape:current-layer="Capa_1" /><path
     d="M 10,0.28308123 C 4.6335213,0.28308123 0.28308111,4.6334699 0.28308111,10 c 0,5.36653 4.35044019,9.716919 9.71691889,9.716919 5.36648,0 9.716919,-4.350389 9.716919,-9.716919 C 19.716919,4.6334699 15.36648,0.28308123 10,0.28308123 Z M 6.2390061,2.5592329 C 6.0649477,2.8003123 5.8982649,3.0591821 5.7403506,3.3365849 5.4991244,3.7602926 5.283906,4.2163918 5.0952983,4.698451 4.6934678,4.5878265 4.2935776,4.4636008 3.8961827,4.3255684 4.564009,3.6076631 5.3564577,3.0071589 6.2390061,2.5592329 Z M 2.889111,5.6495123 C 3.4590686,5.8634332 4.0340131,6.050946 4.6127907,6.2122449 4.3746037,7.1557319 4.226906,8.1646999 4.1770253,9.2064015 l -2.4775669,0 C 1.8222434,7.9125076 2.2416625,6.7038224 2.889111,5.6495123 Z m 0,8.7009757 C 2.2416148,13.296127 1.8221919,12.087493 1.6994584,10.793598 l 2.4775669,0 c 0.049929,1.041703 0.1975784,2.050671 0.4357656,2.994158 -0.5787778,0.161298 -1.1537223,0.348811 -1.7236799,0.562732 z m 1.0070717,1.323991 c 0.3973949,-0.138023 0.7972851,-0.262353 1.1990642,-0.372878 0.1886591,0.482059 0.4038775,0.938154 0.6451037,1.361862 0.1578628,0.277355 0.3245971,0.536277 0.4986555,0.777356 C 5.3564577,16.992841 4.564009,16.392388 3.8961827,15.674479 Z m 5.3102194,2.252033 c -1.0161896,-0.3811 -1.9163745,-1.474629 -2.5438382,-2.984538 0.8436777,-0.15572 1.693085,-0.252091 2.5438382,-0.289017 l 0,3.273555 z m 0,-4.864235 C 8.1874704,13.103035 7.170233,13.222777 6.16092,13.420606 5.9536249,12.60563 5.8166913,11.719895 5.7665129,10.793548 l 3.4398892,0 0,2.268729 z m 0,-3.8558755 -3.4398892,0 C 5.816691,8.2800538 5.9536249,7.3943195 6.16092,6.5793468 7.1701853,6.7772229 8.1874704,6.8969136 9.2064021,6.9376765 l 0,2.268725 z m 0,-3.8594106 C 8.3556489,5.3100683 7.5062893,5.2136955 6.6625639,5.0579752 7.2900276,3.5480657 8.1902124,2.4545876 9.2064021,2.0734361 l 0,3.2735548 z m 7.9045389,0.302672 c 0.647445,1.0542588 1.066815,2.2628924 1.189549,3.5567386 l -2.477562,0 C 15.773046,8.1647989 15.625348,7.1558349 15.38721,6.2124434 15.966038,6.0511444 16.541032,5.8636833 17.110941,5.6496629 Z M 16.103968,4.325719 C 15.706573,4.4637475 15.306684,4.5880764 14.904801,4.6986494 14.716142,4.2164911 14.500928,3.7602926 14.25965,3.3365372 14.101735,3.0591821 13.935052,2.8002607 13.761046,2.5591815 c 0.882596,0.4480251 1.675049,1.0485807 2.342922,1.7665375 z m -5.31037,-2.2522313 c 1.01619,0.3810999 1.916427,1.4747287 2.543891,2.9847373 -0.84368,0.1556688 -1.693085,0.2519903 -2.543891,0.2888652 l 0,-3.2736025 z m 0,4.8642881 c 1.019032,-0.040712 2.036315,-0.1604023 3.045529,-0.358179 0.207296,0.8149249 0.344181,1.7006082 0.39436,2.6268562 l -3.439889,0 0,-2.2686772 z m 0,3.8558222 3.439889,0 c -0.05018,0.926246 -0.187064,1.811932 -0.39436,2.626857 -1.009214,-0.197828 -2.026497,-0.317466 -3.045529,-0.35823 l 0,-2.268627 z m 0,7.132914 0,-3.273555 c 0.850853,0.03693 1.700261,0.133195 2.543891,0.288917 -0.627464,1.509909 -1.527701,2.603538 -2.543891,2.984638 z m 2.967448,-0.485745 c 0.174058,-0.241079 0.340741,-0.499949 0.498604,-0.777352 0.241278,-0.423758 0.456492,-0.879953 0.645151,-1.362064 0.40183,0.110617 0.801721,0.234901 1.199167,0.37293 -0.667873,0.717957 -1.460326,1.318513 -2.342922,1.766486 z m 3.349895,-3.090379 c -0.569909,-0.214072 -1.144903,-0.401532 -1.723683,-0.562882 0.238139,-0.943388 0.385788,-1.952305 0.435717,-2.993908 l 2.477568,0 c -0.122789,1.293847 -0.542157,2.502481 -1.189602,3.55679 z"
     id="path3"
     inkscape:connector-curvature="0" /><g
     id="g5"
     transform="translate(0,-370)" /><g
     id="g7"
     transform="translate(0,-370)" /><g
     id="g9"
     transform="translate(0,-370)" /><g
     id="g11"
     transform="translate(0,-370)" /><g
     id="g13"
     transform="translate(0,-370)" /><g
     id="g15"
     transform="translate(0,-370)" /><g
     id="g17"
     transform="translate(0,-370)" /><g
     id="g19"
     transform="translate(0,-370)" /><g
     id="g21"
     transform="translate(0,-370)" /><g
     id="g23"
     transform="translate(0,-370)" /><g
     id="g25"
     transform="translate(0,-370)" /><g
     id="g27"
     transform="translate(0,-370)" /><g
     id="g29"
     transform="translate(0,-370)" /><g
     id="g31"
     transform="translate(0,-370)" /><g
     id="g33"
     transform="translate(0,-370)" /></svg>