<?xml version="1.0" encoding="UTF-8" standalone="no"?>
<!-- Generator: Adobe Illustrator 18.0.0, SVG Export Plug-In . SVG Version: 6.00 Build 0)  -->

<svg
   xmlns:dc="http://purl.org/dc/elements/1.1/"
   xmlns:cc="http://creativecommons.org/ns#"
   xmlns:rdf="http://www.w3.org/1999/02/22-rdf-syntax-ns#"
   xmlns:svg="http://www.w3.org/2000/svg"
   xmlns="http://www.w3.org/2000/svg"
   xmlns:sodipodi="http://sodipodi.sourceforge.net/DTD/sodipodi-0.dtd"
   xmlns:inkscape="http://www.inkscape.org/namespaces/inkscape"
   version="1.1"
   id="Capa_1"
   x="0px"
   y="0px"
   viewBox="0 0 25 25"
   xml:space="preserve"
   inkscape:version="0.91 r13725"
   sodipodi:docname="window_icon.svg"
   width="25"
   height="25"
   inkscape:export-filename="/home/remipassmoilesel/projects/java/abcmap/icons/window_icon.png"
   inkscape:export-xdpi="360"
   inkscape:export-ydpi="360"><metadata
     id="metadata39"><rdf:RDF><cc:Work
         rdf:about=""><dc:format>image/svg+xml</dc:format><dc:type
           rdf:resource="http://purl.org/dc/dcmitype/StillImage" /><dc:title /></cc:Work></rdf:RDF></metadata><defs
     id="defs37" /><sodipodi:namedview
     pagecolor="#ffffff"
     bordercolor="#666666"
     borderopacity="1"
     objecttolerance="10"
     gridtolerance="10"
     guidetolerance="10"
     inkscape:pageopacity="0"
     inkscape:pageshadow="2"
     inkscape:window-width="1366"
     inkscape:window-height="718"
     id="namedview35"
     showgrid="false"
     inkscape:zoom="13.692488"
     inkscape:cx="-3.7052767"
     inkscape:cy="16.367395"
     inkscape:window-x="0"
     inkscape:window-y="25"
     inkscape:window-maximized="1"
     inkscape:current-layer="Capa_1" /><path
     style="fill:#ffffff;fill-rule:evenodd;stroke:#000000;stroke-width:1px;stroke-linecap:butt;stroke-linejoin:miter;stroke-opacity:1;fill-opacity:1"
     d="M 1.5336876,8.6406651 3.3595063,5.1350933 7.2302418,2.4328818 11.758272,1.1913251 l 3.505572,0.7303275 4.820161,1.6797531 2.483113,4.0898337 1.387622,3.6516376 -0.949425,6.061718 -2.190983,2.848277 -3.286473,2.483113 -4.674096,1.314589 L 8.9099949,23.320247 4.3819647,20.983199 1.8988514,16.236071 1.0224584,11.196811 1.5336876,8.9327961 Z"
     id="path4169"
     inkscape:connector-curvature="0" /><path
     d="M 12.5,0.22693481 C 5.7218077,0.22693481 0.22693481,5.7217428 0.22693481,12.5 c 0,6.778257 5.49487289,12.273065 12.27306519,12.273065 6.778193,0 12.273065,-5.494808 12.273065,-12.273065 C 24.773065,5.7217428 19.278193,0.22693481 12.5,0.22693481 Z M 7.7496336,3.1018542 C 7.5297871,3.4063522 7.3192565,3.7333207 7.1198011,4.0836974 6.8151176,4.6188664 6.5432836,5.1949476 6.3050605,5.803818 5.7975238,5.6640925 5.2924379,5.5071878 4.7905038,5.3328442 5.6340093,4.4260858 6.6349207,3.6676122 7.7496336,3.1018542 Z M 3.5185104,7.0050666 C 4.2384018,7.2752621 4.9645921,7.5121021 5.6956237,7.7158325 5.3947789,8.9075146 5.2082276,10.181903 5.1452253,11.497636 l -3.1293191,0 C 2.1709912,9.8633687 2.7007433,8.336725 3.5185104,7.0050666 Z m 0,10.9898674 C 2.700683,16.66321 2.1709263,15.136632 2.0159062,13.502364 l 3.1293191,0 c 0.063063,1.315733 0.2495536,2.590122 0.5503984,3.781804 -0.7310316,0.20373 -1.4572219,0.440569 -2.1771133,0.710766 z m 1.2719934,1.672282 c 0.5019341,-0.174339 1.00702,-0.331369 1.5144916,-0.470969 0.2382882,0.608871 0.5101222,1.184947 0.8148057,1.720116 0.1993904,0.350317 0.409986,0.67735 0.6298325,0.981848 C 6.6349207,21.332388 5.6340093,20.573979 4.7905038,19.667216 Z m 6.7071322,2.844456 C 10.214126,22.030319 9.0771375,20.649124 8.2846123,18.742016 9.3502294,18.545332 10.423083,18.423611 11.497636,18.376971 l 0,4.134701 z m 0,-6.143829 c -1.286972,0.05148 -2.571805,0.202723 -3.84663,0.452592 C 7.3891796,15.79107 7.2162239,14.672332 7.1528457,13.502299 l 4.3447903,0 0,2.865544 z m 0,-4.870207 -4.3447903,0 c 0.063378,-1.170034 0.2363339,-2.2887706 0.4981603,-3.3181313 1.2747646,0.2499297 2.559658,0.4011064 3.84663,0.4525925 l 0,2.8655388 z m 0,-4.8746724 C 10.423083,6.5763282 9.3502898,6.4546033 8.2846123,6.257919 9.0771375,4.3508107 10.214126,2.9696808 11.497636,2.4882631 l 0,4.1347005 z m 9.983918,0.3822934 c 0.817763,1.3315934 1.347454,2.858172 1.502475,4.492379 l -3.129315,0 C 19.791712,10.182028 19.60516,8.9076446 19.304376,7.7160832 20.035473,7.5123527 20.761724,7.2755778 21.481554,7.005257 Z M 20.209687,5.3330345 c -0.501935,0.174339 -1.00702,0.3313736 -1.514622,0.4710341 -0.238288,-0.6089957 -0.510117,-1.1852022 -0.814866,-1.7204315 -0.199456,-0.3503164 -0.409986,-0.67735 -0.629767,-0.9818478 1.114772,0.5658833 2.115689,1.3244218 2.959255,2.2312452 z M 13.502364,2.4883282 c 1.28351,0.4813526 2.420564,1.8626729 3.213089,3.7699064 -1.065618,0.1966193 -2.138471,0.3182792 -3.213089,0.3648544 l 0,-4.1347608 z m 0,6.1438944 c 1.287098,-0.051421 2.571991,-0.2025979 3.84669,-0.4524021 0.261826,1.0293002 0.434722,2.1479725 0.4981,3.3178805 l -4.34479,0 0,-2.8654784 z m 0,4.8701414 4.34479,0 c -0.06338,1.169904 -0.236274,2.28858 -0.4981,3.31788 -1.274699,-0.249868 -2.559592,-0.40098 -3.84669,-0.452467 l 0,-2.865413 z m 0,9.009308 0,-4.134701 c 1.074678,0.04664 2.147532,0.168236 3.213089,0.364919 -0.792525,1.907109 -1.929579,3.288429 -3.213089,3.769782 z m 3.748068,-0.613527 c 0.219846,-0.304497 0.430377,-0.631465 0.629767,-0.981842 0.304749,-0.535234 0.576578,-1.111436 0.814866,-1.720371 0.507536,0.139724 1.012623,0.296695 1.514622,0.471033 -0.843566,0.906824 -1.844483,1.665362 -2.959255,2.23118 z m 4.231122,-3.903337 c -0.71983,-0.270386 -1.446081,-0.507161 -2.177118,-0.710956 0.300785,-1.191557 0.487276,-2.46588 0.550339,-3.781488 l 3.129319,0 c -0.155086,1.634207 -0.684777,3.160786 -1.50254,4.492444 z"
     id="path3"
     inkscape:connector-curvature="0" /><g
     id="g5"
     transform="translate(0,-365)" /><g
     id="g7"
     transform="translate(0,-365)" /><g
     id="g9"
     transform="translate(0,-365)" /><g
     id="g11"
     transform="translate(0,-365)" /><g
     id="g13"
     transform="translate(0,-365)" /><g
     id="g15"
     transform="translate(0,-365)" /><g
     id="g17"
     transform="translate(0,-365)" /><g
     id="g19"
     transform="translate(0,-365)" /><g
     id="g21"
     transform="translate(0,-365)" /><g
     id="g23"
     transform="translate(0,-365)" /><g
     id="g25"
     transform="translate(0,-365)" /><g
     id="g27"
     transform="translate(0,-365)" /><g
     id="g29"
     transform="translate(0,-365)" /><g
     id="g31"
     transform="translate(0,-365)" /><g
     id="g33"
     transform="translate(0,-365)" /></svg>