<?xml version="1.0" encoding="UTF-8" standalone="no"?>
<!-- Generator: Adobe Illustrator 18.1.1, SVG Export Plug-In . SVG Version: 6.00 Build 0)  -->

<svg
   xmlns:dc="http://purl.org/dc/elements/1.1/"
   xmlns:cc="http://creativecommons.org/ns#"
   xmlns:rdf="http://www.w3.org/1999/02/22-rdf-syntax-ns#"
   xmlns:svg="http://www.w3.org/2000/svg"
   xmlns="http://www.w3.org/2000/svg"
   xmlns:sodipodi="http://sodipodi.sourceforge.net/DTD/sodipodi-0.dtd"
   xmlns:inkscape="http://www.inkscape.org/namespaces/inkscape"
   version="1.1"
   id="Capa_1"
   x="0px"
   y="0px"
   viewBox="0 0 19.999999 19.999999"
   xml:space="preserve"
   inkscape:version="0.91 r13725"
   sodipodi:docname="map_moveright.svg"
   width="20"
   height="20"
   inkscape:export-filename="C:\projects\AbcMap2\icons\map_moveright.png"
   inkscape:export-xdpi="90"
   inkscape:export-ydpi="90"><metadata
     id="metadata40"><rdf:RDF><cc:Work
         rdf:about=""><dc:format>image/svg+xml</dc:format><dc:type
           rdf:resource="http://purl.org/dc/dcmitype/StillImage" /><dc:title></dc:title></cc:Work></rdf:RDF></metadata><defs
     id="defs38" /><sodipodi:namedview
     pagecolor="#ffffff"
     bordercolor="#666666"
     borderopacity="1"
     objecttolerance="10"
     gridtolerance="10"
     guidetolerance="10"
     inkscape:pageopacity="0"
     inkscape:pageshadow="2"
     inkscape:window-width="1366"
     inkscape:window-height="705"
     id="namedview36"
     showgrid="false"
     inkscape:zoom="14.064571"
     inkscape:cx="8.8938452"
     inkscape:cy="4.4780209"
     inkscape:window-x="-8"
     inkscape:window-y="-8"
     inkscape:window-maximized="1"
     inkscape:current-layer="Capa_1"
     units="in" /><g
     id="g6"
     transform="translate(0,-248.47601)" /><g
     id="g8"
     transform="translate(0,-248.47601)" /><g
     id="g10"
     transform="translate(0,-248.47601)" /><g
     id="g12"
     transform="translate(0,-248.47601)" /><g
     id="g14"
     transform="translate(0,-248.47601)" /><g
     id="g16"
     transform="translate(0,-248.47601)" /><g
     id="g18"
     transform="translate(0,-248.47601)" /><g
     id="g20"
     transform="translate(0,-248.47601)" /><g
     id="g22"
     transform="translate(0,-248.47601)" /><g
     id="g24"
     transform="translate(0,-248.47601)" /><g
     id="g26"
     transform="translate(0,-248.47601)" /><g
     id="g28"
     transform="translate(0,-248.47601)" /><g
     id="g30"
     transform="translate(0,-248.47601)" /><g
     id="g32"
     transform="translate(0,-248.47601)" /><g
     id="g34"
     transform="translate(0,-248.47601)" /><path
     style="clip-rule:evenodd;fill:#1a1a1a;fill-rule:evenodd"
     d="m 1.4095553,9.999804 c 0,-1.0313612 0.836128,-1.8673256 1.867488,-1.8673256 l 8.8821027,0 -2.7341467,-2.7263203 c -0.740884,-0.739548 -0.740884,-1.938679 0,-2.6782271 0.7408007,-0.739548 1.9421547,-0.739548 2.6829557,0 l 5.923629,5.9065116 c 0.337304,0.3367198 0.513076,0.7692799 0.54321,1.2096696 0.0045,0.052252 0.01565,0.1023541 0.01565,0.1556918 0,0.052836 -0.01123,0.102556 -0.01549,0.154224 -0.0298,0.441058 -0.205651,0.874162 -0.543372,1.2113 l -5.92363,5.906674 c -0.7408,0.739631 -1.942154,0.739631 -2.6829547,0 -0.740884,-0.739548 -0.740884,-1.938595 0,-2.678227 l 2.7341457,-2.72632 -8.8821017,0 c -1.03136,0 -1.867488,-0.836124 -1.867488,-1.867651 z"
     id="path4181"
     inkscape:connector-curvature="0" /></svg>