<?xml version="1.0" encoding="UTF-8" standalone="no"?>
<!-- Generator: Adobe Illustrator 15.0.2, SVG Export Plug-In . SVG Version: 6.00 Build 0)  -->

<svg
   xmlns:dc="http://purl.org/dc/elements/1.1/"
   xmlns:cc="http://creativecommons.org/ns#"
   xmlns:rdf="http://www.w3.org/1999/02/22-rdf-syntax-ns#"
   xmlns:svg="http://www.w3.org/2000/svg"
   xmlns="http://www.w3.org/2000/svg"
   xmlns:sodipodi="http://sodipodi.sourceforge.net/DTD/sodipodi-0.dtd"
   xmlns:inkscape="http://www.inkscape.org/namespaces/inkscape"
   version="1.1"
   id="Layer_1"
   x="0px"
   y="0px"
   width="20"
   height="20"
   viewBox="0 0 20 20"
   enable-background="new 0 0 512 463.238"
   xml:space="preserve"
   inkscape:version="0.91 r13725"
   sodipodi:docname="smallicon_duplicate.svg"
   inkscape:export-filename="C:\projects\AbcMap2\icons\edition\smallicon_duplicate.png"
   inkscape:export-xdpi="90"
   inkscape:export-ydpi="90"><metadata
     id="metadata9"><rdf:RDF><cc:Work
         rdf:about=""><dc:format>image/svg+xml</dc:format><dc:type
           rdf:resource="http://purl.org/dc/dcmitype/StillImage" /><dc:title /></cc:Work></rdf:RDF></metadata><defs
     id="defs7" /><sodipodi:namedview
     pagecolor="#ffffff"
     bordercolor="#666666"
     borderopacity="1"
     objecttolerance="10"
     gridtolerance="10"
     guidetolerance="10"
     inkscape:pageopacity="0"
     inkscape:pageshadow="2"
     inkscape:window-width="1366"
     inkscape:window-height="705"
     id="namedview5"
     showgrid="false"
     inkscape:zoom="23.055408"
     inkscape:cx="9.7861473"
     inkscape:cy="8.343374"
     inkscape:window-x="-8"
     inkscape:window-y="-8"
     inkscape:window-maximized="1"
     inkscape:current-layer="Layer_1" /><path
     d="m 7.1500661,1.7974997 0,16.4050003 12.6330319,0 0,-14.1289775 -2.347337,-2.2760228 -10.2856949,0 z m 11.5411729,15.3128093 -10.4484862,0 0,-14.2205363 8.6306752,0 0,1.732861 1.816985,0 0,12.4876753 8.26e-4,0 z"
     id="path4827"
     style="fill:#1a1a1a"
     inkscape:connector-curvature="0" /><path
     style="fill:#1a1a1a"
     d="m 0.21690134,1.7975157 0,16.4049683 5.98267016,0 0,-1.093248 -4.8894221,0 0,-14.2205546 4.8894221,0 0,-1.0911657 -5.98267016,0 z"
     id="path4857"
     inkscape:connector-curvature="0" /><path
     style="fill:#1a1a1a"
     d="m 9.6261145,7.6628545 3.5171345,3.0152835 -9.043764,0 0,2.009493 9.043764,0 -3.5171345,3.015283 3.0131995,0 4.66869,-3.852398 -4.66869,-4.1876615 -3.0131995,0 z"
     id="path3"
     inkscape:connector-curvature="0" /></svg>