<?xml version="1.0" encoding="UTF-8" standalone="no"?>
<!-- Generator: Adobe Illustrator 15.0.2, SVG Export Plug-In . SVG Version: 6.00 Build 0)  -->

<svg
   xmlns:dc="http://purl.org/dc/elements/1.1/"
   xmlns:cc="http://creativecommons.org/ns#"
   xmlns:rdf="http://www.w3.org/1999/02/22-rdf-syntax-ns#"
   xmlns:svg="http://www.w3.org/2000/svg"
   xmlns="http://www.w3.org/2000/svg"
   xmlns:sodipodi="http://sodipodi.sourceforge.net/DTD/sodipodi-0.dtd"
   xmlns:inkscape="http://www.inkscape.org/namespaces/inkscape"
   version="1.1"
   id="Layer_1"
   x="0px"
   y="0px"
   width="20"
   height="20"
   viewBox="0 0 20 20"
   enable-background="new 0 0 512 463.238"
   xml:space="preserve"
   inkscape:version="0.91 r13725"
   sodipodi:docname="smallicon_selectall.svg"
   inkscape:export-filename="C:\projects\AbcMap2\icons\edition\smallicon_selectall.png"
   inkscape:export-xdpi="90"
   inkscape:export-ydpi="90"><metadata
     id="metadata9"><rdf:RDF><cc:Work
         rdf:about=""><dc:format>image/svg+xml</dc:format><dc:type
           rdf:resource="http://purl.org/dc/dcmitype/StillImage" /><dc:title /></cc:Work></rdf:RDF></metadata><defs
     id="defs7" /><sodipodi:namedview
     pagecolor="#ffffff"
     bordercolor="#666666"
     borderopacity="1"
     objecttolerance="10"
     gridtolerance="10"
     guidetolerance="10"
     inkscape:pageopacity="0"
     inkscape:pageshadow="2"
     inkscape:window-width="1366"
     inkscape:window-height="705"
     id="namedview5"
     showgrid="false"
     inkscape:zoom="8.1513175"
     inkscape:cx="-19.236031"
     inkscape:cy="-0.2831832"
     inkscape:window-x="-8"
     inkscape:window-y="-8"
     inkscape:window-maximized="1"
     inkscape:current-layer="Layer_1" /><rect
     style="opacity:1;fill:none;fill-opacity:1;stroke:#1a1a1a;stroke-width:1.03685355;stroke-linecap:round;stroke-linejoin:round;stroke-miterlimit:4;stroke-dasharray:1.03685359, 2.07370719;stroke-dashoffset:0;stroke-opacity:1"
     id="rect4923"
     width="18.078846"
     height="18.52857"
     x="0.96057701"
     y="0.73571527"
     ry="3.9575584" /><g
     id="g4197"
     transform="translate(18.07801,-0.03679985)"><path
       sodipodi:nodetypes="cccccccccccccc"
       inkscape:connector-curvature="0"
       id="path4186"
       d="m -11.859375,5.171875 0,9.779297 2.2558594,0 0,-0.652344 -1.6054684,0 0,-8.4746092 5.1445309,0 0,1.03125 1.0820312,0 0,1.1054687 0.6523438,0 0,-1.4316406 -1.4003907,-1.3574219 z"
       style="fill:#1a1a1a" /><path
       d="m -9.6033834,7.8987337 0,9.7778453 7.5296451,0 0,-8.4212712 -1.399079,-1.3565741 -6.1305661,0 z m 6.8788661,9.1268683 -6.2275939,0 0,-8.4758427 5.1441279,0 0,1.0328343 1.082974,0 0,7.4430084 4.92e-4,0 z"
       id="path4193"
       style="fill:#1a1a1a"
       inkscape:connector-curvature="0" /><path
       style="fill:#1a1a1a"
       d="m -14.082281,2.3970207 0,9.7792973 2.25586,0 0,-0.652344 -1.605469,0 0,-8.4746095 5.1445311,0 0,1.03125 1.0820312,0 0,1.1054687 0.6523438,0 0,-1.4316406 -1.4003907,-1.3574219 z"
       id="path4195"
       inkscape:connector-curvature="0"
       sodipodi:nodetypes="cccccccccccccc" /></g></svg>