<?xml version="1.0" encoding="UTF-8" standalone="no"?>
<!-- Generator: Adobe Illustrator 16.0.0, SVG Export Plug-In . SVG Version: 6.00 Build 0)  -->

<svg
   xmlns:dc="http://purl.org/dc/elements/1.1/"
   xmlns:cc="http://creativecommons.org/ns#"
   xmlns:rdf="http://www.w3.org/1999/02/22-rdf-syntax-ns#"
   xmlns:svg="http://www.w3.org/2000/svg"
   xmlns="http://www.w3.org/2000/svg"
   xmlns:sodipodi="http://sodipodi.sourceforge.net/DTD/sodipodi-0.dtd"
   xmlns:inkscape="http://www.inkscape.org/namespaces/inkscape"
   version="1.1"
   id="Capa_1"
   x="0px"
   y="0px"
   width="20"
   height="20"
   viewBox="0 0 20 20"
   xml:space="preserve"
   inkscape:version="0.91 r13725"
   sodipodi:docname="smallicon_paste.svg"
   inkscape:export-filename="C:\projects\AbcMap2\icons\edition\smallicon_paste.png"
   inkscape:export-xdpi="90"
   inkscape:export-ydpi="90"><metadata
     id="metadata47"><rdf:RDF><cc:Work
         rdf:about=""><dc:format>image/svg+xml</dc:format><dc:type
           rdf:resource="http://purl.org/dc/dcmitype/StillImage" /><dc:title /></cc:Work></rdf:RDF></metadata><defs
     id="defs45" /><sodipodi:namedview
     pagecolor="#ffffff"
     bordercolor="#666666"
     borderopacity="1"
     objecttolerance="10"
     gridtolerance="10"
     guidetolerance="10"
     inkscape:pageopacity="0"
     inkscape:pageshadow="2"
     inkscape:window-width="1366"
     inkscape:window-height="705"
     id="namedview43"
     showgrid="false"
     inkscape:zoom="17.967263"
     inkscape:cx="7.5389032"
     inkscape:cy="6.6905045"
     inkscape:window-x="-8"
     inkscape:window-y="-8"
     inkscape:window-maximized="1"
     inkscape:current-layer="Capa_1" /><path
     inkscape:connector-curvature="0"
     style="fill:#1a1a1a"
     id="path9"
     d="m 6.8432701,3.4288476 6.3142099,0 c 0.207502,0 0.374552,-0.1674251 0.374552,-0.3745527 l 0,-1.1839611 -1.659268,0 0,-0.96072775 c 0,-0.41350619 -0.335599,-0.74910542 -0.749106,-0.74910542 l -2.2473158,0 c -0.4135062,0 -0.7491054,0.33559923 -0.7491054,0.74910542 l 0,0.96072775 -1.6585194,0 0,1.1839611 c 0,0.2071276 0.167425,0.3745527 0.3745527,0.3745527 z" /><path
     inkscape:connector-curvature="0"
     style="fill:#1a1a1a"
     id="path11"
     d="m 14.281138,1.8703338 0,1.1839611 c 0,0.6195101 -0.504523,1.1236581 -1.123658,1.1236581 l -6.3142099,0 c -0.6195102,0 -1.1236581,-0.504148 -1.1236581,-1.1236581 l 0,-1.1839611 -3.2106659,0 0,16.4709552 c 0,0.827387 0.6708239,1.498211 1.4982109,1.498211 l 11.985687,0 c 0.827387,0 1.498211,-0.670824 1.498211,-1.498211 l 0,-16.4709552 -3.209917,0 z m 1.337153,16.0964022 -11.2365813,0 0,-12.1134087 11.2365813,0 0,12.1134087 z" /><g
     id="g13"
     transform="translate(0,-32.540001)" /><g
     id="g15"
     transform="translate(0,-32.540001)" /><g
     id="g17"
     transform="translate(0,-32.540001)" /><g
     id="g19"
     transform="translate(0,-32.540001)" /><g
     id="g21"
     transform="translate(0,-32.540001)" /><g
     id="g23"
     transform="translate(0,-32.540001)" /><g
     id="g25"
     transform="translate(0,-32.540001)" /><g
     id="g27"
     transform="translate(0,-32.540001)" /><g
     id="g29"
     transform="translate(0,-32.540001)" /><g
     id="g31"
     transform="translate(0,-32.540001)" /><g
     id="g33"
     transform="translate(0,-32.540001)" /><g
     id="g35"
     transform="translate(0,-32.540001)" /><g
     id="g37"
     transform="translate(0,-32.540001)" /><g
     id="g39"
     transform="translate(0,-32.540001)" /><g
     id="g41"
     transform="translate(0,-32.540001)" /></svg>