<?xml version="1.0" encoding="UTF-8" standalone="no"?>
<!-- Generator: Adobe Illustrator 16.0.0, SVG Export Plug-In . SVG Version: 6.00 Build 0)  -->

<svg
   xmlns:dc="http://purl.org/dc/elements/1.1/"
   xmlns:cc="http://creativecommons.org/ns#"
   xmlns:rdf="http://www.w3.org/1999/02/22-rdf-syntax-ns#"
   xmlns:svg="http://www.w3.org/2000/svg"
   xmlns="http://www.w3.org/2000/svg"
   xmlns:sodipodi="http://sodipodi.sourceforge.net/DTD/sodipodi-0.dtd"
   xmlns:inkscape="http://www.inkscape.org/namespaces/inkscape"
   version="1.1"
   id="Capa_1"
   x="0px"
   y="0px"
   width="20"
   height="20"
   viewBox="0 0 20.000001 20.000001"
   xml:space="preserve"
   inkscape:version="0.91 r13725"
   sodipodi:docname="smallicon_copy.svg"
   inkscape:export-filename="C:\projects\AbcMap2\icons\edition\smallicon_copy.png"
   inkscape:export-xdpi="90"
   inkscape:export-ydpi="90"><metadata
     id="metadata58"><rdf:RDF><cc:Work
         rdf:about=""><dc:format>image/svg+xml</dc:format><dc:type
           rdf:resource="http://purl.org/dc/dcmitype/StillImage" /><dc:title /></cc:Work></rdf:RDF></metadata><defs
     id="defs56" /><sodipodi:namedview
     pagecolor="#ffffff"
     bordercolor="#666666"
     borderopacity="1"
     objecttolerance="10"
     gridtolerance="10"
     guidetolerance="10"
     inkscape:pageopacity="0"
     inkscape:pageshadow="2"
     inkscape:window-width="1366"
     inkscape:window-height="705"
     id="namedview54"
     showgrid="false"
     inkscape:zoom="20.810065"
     inkscape:cx="6.4944992"
     inkscape:cy="10.785785"
     inkscape:window-x="-8"
     inkscape:window-y="-8"
     inkscape:window-maximized="1"
     inkscape:current-layer="Capa_1" /><path
     inkscape:connector-curvature="0"
     style="fill:#1a1a1a"
     id="path8"
     d="m 4.7725221,8.7775744 c -0.5311496,0 -0.5311496,0.8251303 0,0.8251303 2.1154526,0 4.2305176,0 6.3458149,0 0.53208,0 0.53208,-0.8251303 0,-0.8251303 -2.1152973,0 -4.2303623,0 -6.3458149,0 z" /><path
     inkscape:connector-curvature="0"
     style="fill:#1a1a1a"
     id="path10"
     d="m 11.118337,10.728481 c -2.1152973,0 -4.2303623,0 -6.3458149,0 -0.5311496,0 -0.5311496,0.824201 0,0.824201 2.1154526,0 4.2305176,0 6.3458149,0 0.532157,0 0.532157,-0.824201 0,-0.824201 z" /><path
     inkscape:connector-curvature="0"
     style="fill:#1a1a1a"
     id="path12"
     d="m 11.118337,12.53546 c -2.1152973,0 -4.2303623,0 -6.3458149,0 -0.5311496,0 -0.5311496,0.824122 0,0.824122 2.1154526,0 4.2305176,0 6.3458149,0 0.532157,-7.7e-5 0.532157,-0.824122 0,-0.824122 z" /><path
     inkscape:connector-curvature="0"
     style="fill:#1a1a1a"
     id="path14"
     d="m 11.118337,14.485979 c -2.1152973,0 -4.2303623,0 -6.3458149,0 -0.5311496,0 -0.5311496,0.823813 0,0.823813 2.1154526,0 4.2305176,0 6.3458149,0 0.532157,-7.8e-5 0.532157,-0.823813 0,-0.823813 z" /><path
     inkscape:connector-curvature="0"
     style="fill:#1a1a1a"
     id="path16"
     d="m 10.997118,16.32675 c -2.116073,0 -4.2319131,0 -6.3469781,0 -0.5307621,0 -0.5307621,0.824123 0,0.824123 2.115065,0 4.2309051,0 6.3469781,0 0.530529,-7.8e-5 0.530529,-0.824123 0,-0.824123 z" /><path
     inkscape:connector-curvature="0"
     style="fill:#1a1a1a"
     id="path18"
     d="m 2.0212866,4.5576751 0,15.3867509 11.8489064,0 0,-13.2519993 -2.20164,-2.1347516 -9.6472664,0 z m 10.8248174,14.3623529 -9.7999537,0 0,-13.3378768 8.0949737,0 0,1.6253038 1.704205,0 0,11.712573 7.75e-4,0 z" /><polygon
     style="fill:#1a1a1a"
     id="polygon20"
     points="185.059,212.971 185.059,226.188 204.086,226.188 204.086,55.205 175.68,27.667 51.204,27.667 51.204,50.645 64.427,50.645 64.427,40.88 168.875,40.88 168.875,61.85 190.868,61.85 190.868,212.971 "
     transform="matrix(0.07750614,0,0,0.07750614,0.0555759,0.0555759)" /><polygon
     style="fill:#1a1a1a"
     id="polygon22"
     points="218.025,185.306 212.221,185.306 212.221,198.523 231.248,198.523 231.248,27.543 202.837,0 78.363,0 78.363,22.983 91.581,22.983 91.581,13.218 196.032,13.218 196.032,34.188 218.025,34.188 "
     transform="matrix(0.07750614,0,0,0.07750614,0.0555759,0.0555759)" /><g
     id="g24"
     transform="translate(0,-236.60999)" /><g
     id="g26"
     transform="translate(0,-236.60999)" /><g
     id="g28"
     transform="translate(0,-236.60999)" /><g
     id="g30"
     transform="translate(0,-236.60999)" /><g
     id="g32"
     transform="translate(0,-236.60999)" /><g
     id="g34"
     transform="translate(0,-236.60999)" /><g
     id="g36"
     transform="translate(0,-236.60999)" /><g
     id="g38"
     transform="translate(0,-236.60999)" /><g
     id="g40"
     transform="translate(0,-236.60999)" /><g
     id="g42"
     transform="translate(0,-236.60999)" /><g
     id="g44"
     transform="translate(0,-236.60999)" /><g
     id="g46"
     transform="translate(0,-236.60999)" /><g
     id="g48"
     transform="translate(0,-236.60999)" /><g
     id="g50"
     transform="translate(0,-236.60999)" /><g
     id="g52"
     transform="translate(0,-236.60999)" /></svg>