<?xml version="1.0" encoding="UTF-8" standalone="no"?>
<!-- Generator: Adobe Illustrator 16.0.0, SVG Export Plug-In . SVG Version: 6.00 Build 0)  -->

<svg
   xmlns:dc="http://purl.org/dc/elements/1.1/"
   xmlns:cc="http://creativecommons.org/ns#"
   xmlns:rdf="http://www.w3.org/1999/02/22-rdf-syntax-ns#"
   xmlns:svg="http://www.w3.org/2000/svg"
   xmlns="http://www.w3.org/2000/svg"
   xmlns:sodipodi="http://sodipodi.sourceforge.net/DTD/sodipodi-0.dtd"
   xmlns:inkscape="http://www.inkscape.org/namespaces/inkscape"
   version="1.1"
   id="Capa_1"
   x="0px"
   y="0px"
   width="20"
   height="20"
   viewBox="0 0 20 20"
   xml:space="preserve"
   inkscape:version="0.91 r13725"
   sodipodi:docname="smallicon_delete.svg"
   inkscape:export-filename="C:\projects\AbcMap2\icons\edition\smallicon_delete.png"
   inkscape:export-xdpi="90"
   inkscape:export-ydpi="90"><metadata
     id="metadata49"><rdf:RDF><cc:Work
         rdf:about=""><dc:format>image/svg+xml</dc:format><dc:type
           rdf:resource="http://purl.org/dc/dcmitype/StillImage" /><dc:title /></cc:Work></rdf:RDF></metadata><defs
     id="defs47" /><sodipodi:namedview
     pagecolor="#ffffff"
     bordercolor="#666666"
     borderopacity="1"
     objecttolerance="10"
     gridtolerance="10"
     guidetolerance="10"
     inkscape:pageopacity="0"
     inkscape:pageshadow="2"
     inkscape:window-width="1366"
     inkscape:window-height="705"
     id="namedview45"
     showgrid="false"
     inkscape:zoom="19.507508"
     inkscape:cx="2.3880858"
     inkscape:cy="9.5831864"
     inkscape:window-x="-8"
     inkscape:window-y="-8"
     inkscape:window-maximized="1"
     inkscape:current-layer="Capa_1" /><g
     id="g4171"
     transform="translate(-1.45e-6,-1.67e-6)"><path
       inkscape:connector-curvature="0"
       id="path7"
       d="m 16.475438,2.431396 -2.643678,0 0,-1.71792149 c 0,-0.34579378 -0.278921,-0.61351417 -0.624689,-0.61351417 -0.03355,0 -0.05593,0.01120083 -0.06685,0.02237609 -0.0112,-0.0111753 -0.03358,-0.02237609 -0.04475,-0.02237609 l -6.213317,0 -0.044496,0 -0.044752,0 c -0.3457682,0 -0.6134886,0.26772039 -0.6134886,0.61351417 l 0,1.71794709 -2.6548534,0 c -0.7586647,0 -1.3498027,0.591138 -1.3498027,1.3498027 l 0,0.9816585 0,1.2270028 1.1713054,0 0,12.5715294 c 0,0.75869 0.5799628,1.338628 1.3386275,1.338628 l 10.6306398,0 c 0.758665,0 1.349778,-0.579938 1.349778,-1.338628 l 0,-12.5715294 1.16013,0 0,-1.2270028 0,-0.9816585 c 0,-0.7586647 -0.591368,-1.3498283 -1.349803,-1.3498283 z m -9.0690184,-1.1044329 5.1871624,0 0,1.1044329 -5.1871624,0 0,-1.1044329 z M 15.426933,18.561441 c 0,0.07828 -0.03355,0.111573 -0.1116,0.111573 l -10.6306394,0 c -0.078048,0 -0.1115991,-0.03332 -0.1115991,-0.111573 l 0,-12.571581 10.8538385,0 0,12.571581 z m 1.16013,-13.7985838 -13.1741243,0 0,-0.9816584 c 0,-0.078073 0.033551,-0.1228 0.1115992,-0.1228 l 12.9509001,0 c 0.07807,0 0.111625,0.044727 0.111625,0.1228 l 0,0.9816584 z" /><rect
       id="rect9"
       height="10.15087"
       width="1.238178"
       y="7.4289112"
       x="12.247788" /><rect
       id="rect11"
       height="10.15087"
       width="1.238178"
       y="7.4289112"
       x="9.392087" /><rect
       id="rect13"
       height="10.15087"
       width="1.238178"
       y="7.4289112"
       x="6.5363603" /></g><g
     id="g15"
     transform="translate(0,-754.26599)" /><g
     id="g17"
     transform="translate(0,-754.26599)" /><g
     id="g19"
     transform="translate(0,-754.26599)" /><g
     id="g21"
     transform="translate(0,-754.26599)" /><g
     id="g23"
     transform="translate(0,-754.26599)" /><g
     id="g25"
     transform="translate(0,-754.26599)" /><g
     id="g27"
     transform="translate(0,-754.26599)" /><g
     id="g29"
     transform="translate(0,-754.26599)" /><g
     id="g31"
     transform="translate(0,-754.26599)" /><g
     id="g33"
     transform="translate(0,-754.26599)" /><g
     id="g35"
     transform="translate(0,-754.26599)" /><g
     id="g37"
     transform="translate(0,-754.26599)" /><g
     id="g39"
     transform="translate(0,-754.26599)" /><g
     id="g41"
     transform="translate(0,-754.26599)" /><g
     id="g43"
     transform="translate(0,-754.26599)" /></svg>