<?xml version="1.0" encoding="UTF-8" standalone="no"?>
<!-- Generator: Adobe Illustrator 18.0.0, SVG Export Plug-In . SVG Version: 6.00 Build 0)  -->

<svg
   xmlns:dc="http://purl.org/dc/elements/1.1/"
   xmlns:cc="http://creativecommons.org/ns#"
   xmlns:rdf="http://www.w3.org/1999/02/22-rdf-syntax-ns#"
   xmlns:svg="http://www.w3.org/2000/svg"
   xmlns="http://www.w3.org/2000/svg"
   xmlns:sodipodi="http://sodipodi.sourceforge.net/DTD/sodipodi-0.dtd"
   xmlns:inkscape="http://www.inkscape.org/namespaces/inkscape"
   version="1.1"
   id="Capa_1"
   x="0px"
   y="0px"
   viewBox="0 0 20 20"
   xml:space="preserve"
   inkscape:version="0.91 r13725"
   sodipodi:docname="smallicon_reanalyse.svg"
   width="20"
   height="20"
   inkscape:export-filename="C:\projects\AbcMap2\icons\edition\smallicon_reanalyse.png"
   inkscape:export-xdpi="90"
   inkscape:export-ydpi="90"><metadata
     id="metadata47"><rdf:RDF><cc:Work
         rdf:about=""><dc:format>image/svg+xml</dc:format><dc:type
           rdf:resource="http://purl.org/dc/dcmitype/StillImage" /><dc:title /></cc:Work></rdf:RDF></metadata><defs
     id="defs45" /><sodipodi:namedview
     pagecolor="#ffffff"
     bordercolor="#666666"
     borderopacity="1"
     objecttolerance="10"
     gridtolerance="10"
     guidetolerance="10"
     inkscape:pageopacity="0"
     inkscape:pageshadow="2"
     inkscape:window-width="1366"
     inkscape:window-height="705"
     id="namedview43"
     showgrid="false"
     inkscape:zoom="15.527306"
     inkscape:cx="0.91624838"
     inkscape:cy="7.7808999"
     inkscape:window-x="-8"
     inkscape:window-y="-8"
     inkscape:window-maximized="1"
     inkscape:current-layer="Capa_1" /><g
     id="g13"
     transform="translate(0,-466.36899)" /><g
     id="g15"
     transform="translate(0,-466.36899)" /><g
     id="g17"
     transform="translate(0,-466.36899)" /><g
     id="g19"
     transform="translate(0,-466.36899)" /><g
     id="g21"
     transform="translate(0,-466.36899)" /><g
     id="g23"
     transform="translate(0,-466.36899)" /><g
     id="g25"
     transform="translate(0,-466.36899)" /><g
     id="g27"
     transform="translate(0,-466.36899)" /><g
     id="g29"
     transform="translate(0,-466.36899)" /><g
     id="g31"
     transform="translate(0,-466.36899)" /><g
     id="g33"
     transform="translate(0,-466.36899)" /><g
     id="g35"
     transform="translate(0,-466.36899)" /><g
     id="g37"
     transform="translate(0,-466.36899)" /><g
     id="g39"
     transform="translate(0,-466.36899)" /><g
     id="g41"
     transform="translate(0,-466.36899)" /><g
     id="g4934"
     transform="matrix(0.75996676,0.51700424,-0.51700424,0.75996676,29.499944,0.96036244)"><path
       inkscape:connector-curvature="0"
       style="fill:#1a1a1a"
       id="path7"
       d="m -1.6797551,24.868109 c 0.0614,-0.147573 0.02792,-0.317416 -0.08511,-0.430468 l -1.021397,-1.021373 c 1.188147,-1.638163 1.049311,-3.946756 -0.426283,-5.42231 l -0.417912,-0.417891 c -0.320911,-0.320952 -0.842062,-0.320952 -1.1630143,0 -0.160455,0.160455 -0.240693,0.371138 -0.240693,0.581151 0,0.210723 0.08022,0.421041 0.240693,0.581496 l 0.4179323,0.417933 c 0.832289,0.831963 0.964847,2.099982 0.403222,3.074277 l -0.9167123,-0.917423 c -0.113012,-0.113052 -0.283241,-0.146517 -0.430469,-0.08585 -0.147919,0.06142 -0.244188,0.205461 -0.244188,0.365246 l 0,3.123835 c 0,0.218364 0.177218,0.395216 0.394911,0.395216 l 3.1241403,0 c 0.159765,-2e-5 0.304189,-0.09594 0.36488,-0.243843 z" /><path
       inkscape:connector-curvature="0"
       style="fill:#1a1a1a"
       id="path11"
       d="M -7.829568,23.708407 -8.24746,23.29084 c -0.481367,-0.481062 -0.746504,-1.121482 -0.746504,-1.802072 0,-0.454546 0.120693,-0.889871 0.342571,-1.272916 l 0.918114,0.917768 c 0.113032,0.113378 0.28257,0.146883 0.430449,0.08585 0.147248,-0.0614 0.243497,-0.205461 0.243497,-0.365246 l 0,-3.123815 c 0,-0.218363 -0.176548,-0.395216 -0.394891,-0.395216 l -3.12418,0 c -0.159724,0 -0.303478,0.09627 -0.364881,0.243823 -0.06136,0.147553 -0.02717,0.317762 0.08585,0.430794 l 1.019971,1.020011 c -0.516944,0.711271 -0.800896,1.562415 -0.800896,2.458951 0,1.120101 0.436036,2.172886 1.228581,2.965127 l 0.417201,0.417525 c 0.321643,0.320912 0.842082,0.320912 1.163014,0 0.320931,-0.321297 0.320931,-0.842102 0,-1.163013 z" /></g><g
     id="g4348"
     transform="translate(23.442573,0)"><path
       id="rect4268"
       d="m -8.3808594,5.2011719 0,2.1289062 a 6.6325941,6.6325941 0 0 1 2.8066406,1.3203125 l 0.6425782,0 0,-3.4492187 -3.4492188,0 z"
       style="opacity:1;fill:#666666;fill-opacity:1;stroke:none;stroke-width:1.505;stroke-linecap:round;stroke-linejoin:round;stroke-miterlimit:4;stroke-dasharray:none;stroke-dashoffset:0;stroke-opacity:1"
       inkscape:connector-curvature="0" /><path
       id="rect4270"
       d="m -13.203125,5.2011719 0,2.9921875 a 6.6325941,6.6325941 0 0 1 3.4492188,-0.9980469 l 0,-1.9941406 -3.4492188,0 z"
       style="opacity:1;fill:#1a1a1a;fill-opacity:1;stroke:none;stroke-width:1.505;stroke-linecap:round;stroke-linejoin:round;stroke-miterlimit:4;stroke-dasharray:none;stroke-dashoffset:0;stroke-opacity:1"
       inkscape:connector-curvature="0" /><path
       style="opacity:1;fill:#666666;fill-opacity:1;stroke:none;stroke-width:1.505;stroke-linecap:round;stroke-linejoin:round;stroke-miterlimit:4;stroke-dasharray:none;stroke-dashoffset:0;stroke-opacity:1"
       d="m -18.025824,5.2016061 3.449216,0 0,3.4492159 -3.449216,0 z"
       id="rect4272"
       inkscape:connector-curvature="0" /><path
       style="opacity:1;fill:#1a1a1a;fill-opacity:1;stroke:none;stroke-width:1.505;stroke-linecap:round;stroke-linejoin:round;stroke-miterlimit:4;stroke-dasharray:none;stroke-dashoffset:0;stroke-opacity:1"
       d="m -22.848338,5.2016061 3.449216,0 0,3.4492159 -3.449216,0 z"
       id="rect4274"
       inkscape:connector-curvature="0" /><path
       id="rect4280"
       d="m -18.025391,9.8964844 0,3.4492186 1.703125,0 a 6.6325941,6.6325941 0 0 1 1.277344,-3.4492186 l -2.980469,0 z"
       style="opacity:1;fill:#1a1a1a;fill-opacity:1;stroke:none;stroke-width:1.505;stroke-linecap:round;stroke-linejoin:round;stroke-miterlimit:4;stroke-dasharray:none;stroke-dashoffset:0;stroke-opacity:1"
       inkscape:connector-curvature="0" /><path
       style="opacity:1;fill:#808080;fill-opacity:1;stroke:none;stroke-width:1.505;stroke-linecap:round;stroke-linejoin:round;stroke-miterlimit:4;stroke-dasharray:none;stroke-dashoffset:0;stroke-opacity:1"
       d="m -22.848338,9.8963725 3.449216,0 0,3.4492145 -3.449216,0 z"
       id="rect4282"
       inkscape:connector-curvature="0" /><path
       id="rect4288"
       d="m -18.025391,14.591797 0,3.449219 3.197266,0 a 6.6325941,6.6325941 0 0 1 -1.464844,-3.449219 l -1.732422,0 z"
       style="opacity:1;fill:#808080;fill-opacity:1;stroke:none;stroke-width:1.505;stroke-linecap:round;stroke-linejoin:round;stroke-miterlimit:4;stroke-dasharray:none;stroke-dashoffset:0;stroke-opacity:1"
       inkscape:connector-curvature="0" /><path
       style="opacity:1;fill:#1a1a1a;fill-opacity:1;stroke:none;stroke-width:1.505;stroke-linecap:round;stroke-linejoin:round;stroke-miterlimit:4;stroke-dasharray:none;stroke-dashoffset:0;stroke-opacity:1"
       d="m -22.848338,14.59114 3.449216,0 0,3.449216 -3.449216,0 z"
       id="rect4290"
       inkscape:connector-curvature="0" /><path
       style="opacity:1;fill:#1a1a1a;fill-opacity:1;stroke:none;stroke-width:1.505;stroke-linecap:round;stroke-linejoin:round;stroke-miterlimit:4;stroke-dasharray:none;stroke-dashoffset:0;stroke-opacity:1"
       d="m -8.3807922,0.50683788 3.4492148,0 0,3.44921582 -3.4492148,0 z"
       id="rect4292"
       inkscape:connector-curvature="0" /><path
       style="opacity:1;fill:#666666;fill-opacity:1;stroke:none;stroke-width:1.505;stroke-linecap:round;stroke-linejoin:round;stroke-miterlimit:4;stroke-dasharray:none;stroke-dashoffset:0;stroke-opacity:1"
       d="m -13.203312,0.50683788 3.4492168,0 0,3.44921582 -3.4492168,0 z"
       id="rect4294"
       inkscape:connector-curvature="0" /><path
       style="opacity:1;fill:#1a1a1a;fill-opacity:1;stroke:none;stroke-width:1.505;stroke-linecap:round;stroke-linejoin:round;stroke-miterlimit:4;stroke-dasharray:none;stroke-dashoffset:0;stroke-opacity:1"
       d="m -18.025824,0.50683788 3.449216,0 0,3.44921582 -3.449216,0 z"
       id="rect4296"
       inkscape:connector-curvature="0" /><path
       style="opacity:1;fill:#1a1a1a;fill-opacity:1;stroke:none;stroke-width:1.505;stroke-linecap:round;stroke-linejoin:round;stroke-miterlimit:4;stroke-dasharray:none;stroke-dashoffset:0;stroke-opacity:1"
       d="m -22.848338,0.50683788 3.449216,0 0,3.44921582 -3.449216,0 z"
       id="rect4298"
       inkscape:connector-curvature="0" /></g></svg>